<?xml version="1.0" standalone="no"?>
<!DOCTYPE svg PUBLIC "-//W3C//DTD SVG 20010904//EN"
 "http://www.w3.org/TR/2001/REC-SVG-20010904/DTD/svg10.dtd">
<svg version="1.0" xmlns="http://www.w3.org/2000/svg"
 width="1060.000000pt" height="653.000000pt" viewBox="0 0 1060.000000 653.000000"
 preserveAspectRatio="xMidYMid meet">

<g transform="translate(0.000000,653.000000) scale(0.100000,-0.100000)"
fill="#000000" stroke="none">
<path d="M0 3985 c0 -1512 4 -2545 9 -2545 5 0 40 30 77 66 52 50 82 70 124
84 71 23 117 40 157 57 17 7 36 13 43 13 7 0 24 7 38 14 15 8 45 23 67 32 26
11 90 67 182 160 78 79 148 144 157 144 17 0 16 -10 -15 -143 -30 -131 -1
-164 102 -117 25 11 66 20 93 20 48 0 52 2 116 67 36 38 95 101 130 142 36 41
72 82 80 91 9 8 29 36 45 62 61 94 109 164 130 188 22 25 48 107 39 122 -3 4
2 18 10 30 9 12 16 30 16 40 0 10 5 18 10 18 6 0 10 8 10 18 0 9 11 34 25 54
14 20 25 41 25 45 0 4 13 22 28 38 15 17 37 42 49 58 l21 27 11 -32 c6 -17 7
-34 3 -37 -5 -3 -12 -17 -15 -31 -3 -14 -17 -56 -30 -95 -14 -38 -28 -93 -32
-122 -6 -50 -6 -52 22 -66 15 -7 37 -12 48 -10 38 8 105 36 105 44 0 5 7 5 17
2 11 -4 14 -3 9 5 -4 7 -2 12 4 12 6 0 15 11 20 24 5 13 18 27 30 31 24 8 43
-5 21 -13 -23 -8 -63 -51 -56 -61 3 -5 1 -13 -5 -16 -7 -4 -7 -11 -2 -18 5 -7
14 -27 20 -44 9 -28 9 -33 -5 -33 -23 0 -13 -99 18 -175 23 -56 36 -70 104
-110 15 -9 16 -14 6 -33 -7 -13 -13 -54 -13 -93 l-2 -69 -50 -15 c-28 -8 -79
-19 -113 -25 -34 -6 -132 -31 -217 -55 -85 -25 -222 -62 -303 -84 -162 -43
-285 -77 -438 -122 -55 -16 -139 -36 -186 -44 -47 -8 -133 -28 -190 -44 -57
-16 -131 -34 -164 -41 -70 -14 -201 -48 -230 -61 -11 -4 -47 -13 -80 -19 -32
-5 -63 -14 -67 -18 -5 -5 -7 -127 -6 -273 l3 -264 19 50 c29 80 63 127 89 123
23 -3 39 -41 68 -152 16 -64 59 -106 131 -129 52 -16 85 -35 156 -87 30 -22
108 -31 297 -34 52 0 104 -7 124 -15 27 -12 42 -12 77 -3 25 7 60 12 79 12 19
0 55 5 80 12 41 11 47 10 66 -9 28 -27 18 -57 -24 -74 -18 -8 -34 -14 -37 -15
-3 0 -12 -4 -20 -7 -8 -3 -44 -16 -80 -27 -36 -12 -83 -33 -104 -48 -38 -26
-44 -27 -215 -31 -371 -9 -396 -8 -493 28 -48 18 -115 50 -148 72 -33 21 -63
39 -65 39 -3 0 -5 -106 -5 -235 l0 -235 946 0 c837 0 945 2 940 15 -3 9 0 15
9 15 8 0 15 -7 15 -15 0 -21 128 -22 136 -1 16 41 -86 110 -147 100 -30 -5
-42 -1 -70 24 -51 44 -153 92 -196 92 -22 0 -48 -9 -63 -20 -30 -24 -66 -26
-74 -4 -3 9 -6 30 -6 48 0 31 4 34 127 96 70 36 136 74 147 84 19 19 18 20
-44 75 l-63 57 27 41 c16 24 26 51 24 65 -2 19 -9 23 -43 24 -60 2 -65 3 -65
13 0 5 16 15 35 21 39 13 65 52 65 96 0 37 -67 98 -153 142 -36 18 -68 39 -71
48 -17 45 78 150 206 226 38 22 124 65 191 93 68 29 154 68 193 87 l70 35 0
-46 c-1 -38 2 -46 17 -45 9 1 17 -2 17 -8 0 -5 5 -6 10 -3 6 4 10 3 9 -2 -4
-20 2 -33 15 -33 7 0 21 -11 29 -24 14 -20 14 -26 3 -36 -9 -7 -16 -7 -20 -1
-3 5 0 11 6 14 16 6 -59 77 -81 77 -12 0 -13 -2 -3 -9 28 -17 -19 -106 -56
-106 -8 0 -22 -25 -33 -55 l-20 -55 22 -14 c12 -8 32 -32 45 -53 25 -38 91
-88 119 -88 8 0 15 -5 15 -11 0 -6 -7 -8 -16 -5 -13 5 -14 4 -6 -7 7 -8 9 -16
7 -19 -14 -14 45 -139 86 -183 67 -71 80 -97 82 -162 1 -32 7 -62 12 -66 6 -6
6 -10 -2 -14 -29 -11 67 -100 127 -118 14 -4 45 -20 70 -35 62 -38 94 -44 131
-24 26 13 39 14 74 5 24 -6 70 -8 102 -5 57 6 58 6 76 -26 18 -30 51 -50 83
-50 8 0 13 4 9 9 -14 23 14 17 45 -9 19 -16 37 -27 41 -24 7 4 73 -54 74 -66
1 -3 11 -40 24 -82 23 -74 26 -78 52 -78 35 0 35 0 8 79 -17 48 -19 65 -10 74
18 17 35 -10 57 -88 17 -60 21 -65 46 -65 16 0 28 4 28 10 0 5 -14 50 -31 100
-17 50 -30 92 -28 93 44 29 85 66 100 91 10 17 20 28 20 24 1 -5 2 -12 3 -18
2 -16 20 -12 22 5 1 8 -2 13 -7 9 -15 -9 -10 33 6 46 8 7 12 17 8 24 -3 6 -3
8 2 4 4 -4 14 -3 22 3 15 13 18 43 3 34 -5 -3 -10 -2 -10 3 0 6 7 13 16 16 9
3 14 15 12 28 -2 15 2 23 12 23 9 0 14 8 12 18 -2 10 3 17 13 17 17 0 21 35 4
46 -14 8 -29 -14 -22 -33 3 -7 -2 -16 -11 -19 -22 -9 -34 5 -16 16 10 7 11 10
3 10 -7 0 -13 5 -13 11 0 5 4 8 9 5 5 -3 12 2 15 11 4 9 1 20 -6 25 -10 6 -9
8 3 8 16 0 34 26 31 42 -3 12 23 9 35 -3 8 -8 13 -8 18 0 3 6 -1 14 -9 17 -20
8 -21 24 -1 24 8 0 15 5 15 11 0 6 -7 9 -15 5 -18 -6 -20 10 -3 20 7 5 4 10
-11 16 -14 5 -19 12 -15 20 5 8 2 9 -11 5 -15 -6 -17 -3 -12 23 4 16 3 30 -1
30 -4 0 -8 9 -9 21 -2 20 -1 20 16 5 10 -9 20 -15 22 -14 2 2 1 -1 -3 -6 -3
-5 -3 -16 2 -25 5 -9 11 -24 14 -34 5 -15 8 -16 20 -5 8 7 12 16 10 20 -2 4 0
9 6 13 6 4 8 10 5 15 -6 10 38 96 57 115 19 18 0 -54 -23 -88 l-21 -32 21 24
c12 13 21 20 21 16 0 -4 7 -2 15 5 13 10 19 10 34 -4 10 -10 21 -13 22 -9 2 5
36 19 74 31 39 13 93 38 121 57 66 46 152 74 244 82 44 3 92 14 114 26 64 31
175 59 267 66 64 6 93 13 116 29 17 12 55 27 84 33 30 6 79 17 110 25 56 14
174 19 203 8 12 -5 16 -21 16 -69 0 -53 4 -68 30 -103 40 -56 71 -75 101 -63
34 13 84 69 103 113 13 34 19 38 49 38 48 0 96 22 201 93 50 34 120 76 156 94
81 41 201 88 216 85 6 -1 17 5 24 13 17 21 30 19 30 -4 0 -11 -13 -29 -29 -41
-37 -25 -43 -57 -18 -92 23 -34 80 -40 96 -9 6 10 8 20 6 23 -3 2 9 3 25 0 17
-2 33 -8 36 -13 3 -5 12 -9 21 -9 9 0 21 -6 27 -14 8 -11 17 -12 36 -4 45 19
59 15 101 -30 l42 -45 -7 -154 c-4 -88 -14 -176 -23 -206 -25 -83 -15 -127 63
-272 68 -126 71 -131 124 -158 115 -58 136 -87 139 -192 2 -53 9 -94 27 -157
3 -10 15 -18 27 -18 17 0 28 12 44 48 12 26 51 76 87 111 l65 65 92 -11 91
-10 55 -62 c56 -63 97 -91 131 -91 30 0 44 23 33 52 -5 14 -6 31 -1 38 12 19
63 -4 95 -41 20 -24 31 -29 69 -29 54 0 76 8 76 26 0 8 5 14 10 14 15 0 12 51
-5 80 -19 33 -19 96 -1 103 15 6 35 -14 53 -53 19 -40 45 -180 41 -211 l-5
-29 1459 0 1458 0 0 3265 0 3265 -4650 0 c-4423 0 -4649 -1 -4644 -17 3 -10 9
-27 14 -38 4 -11 16 -49 25 -85 23 -87 38 -132 70 -209 25 -59 26 -65 11 -80
-22 -22 -30 -8 -53 89 -9 41 -28 98 -41 125 -14 28 -35 86 -46 130 -21 78 -22
80 -55 83 -26 3 -34 -1 -38 -17 -7 -27 -23 -27 -23 0 0 19 -4 21 -32 14 -18
-4 -40 -6 -48 -5 -8 1 -257 4 -552 6 l-538 4 0 -2545z m1195 2485 c-3 -5 -3
-10 2 -10 8 0 26 -36 38 -77 3 -13 9 -23 13 -23 4 0 8 -15 8 -33 1 -17 7 -45
15 -62 7 -16 13 -37 14 -45 0 -9 9 -14 20 -13 11 1 15 0 10 -2 -6 -3 -9 -21
-7 -40 3 -22 8 -33 16 -28 6 3 8 3 4 -1 -9 -10 12 -67 22 -61 5 3 11 1 14 -4
3 -5 -8 -14 -26 -20 -38 -13 -41 -14 -33 -1 3 5 -19 89 -50 186 -30 97 -53
179 -50 184 3 5 1 10 -4 12 -14 5 -24 48 -11 48 6 0 8 -4 5 -10z m438 -288 c9
-8 17 -21 17 -28 0 -12 9 -24 63 -83 34 -38 100 -93 95 -80 -4 10 2 14 18 14
13 0 24 -5 24 -11 0 -15 28 -26 50 -19 9 3 23 -1 30 -10 10 -12 16 -13 26 -4
10 8 14 8 14 1 0 -6 6 -9 13 -7 6 3 44 -4 82 -15 71 -20 125 -61 125 -95 0
-10 10 -15 28 -15 15 0 61 -16 102 -36 56 -26 92 -53 145 -108 100 -103 154
-205 189 -353 15 -65 39 -152 52 -193 32 -105 55 -206 59 -265 1 -27 8 -70 15
-93 17 -65 6 -332 -19 -462 -13 -64 -58 -163 -72 -155 -5 4 -6 0 -4 -7 3 -8
-16 -38 -42 -68 -25 -30 -44 -47 -40 -37 3 9 2 17 -2 17 -5 0 -11 -7 -15 -15
-6 -17 -36 -9 -32 8 1 7 1 9 -1 5 -2 -4 -12 -4 -21 -1 -11 3 -13 2 -6 -4 6 -4
10 -18 9 -30 -1 -15 2 -20 9 -14 13 10 46 11 46 1 0 -4 -8 -14 -17 -21 -11
-10 -14 -10 -9 -1 4 6 3 12 -2 12 -13 0 -20 -31 -13 -52 8 -23 63 -61 147
-103 78 -38 90 -49 92 -82 0 -16 -4 -20 -16 -16 -13 4 -12 2 3 -10 11 -9 25
-17 31 -17 12 0 28 -70 18 -79 -2 -3 -18 10 -35 28 -28 31 -31 32 -43 15 -13
-17 -14 -16 -25 4 -9 17 -9 22 1 22 19 0 -5 20 -30 25 -13 2 -22 -1 -22 -8 0
-8 -3 -8 -9 1 -4 8 -18 12 -30 10 -21 -3 -21 -3 4 -33 14 -16 24 -25 23 -20
-5 20 17 11 45 -17 27 -26 27 -28 7 -28 -11 0 -23 6 -26 14 -3 8 -12 12 -20 9
-11 -4 -12 -9 -5 -16 17 -17 13 -33 -9 -34 -17 -2 -20 2 -14 19 4 14 3 18 -5
13 -21 -12 -73 -15 -90 -4 -14 9 -14 10 2 5 11 -4 16 -2 12 5 -4 6 -13 8 -21
5 -8 -3 -14 0 -14 6 0 6 -2 9 -5 6 -3 -3 0 -17 6 -32 12 -26 42 -35 54 -16 10
16 25 12 19 -5 -4 -11 -2 -13 9 -9 8 3 18 0 23 -7 4 -7 3 -10 -3 -6 -6 4 -16
0 -23 -8 -17 -20 0 -19 30 2 25 17 63 26 54 12 -2 -4 9 -17 26 -29 23 -16 34
-19 47 -11 10 6 12 11 6 11 -7 0 -13 4 -13 8 0 16 45 5 48 -11 2 -9 8 -17 13
-17 6 0 8 4 4 9 -3 5 -1 12 5 16 5 3 10 2 10 -3 0 -6 8 -8 18 -5 10 2 34 -7
53 -20 20 -14 53 -30 74 -37 44 -15 110 -75 99 -91 -4 -8 -3 -9 5 -5 7 5 17
-5 26 -28 8 -19 27 -50 42 -68 28 -33 45 -59 72 -112 11 -24 12 -31 2 -34 -11
-4 -11 -6 0 -12 10 -7 10 -12 1 -22 -19 -23 5 -144 35 -179 8 -9 15 -26 16
-38 1 -23 18 -24 25 -1 3 7 0 10 -7 6 -6 -4 -11 -3 -11 3 0 5 5 13 10 16 5 3
10 16 9 28 0 12 -3 17 -5 10 -3 -7 -12 -9 -20 -6 -12 5 -12 7 2 17 13 10 14
17 6 33 -8 14 -8 23 0 31 9 9 9 15 0 24 -7 7 -12 21 -12 33 0 12 -5 26 -12 33
-9 9 -9 18 0 37 15 33 15 38 0 32 -17 -5 -37 22 -38 50 0 12 -13 37 -30 55
-16 18 -30 38 -30 45 0 6 -7 16 -15 21 -14 7 -19 19 -29 69 -1 7 -6 16 -11 20
-4 4 -5 2 0 -6 5 -9 4 -12 -3 -7 -7 4 -12 14 -12 22 0 8 -6 17 -14 20 -8 3
-12 12 -10 19 3 7 0 16 -7 21 -7 4 -10 3 -6 -2 3 -6 2 -16 -2 -23 -6 -8 -10
-2 -14 19 -6 25 -11 31 -29 28 -19 -2 -24 2 -26 30 -2 17 -8 32 -13 32 -6 0
-7 -4 -4 -10 3 -5 2 -10 -4 -10 -5 0 -12 4 -16 10 -3 5 -11 7 -19 4 -9 -4 -11
4 -8 28 5 30 3 32 -12 19 -13 -11 -20 -11 -28 -3 -7 7 -19 12 -28 12 -13 0
-16 8 -13 38 2 28 -3 45 -18 61 l-20 22 28 -7 c15 -4 30 -11 31 -16 2 -4 17
-8 32 -8 16 0 32 -5 35 -10 4 -6 21 -16 38 -24 38 -15 177 -160 211 -220 14
-22 34 -72 47 -111 12 -38 41 -106 65 -151 24 -45 44 -88 44 -98 0 -9 5 -16
10 -16 6 0 10 -5 10 -11 0 -6 -7 -9 -15 -5 -19 7 -19 -11 -2 -45 9 -16 12 -48
10 -88 -6 -86 5 -110 23 -51 l13 45 102 29 c113 32 270 108 327 157 20 17 84
76 141 131 57 54 117 106 135 115 17 9 34 20 37 25 14 22 97 61 116 54 34 -13
-7 -139 -78 -242 -18 -26 -100 -115 -183 -198 -160 -160 -198 -216 -230 -338
-20 -77 -9 -92 57 -83 29 4 85 20 125 36 57 23 77 27 92 19 26 -14 26 -55 0
-115 -24 -56 -26 -107 -4 -140 25 -38 73 -48 185 -40 66 4 110 3 134 -5 31
-10 35 -16 34 -43 -1 -18 -4 -43 -8 -57 -7 -24 4 -57 24 -73 23 -18 134 24
189 72 21 18 106 126 106 135 0 6 80 133 155 246 24 36 69 110 101 165 243
426 270 467 339 535 45 45 59 40 50 -16 l-7 -47 37 6 c20 3 46 15 58 26 32 29
145 123 176 146 15 11 70 55 122 97 97 77 254 188 267 188 4 0 21 7 37 16 205
110 263 136 318 141 41 4 57 2 57 -6 0 -7 5 -9 10 -6 16 10 12 -41 -5 -55 -8
-7 -15 -18 -15 -24 0 -10 -41 -59 -98 -119 -9 -10 -17 -22 -17 -26 0 -4 -8
-15 -17 -25 -24 -23 -24 -24 20 -19 22 2 32 0 24 -5 -10 -7 -8 -13 8 -27 27
-25 25 -36 -12 -71 -18 -16 -42 -41 -53 -57 -11 -15 -25 -27 -31 -27 -7 0 -19
-12 -29 -26 -9 -14 -26 -37 -38 -50 -34 -40 -41 -76 -17 -93 11 -7 20 -22 20
-32 0 -10 5 -21 11 -24 6 -4 8 -13 5 -20 -6 -16 17 -27 64 -31 19 -1 55 -5 80
-8 35 -5 65 1 131 24 129 45 298 54 202 11 -29 -13 -47 -24 -173 -108 -229
-152 -286 -201 -436 -380 -52 -62 -119 -138 -150 -170 -31 -32 -75 -85 -97
-118 -41 -58 -42 -62 -44 -147 -1 -79 -4 -91 -27 -119 -41 -48 -31 -79 23 -79
20 0 107 44 165 84 20 13 69 37 109 52 39 15 85 38 100 51 16 12 37 23 47 23
10 0 22 5 25 11 4 5 17 15 28 20 12 5 40 21 62 34 49 31 100 55 117 55 19 0
122 108 148 154 14 25 20 53 19 82 -2 24 -1 45 2 46 55 35 219 85 256 79 20
-3 -9 -85 -46 -134 -10 -12 -196 -222 -218 -244 -24 -26 -26 -71 -3 -100 21
-26 21 -28 3 -31 -42 -7 -83 -37 -83 -60 0 -12 7 -25 15 -28 8 -3 17 -21 21
-40 8 -44 39 -61 136 -74 108 -15 110 -16 103 -54 -6 -28 -3 -35 19 -50 14 -9
26 -21 26 -26 0 -33 -236 -209 -308 -230 -67 -20 -305 -80 -377 -96 -139 -31
-143 -32 -182 -81 -76 -94 -84 -100 -150 -108 -77 -9 -88 -3 -68 35 19 37 19
89 1 116 -8 11 -34 26 -58 33 -23 7 -56 24 -71 37 -20 17 -41 24 -68 24 -22 0
-53 7 -69 15 -40 21 -91 107 -146 248 -69 178 -119 249 -196 282 -51 21 -104
19 -158 -6 -126 -59 -231 -84 -451 -109 -91 -10 -176 -23 -191 -29 -23 -9
-287 -59 -513 -97 -100 -18 -149 -36 -223 -85 -50 -32 -50 -33 -34 -58 l17
-26 -33 27 c-19 16 -38 28 -44 28 -6 0 -7 7 -4 16 3 9 2 12 -5 8 -6 -3 -25 10
-42 29 -18 19 -45 43 -62 53 -27 17 -28 17 -22 2 5 -15 4 -16 -13 -6 -10 7
-17 15 -15 19 8 13 -41 27 -59 17 -12 -7 -22 -6 -33 4 -19 15 -62 18 -60 4 3
-18 -46 -19 -59 -2 -11 16 -13 16 -28 0 -14 -14 -19 -14 -34 -2 -15 12 -16 11
-3 -5 10 -13 22 -16 40 -12 25 6 25 6 7 -14 -12 -13 -17 -30 -14 -46 4 -16 1
-24 -6 -22 -6 2 -10 11 -10 20 1 9 -4 13 -11 11 -7 -3 -16 -1 -20 5 -3 7 2 11
14 11 29 0 26 18 -4 26 -14 3 -40 20 -58 37 -17 17 -27 28 -22 24 17 -9 39 9
32 27 -4 9 -15 19 -24 22 -10 3 -26 10 -35 15 -14 7 -18 5 -18 -7 0 -14 -3
-14 -16 -3 -12 10 -17 10 -23 1 -4 -7 -15 -10 -24 -6 -9 3 -14 11 -10 17 4 6
-9 0 -28 -13 -21 -15 -29 -18 -20 -7 17 22 3 22 -29 0 l-25 -17 19 22 c19 22
19 22 -2 23 -12 1 -32 2 -44 3 -13 1 -32 -2 -43 -7 -14 -7 -11 -1 10 21 17 18
39 32 50 32 17 0 18 2 5 11 -11 8 -12 12 -2 16 6 2 10 8 7 13 -3 4 9 13 25 20
17 7 30 16 30 21 0 5 8 9 18 9 23 1 101 39 82 40 -11 1 -11 3 -2 7 10 4 10 8
1 19 -6 8 -15 11 -20 8 -5 -3 -12 2 -15 10 -3 9 -10 13 -15 10 -11 -7 -11 7 0
24 6 10 10 8 14 -8 5 -18 9 -20 26 -11 11 6 27 11 37 11 9 0 23 8 30 18 12 15
13 14 11 -11 -1 -24 -5 -28 -24 -24 -18 3 -23 0 -23 -15 0 -15 4 -18 18 -13
37 15 84 26 90 21 3 -3 11 3 19 14 14 19 43 28 43 13 0 -5 11 -9 25 -9 14 -1
23 2 20 6 -2 4 7 7 20 7 25 0 25 0 5 -17 -11 -10 -20 -20 -20 -24 0 -11 24 -2
37 14 15 20 41 -2 27 -23 -5 -7 -1 -4 9 7 17 19 17 20 0 29 -10 6 -21 15 -24
20 -10 14 -72 19 -80 6 -7 -13 -29 -4 -29 12 0 6 4 8 10 4 5 -3 18 3 30 15 11
11 16 20 10 20 -5 0 -10 7 -10 15 0 9 -6 12 -15 9 -8 -4 -13 -10 -10 -15 8
-11 -33 -32 -51 -25 -8 3 -14 -1 -14 -8 0 -8 -11 -16 -25 -18 -29 -6 -28 -7
-16 25 7 17 20 26 44 31 18 3 44 17 57 31 13 14 29 25 36 25 7 0 14 6 17 13 2
6 8 8 13 4 5 -5 2 -12 -7 -17 -20 -11 -14 -56 8 -64 8 -3 12 -2 8 3 -9 16 7
41 27 41 14 0 19 6 18 23 -4 38 0 47 16 47 14 0 14 -3 4 -15 -11 -13 -10 -14
4 -9 18 7 19 4 10 -20 -3 -9 -10 -13 -15 -10 -5 3 -9 0 -9 -5 0 -14 37 -14 46
0 3 6 14 9 24 6 29 -7 56 55 28 66 -9 3 -7 10 7 21 20 17 20 17 -2 7 -12 -6
-23 -16 -26 -23 -4 -10 -7 -11 -18 0 -9 9 -10 12 -1 12 7 0 12 5 12 10 0 7 -6
7 -19 0 -27 -14 -31 -13 -24 6 4 11 15 15 35 12 24 -4 27 -2 22 14 -3 12 0 18
10 18 9 0 16 -8 16 -17 1 -17 1 -17 11 0 5 9 7 22 3 29 -4 7 -3 8 4 4 8 -5 12
2 12 18 0 14 -4 26 -10 26 -5 0 -10 9 -10 20 0 15 -7 20 -24 20 -14 0 -28 5
-32 11 -4 8 1 9 16 4 15 -5 20 -4 16 4 -4 6 -3 11 3 11 6 0 8 14 5 33 -3 17
-6 43 -8 56 -2 13 -9 27 -15 31 -7 4 -11 11 -10 16 1 5 0 12 -1 17 -1 4 -3 12
-4 17 0 6 -5 10 -11 10 -5 1 -12 -20 -15 -44 -4 -28 -15 -55 -30 -71 -19 -21
-21 -25 -7 -25 10 0 17 -8 17 -18 0 -21 -33 -56 -43 -45 -4 3 -7 -4 -7 -16 0
-12 -7 -24 -15 -27 -8 -4 -15 -11 -15 -17 0 -5 10 -2 21 9 22 19 22 19 14 -5
-5 -18 -4 -22 6 -16 9 6 11 4 6 -8 -3 -9 0 -18 9 -21 8 -3 14 -11 14 -17 0 -8
-4 -8 -13 -1 -10 9 -18 6 -30 -9 -19 -22 -31 -19 -48 13 -8 15 -8 19 0 14 6
-4 11 0 11 9 0 11 -6 14 -25 9 -47 -12 -60 -10 -59 8 1 11 -3 15 -10 11 -6 -4
-23 -6 -37 -5 -17 2 -29 -3 -33 -13 -3 -9 -10 -14 -15 -11 -5 3 -11 0 -14 -8
-4 -9 3 -16 18 -18 18 -4 23 -1 20 14 -2 11 2 18 11 18 8 0 13 -5 11 -11 -1
-6 4 -14 12 -17 8 -2 11 0 7 6 -3 6 -2 13 4 17 5 3 10 2 10 -3 0 -5 10 -13 23
-16 21 -7 21 -7 2 -15 -11 -5 -23 -7 -27 -4 -5 2 -8 0 -8 -5 0 -6 -14 -15 -31
-21 -38 -13 -49 -14 -30 -2 9 6 4 10 -18 13 -17 2 -31 1 -31 -4 0 -4 6 -8 13
-9 8 0 8 -2 -2 -6 -7 -3 -22 -14 -33 -25 -14 -14 -23 -17 -30 -10 -6 6 -16 8
-23 6 -7 -3 -16 -1 -20 5 -3 6 -15 11 -26 11 -11 0 -17 5 -14 10 4 6 12 7 18
3 7 -4 5 2 -3 12 -16 19 -14 19 33 -5 22 -11 30 -11 40 -1 9 10 8 11 -6 5 -20
-7 -53 21 -54 46 0 8 -4 23 -8 33 -4 10 -3 17 3 17 7 0 6 10 -2 28 -8 15 -18
41 -24 59 -9 31 -9 31 12 20 11 -7 24 -16 27 -20 3 -5 42 -6 86 -4 85 5 154
30 135 49 -6 6 -9 16 -8 22 2 6 1 8 -1 4 -3 -5 -13 -8 -23 -8 -13 0 -17 -5
-13 -20 4 -16 2 -19 -11 -14 -9 3 -16 1 -16 -5 0 -11 -79 -9 -99 3 -6 4 -16 4
-22 1 -20 -13 -59 4 -59 26 0 29 -38 99 -55 99 -9 0 -13 11 -13 33 1 17 3 26
5 20 3 -7 16 -13 29 -13 14 0 24 -6 24 -15 0 -9 6 -12 15 -9 8 4 12 10 10 15
-3 5 5 11 18 14 32 8 55 74 32 91 -8 6 -17 31 -19 55 -3 24 -8 53 -12 63 -4
11 -3 17 2 14 5 -3 18 -8 29 -12 14 -5 16 -9 7 -15 -9 -5 -6 -13 9 -30 12 -12
19 -25 16 -28 -3 -2 5 -25 19 -50 26 -49 30 -78 14 -88 -5 -3 -10 -11 -10 -16
0 -6 4 -7 10 -4 6 4 7 -1 3 -11 -4 -11 1 -22 13 -32 16 -12 16 -14 2 -9 -10 4
-18 3 -18 -2 0 -10 69 -23 81 -15 4 2 5 20 2 40 -3 19 -2 34 3 33 28 -5 35 1
24 22 -7 11 -9 23 -6 27 4 3 12 -9 18 -26 13 -33 27 -42 29 -19 5 47 4 79 -3
83 -15 9 -8 24 11 24 17 0 18 4 9 36 -7 28 -7 39 4 46 8 6 5 7 -12 2 l-25 -7
20 22 c11 13 15 21 10 19 -12 -3 -65 49 -65 64 0 16 -31 48 -45 48 -7 0 -18 7
-25 15 -7 8 -16 13 -20 10 -5 -3 -12 5 -16 17 -7 22 -7 22 -15 3 -7 -18 -9
-17 -20 13 -8 17 -17 32 -21 32 -4 0 -5 -7 -1 -16 4 -11 2 -15 -7 -12 -7 2
-15 13 -16 23 -2 11 -9 24 -17 30 -7 5 -19 19 -25 30 -11 20 -11 20 -12 -2 0
-16 -5 -20 -20 -16 -12 3 -20 0 -20 -7 0 -7 -7 -10 -15 -6 -10 4 -15 -1 -16
-17 0 -16 -2 -18 -7 -7 -4 8 -18 16 -31 18 -20 2 -22 -1 -18 -20 6 -22 6 -22
-14 2 l-21 25 7 -30 c4 -16 12 -33 18 -37 7 -5 8 -8 2 -8 -6 0 -16 5 -22 11
-9 9 -10 7 -6 -10 3 -13 1 -21 -8 -21 -7 0 -9 3 -6 6 3 4 1 16 -5 28 -7 11
-12 29 -13 38 -2 27 -15 35 -15 10 0 -12 -4 -22 -10 -22 -5 0 -10 5 -10 11 0
5 -5 7 -12 3 -7 -4 -8 -3 -4 4 11 18 -4 37 -16 21 -8 -11 -9 -11 -5 1 2 8 11
14 20 14 9 -1 14 2 11 8 -7 10 14 38 28 38 6 0 8 -9 5 -20 -3 -11 -1 -23 4
-26 5 -3 10 1 10 8 2 18 1 21 -6 41 -5 12 -3 17 5 15 7 -2 14 3 15 10 2 7 1 8
-1 3 -6 -12 -44 9 -44 24 0 6 9 16 20 23 25 15 19 28 -15 34 -13 3 -22 1 -19
-3 3 -5 15 -9 27 -9 20 -1 20 -2 4 -11 -9 -5 -22 -7 -27 -4 -18 11 -52 -6 -45
-22 4 -13 3 -14 -9 -4 -9 8 -16 8 -20 2 -4 -5 -2 -12 4 -16 6 -4 8 -10 5 -15
-3 -5 -15 -2 -25 8 -22 18 -26 52 -10 68 12 12 3 44 -12 44 -6 0 -17 8 -24 18
-7 9 -14 13 -14 9 0 -4 12 -19 26 -32 26 -24 26 -25 5 -25 -11 0 -21 4 -21 9
0 5 -9 11 -20 14 -11 3 -20 11 -20 17 0 9 5 9 17 -1 13 -11 13 -7 -3 16 -37
53 -39 59 -21 52 10 -3 17 -2 17 4 0 5 -7 12 -15 15 -8 4 -15 10 -15 16 0 5 4
6 10 3 6 -4 7 1 3 11 -5 15 -7 15 -15 0 -13 -24 -38 -20 -38 7 -1 21 -1 21
-12 3 -12 -22 -15 -86 -4 -104 5 -8 2 -10 -8 -6 -9 3 -20 20 -25 37 -5 18 -12
41 -16 52 l-8 20 17 -20 c17 -19 17 -19 12 -1 -4 11 0 26 9 36 11 12 13 20 6
25 -16 9 -33 -5 -27 -21 5 -12 -5 -18 -25 -16 -4 1 -5 -8 -2 -18 9 -34 -6 -22
-23 18 -23 54 -25 72 -8 72 18 0 19 56 2 63 -8 3 -6 6 5 6 10 1 22 -9 27 -21
9 -23 9 -23 10 2 1 23 2 24 14 8 19 -25 35 -22 29 5 -5 18 -3 20 8 10 15 -15
33 -17 24 -4 -13 23 36 34 85 20 48 -14 87 2 105 43 9 22 10 35 3 39 -6 4 -7
12 -3 19 5 9 4 11 -3 6 -7 -4 -12 -1 -12 9 0 9 4 14 9 11 5 -4 7 3 4 15 -5 19
-7 19 -15 5 -5 -9 -7 -30 -4 -47 4 -27 3 -29 -12 -17 -12 10 -14 10 -8 1 4 -7
2 -13 -3 -13 -6 0 -11 -5 -11 -11 0 -5 4 -8 9 -4 11 6 34 -29 24 -38 -3 -4
-13 -2 -23 3 -10 5 -20 7 -23 3 -3 -3 -13 2 -22 10 -9 10 -11 18 -5 22 5 3 10
1 10 -5 0 -6 4 -8 10 -5 6 4 5 11 -3 20 -6 7 -13 9 -15 5 -2 -5 -9 -7 -17 -4
-7 3 -23 1 -34 -6 -17 -9 -21 -8 -21 6 0 13 -3 14 -15 4 -8 -7 -13 -16 -10
-20 3 -5 0 -12 -6 -16 -8 -4 -9 -3 -5 5 4 6 1 14 -8 17 -8 3 -18 14 -21 24 -5
15 -9 16 -29 7 -13 -6 -21 -17 -19 -24 3 -7 -2 -13 -11 -13 -9 0 -16 -5 -16
-10 0 -7 6 -7 19 0 11 6 22 6 25 1 6 -10 -33 -23 -46 -15 -4 3 -8 12 -8 20 0
8 -4 14 -10 14 -5 0 -7 7 -4 15 4 8 1 15 -5 15 -6 0 -11 5 -11 11 0 5 4 7 10
4 6 -3 7 1 4 9 -3 9 -12 16 -20 16 -7 0 -11 6 -8 13 2 7 -4 24 -16 37 -24 28
-25 34 -4 26 14 -5 15 -4 4 9 -7 9 -9 19 -5 23 4 4 10 1 12 -6 3 -6 9 -10 13
-7 5 3 6 13 3 22 -5 12 -2 15 9 10 11 -4 15 0 13 11 -1 11 -11 17 -27 17 -21
-1 -24 2 -15 16 13 20 72 20 72 0 0 -8 6 -16 14 -19 10 -3 11 2 6 19 -7 20 -6
22 7 12 8 -7 17 -10 21 -7 3 3 26 -3 51 -15 39 -17 46 -17 46 -5 0 8 3 13 8
10 4 -2 30 -5 57 -7 28 -2 53 -8 57 -13 5 -7 8 -7 8 1 0 7 7 10 15 7 8 -4 26
1 40 10 13 9 31 16 40 16 18 0 19 11 3 29 -11 11 -9 11 9 2 19 -10 22 -9 17 4
-7 17 21 21 31 5 4 -6 11 -7 17 -4 7 5 3 11 -11 16 -12 4 -19 13 -16 19 4 6
12 8 19 6 6 -2 22 -8 36 -12 24 -7 24 -7 5 8 -11 8 -24 13 -28 10 -5 -3 -7 5
-5 18 2 19 8 23 28 21 17 -2 21 0 12 6 -10 6 -12 23 -8 53 9 70 17 91 34 84
13 -5 13 -3 1 11 -12 15 -11 16 8 10 22 -7 26 5 10 32 -5 6 -4 12 0 12 5 0 9
20 9 44 0 33 -4 42 -14 38 -9 -3 -12 -15 -9 -36 3 -17 3 -25 1 -19 -4 9 -11
10 -24 3 -15 -8 -18 -4 -24 32 -4 23 -10 46 -13 52 -13 21 -11 56 3 71 9 8 11
15 6 15 -12 0 -23 77 -23 160 0 72 -16 160 -29 160 -5 0 -12 9 -15 20 -9 29
-28 25 -21 -4 4 -18 1 -28 -11 -35 -17 -9 -16 -12 5 -55 21 -44 19 -59 -6 -34
-8 8 -9 4 -4 -16 4 -15 5 -55 1 -89 -4 -43 -3 -65 6 -72 19 -16 36 -55 29 -66
-4 -8 -9 -7 -15 2 -7 11 -9 11 -9 -2 0 -9 9 -24 20 -34 12 -11 20 -31 20 -49
0 -17 7 -44 15 -60 15 -28 15 -28 -10 -24 -29 6 -29 6 -14 -47 6 -22 10 -40 8
-41 -2 0 3 -9 11 -18 8 -10 15 -28 16 -39 2 -12 0 -16 -2 -9 -3 6 -10 9 -15 6
-20 -12 -58 -11 -63 2 -3 8 -11 11 -18 9 -9 -4 -14 2 -15 15 -1 11 2 18 8 15
15 -10 10 7 -8 28 -10 11 -12 17 -5 13 15 -9 15 -1 2 24 -7 13 -7 28 0 46 13
33 3 46 -16 19 -14 -19 -15 -19 -32 -1 -9 11 -11 16 -4 12 6 -4 12 -2 12 3 0
11 -21 15 -49 11 -23 -3 -54 -37 -41 -45 6 -4 17 -4 25 -1 8 3 15 1 15 -3 0
-5 -6 -12 -12 -14 -7 -3 -4 -6 7 -6 12 -1 27 -7 34 -13 6 -7 17 -13 23 -13 6
0 12 -17 14 -38 2 -31 0 -38 -11 -33 -9 3 -15 0 -15 -9 0 -10 -14 -8 -62 11
l-63 24 28 -25 c16 -14 34 -22 45 -19 14 5 14 3 -2 -10 -23 -19 -47 -13 -91
19 -16 12 -36 20 -42 18 -7 -3 -13 1 -13 7 0 7 -10 20 -22 30 -13 10 -20 21
-16 25 3 4 15 -2 26 -13 11 -11 33 -21 49 -24 l31 -4 -19 33 c-10 18 -15 33
-10 33 5 0 11 12 14 28 6 28 -33 99 -60 109 -23 9 -14 20 11 16 13 -3 38 -18
54 -34 18 -18 33 -26 37 -19 3 5 0 10 -7 10 -9 0 -9 3 2 10 11 7 11 10 2 10
-7 0 -10 5 -6 12 4 7 3 8 -5 4 -7 -5 -17 6 -27 31 -19 45 -13 39 -44 48 -21 7
-23 6 -13 -7 7 -8 9 -19 5 -23 -4 -5 1 -6 10 -2 14 5 35 -19 26 -29 -7 -6 -47
32 -49 46 -3 17 8 63 21 98 6 14 6 22 0 22 -6 0 -10 -7 -10 -15 0 -12 -3 -13
-19 -3 -11 7 -19 14 -19 17 2 21 -4 31 -17 31 -8 0 -15 9 -15 20 0 24 -8 25
-32 3 -17 -15 -18 -15 -18 9 0 14 -7 31 -15 38 -12 10 -15 10 -15 -1 0 -8 -13
1 -29 18 -15 18 -31 30 -34 27 -6 -6 -47 50 -47 65 0 17 31 13 52 -6 10 -9 18
-24 18 -34 0 -11 14 -25 33 -34 19 -10 26 -11 17 -3 -8 7 -14 24 -12 38 4 30
22 52 22 27 0 -27 1 -31 21 -59 10 -14 19 -31 19 -38 0 -6 4 -9 9 -5 6 3 14
-3 20 -12 8 -15 11 -11 12 22 2 65 3 70 17 68 6 -2 12 3 12 10 0 8 4 7 10 -3
5 -8 10 -10 11 -5 0 6 2 20 3 33 3 30 -14 40 -21 13 -4 -17 -8 -19 -19 -10 -8
6 -14 17 -14 23 0 6 -7 23 -14 39 -9 16 -11 27 -4 27 17 0 58 -37 50 -45 -4
-5 -1 -5 6 -1 18 10 15 37 -3 30 -11 -5 -15 1 -15 18 0 13 -7 33 -15 44 -14
19 -14 19 -15 -2 0 -12 -8 -25 -17 -28 -10 -4 -14 -4 -10 0 3 4 -7 23 -24 43
-47 57 -49 60 -49 71 0 5 -4 10 -10 10 -5 0 -10 -4 -10 -10 0 -5 -4 -10 -10
-10 -5 0 -7 7 -4 15 4 8 1 15 -6 15 -6 0 -19 7 -28 16 -10 11 -17 13 -20 5 -7
-20 -22 -12 -19 12 1 12 -3 21 -9 20 -14 -3 -24 41 -14 58 5 6 19 10 33 7 l25
-5 -26 33 c-26 32 -52 35 -52 6 0 -13 -3 -12 -15 4 -8 10 -15 15 -15 10 0 -5
8 -18 17 -28 11 -12 16 -33 15 -56 -2 -20 2 -52 7 -69 13 -43 -4 -52 -24 -13
-15 30 -32 42 -22 17 3 -8 -1 -14 -9 -14 -8 0 -14 6 -14 13 0 7 -20 27 -44 43
-30 21 -43 36 -40 48 2 11 -6 25 -22 37 l-26 18 12 -21 c6 -12 9 -27 7 -34 -7
-19 -28 44 -22 64 4 11 10 17 14 15 4 -3 16 5 26 17 12 14 20 17 23 9 2 -7 12
-17 23 -22 15 -8 17 -7 13 5 -4 9 -1 15 7 15 9 0 8 4 -4 11 -13 8 -17 18 -13
37 3 15 1 34 -5 42 -9 13 -10 12 -5 -2 7 -23 -9 -32 -24 -13 -7 8 -19 15 -28
15 -11 0 -13 -8 -9 -35 5 -30 1 -40 -30 -71 -25 -26 -32 -39 -24 -47 6 -6 11
-20 11 -30 0 -10 9 -21 20 -24 11 -3 17 -10 14 -15 -3 -5 -16 -3 -29 6 -17 11
-25 12 -27 4 -3 -7 -7 -5 -11 6 -4 9 -3 15 3 11 5 -3 8 3 7 14 0 11 -4 19 -8
18 -8 -2 -9 2 -9 43 0 21 5 30 16 30 8 0 13 4 10 9 -10 16 6 42 21 37 9 -4 13
-1 11 6 -6 18 -66 22 -84 7 -10 -8 -13 -22 -8 -43 5 -26 4 -29 -7 -18 -8 7
-15 17 -15 23 -4 30 -6 32 -14 14 -8 -19 -9 -19 -9 2 -1 23 8 32 39 38 11 2
28 8 37 14 16 9 16 10 -5 11 -19 0 -21 4 -16 25 7 29 -13 85 -30 85 -6 0 -4 5
4 10 13 8 13 11 -1 22 -21 17 -43 102 -25 95 7 -3 19 -1 27 4 10 6 4 9 -19 9
-36 0 -55 26 -31 41 8 5 10 9 6 9 -4 0 -3 9 3 21 9 17 8 23 -7 35 -10 8 -13
13 -7 12 7 -2 11 2 10 7 0 6 -7 9 -13 9 -10 -1 -10 3 -1 19 13 26 21 120 9
112 -5 -3 -11 0 -13 7 -4 10 -11 9 -34 -2 -45 -22 -51 -24 -26 -5 62 45 78 48
115 17z m-103 -102 c0 -5 -2 -10 -4 -10 -3 0 -8 5 -11 10 -3 6 -1 10 4 10 6 0
11 -4 11 -10z m39 -83 c1 -5 -3 -5 -9 -2 -5 3 -10 16 -9 28 0 21 1 21 9 2 5
-11 9 -24 9 -28z m-319 24 c0 -5 -11 -11 -25 -13 -14 -3 -25 -2 -25 3 0 4 10
10 23 12 12 2 23 5 25 6 1 0 2 -3 2 -8z m151 -29 c-12 -22 -51 -58 -51 -47 0
9 50 65 57 65 2 0 -1 -8 -6 -18z m44 8 c3 -5 -1 -10 -10 -10 -9 0 -13 5 -10
10 3 6 8 10 10 10 2 0 7 -4 10 -10z m450 -10 c8 -13 -5 -13 -25 0 -13 8 -13
10 2 10 9 0 20 -4 23 -10z m-338 -42 c-3 -7 -5 -2 -5 12 0 14 2 19 5 13 2 -7
2 -19 0 -25z m-302 12 c-3 -5 -14 -10 -23 -10 -15 0 -15 2 -2 10 20 13 33 13
25 0z m185 6 c0 -2 -7 -7 -16 -10 -8 -3 -12 -2 -9 4 6 10 25 14 25 6z m110
-56 c0 -5 -7 -10 -15 -10 -11 0 -12 -6 -6 -22 9 -25 33 -38 30 -17 -3 28 1 39
17 39 13 0 14 -3 4 -15 -8 -9 -9 -25 -5 -42 5 -16 7 -35 6 -44 -1 -9 14 -34
34 -55 35 -40 47 -86 23 -100 -8 -5 -9 -2 -5 9 3 9 2 19 -4 22 -5 4 -7 11 -4
16 4 5 1 9 -5 9 -6 0 -8 -10 -5 -22 3 -13 1 -29 -4 -37 -11 -17 -45 -6 -35 11
4 7 3 9 -1 5 -5 -4 -15 3 -22 15 -13 22 -13 22 -7 -6 5 -19 3 -27 -4 -22 -6 3
-13 20 -17 36 -4 17 -10 28 -15 25 -11 -7 -7 28 4 36 5 4 5 12 1 19 -6 9 -9 9
-16 -1 -9 -15 -10 -9 -13 76 -1 25 -5 39 -13 38 -7 -2 -10 4 -7 12 4 8 10 15
16 15 5 0 6 -4 3 -10 -3 -5 1 -10 9 -10 8 0 18 9 21 20 6 20 35 28 35 10z
m-246 -19 c-5 -5 -19 -12 -31 -16 -33 -9 -28 11 5 23 29 10 41 7 26 -7z m147
-4 c-10 -9 -11 -8 -5 6 3 10 9 15 12 12 3 -3 0 -11 -7 -18z m-105 -12 c-8 -8
-17 -15 -20 -15 -3 0 -3 7 0 15 4 8 13 15 21 15 12 0 12 -2 -1 -15z m-151 -35
c3 -5 1 -10 -4 -10 -6 0 -11 5 -11 10 0 6 2 10 4 10 3 0 8 -4 11 -10z m-223
-43 c-12 -13 -20 -26 -16 -29 3 -4 -4 -11 -15 -18 -17 -9 -21 -8 -21 5 0 9 5
13 10 10 6 -3 10 -2 10 3 0 11 44 61 49 56 3 -2 -5 -15 -17 -27z m103 13 c4
-6 -7 -10 -27 -9 -31 1 -32 1 -8 9 14 4 26 8 27 9 1 1 5 -3 8 -9z m202 -61
c-4 -16 -2 -19 11 -14 14 5 15 4 5 -6 -10 -10 -16 -10 -25 -1 -7 7 -21 12 -32
12 -19 1 -20 1 -3 11 9 5 22 7 27 4 6 -3 10 -1 10 4 0 6 3 11 6 11 4 0 4 -9 1
-21z m-197 -34 c0 -8 -6 -12 -14 -9 -8 3 -12 12 -9 20 6 17 23 9 23 -11z m81
12 c-13 -16 -5 -28 15 -20 8 3 14 -1 14 -11 0 -20 -9 -20 -34 -1 -16 12 -17
17 -6 30 7 8 15 15 17 15 3 0 0 -6 -6 -13z m83 -6 c3 -5 -1 -11 -9 -14 -9 -4
-12 -1 -8 9 6 16 10 17 17 5z m-262 -43 c-6 -6 -12 -4 -16 7 -3 9 -2 13 4 10
6 -3 10 0 11 7 0 10 2 10 6 0 3 -8 1 -18 -5 -24z m-55 -35 c-3 -10 -5 -2 -5
17 0 19 2 27 5 18 2 -10 2 -26 0 -35z m198 37 c3 -5 -1 -10 -9 -10 -8 0 -18 5
-21 10 -3 6 1 10 9 10 8 0 18 -4 21 -10z m-55 -30 c11 18 42 4 38 -17 -4 -19
-38 -24 -50 -8 -4 6 -7 17 -7 25 0 12 2 12 6 1 4 -10 7 -11 13 -1z m80 0 c0
-5 -4 -10 -10 -10 -5 0 -10 5 -10 10 0 6 5 10 10 10 6 0 10 -4 10 -10z m179
-51 c-29 -18 -36 -10 -17 21 11 17 14 18 21 4 6 -11 5 -19 -4 -25z m109 1
c-13 -21 -28 -27 -28 -10 0 5 8 14 18 19 23 14 24 14 10 -9z m-498 -6 c0 -2
-7 -4 -15 -4 -8 0 -15 4 -15 10 0 5 7 7 15 4 8 -4 15 -8 15 -10z m110 -10 c0
-2 -7 -4 -15 -4 -8 0 -15 4 -15 10 0 5 7 7 15 4 8 -4 15 -8 15 -10z m314 -16
c-4 -25 -3 -29 5 -18 6 8 11 23 11 33 0 10 4 15 10 12 13 -8 -14 -71 -29 -67
-6 1 -11 -5 -11 -13 0 -20 10 -19 26 3 10 14 15 15 25 5 11 -11 10 -13 -2 -13
-9 0 -24 -9 -34 -20 -21 -23 -44 -28 -25 -5 10 12 10 15 -1 15 -21 0 -42 -17
-45 -34 -1 -9 2 -14 7 -10 5 3 9 -2 9 -10 0 -13 -5 -14 -27 -5 -18 7 -29 7
-31 0 -2 -5 -10 -7 -19 -4 -11 4 -14 2 -9 -5 7 -11 -6 -17 -27 -13 -5 1 -5 -3
-2 -9 4 -6 13 -9 21 -6 8 3 14 1 14 -4 0 -6 -7 -10 -15 -10 -8 0 -15 -7 -15
-15 0 -14 -10 -19 -27 -12 -11 3 -9 51 2 62 22 24 73 54 79 48 3 -3 7 0 7 8 1
8 3 21 4 29 1 8 3 26 4 40 2 14 5 19 8 13 7 -18 23 -16 23 2 0 8 5 15 10 15
13 0 12 -10 -5 -40 -20 -34 -18 -43 4 -31 10 6 22 23 26 38 6 26 22 53 31 53
2 0 1 -15 -2 -32z m-367 7 c0 -18 -19 -15 -25 3 -2 7 3 12 11 12 7 0 14 -7 14
-15z m-37 -14 c0 -6 -4 -13 -10 -16 -5 -3 -10 1 -10 9 0 9 5 16 10 16 6 0 10
-4 10 -9z m70 -16 c-17 -20 -3 -40 18 -23 14 11 15 10 9 -6 -6 -15 -4 -17 13
-13 21 5 37 -8 21 -17 -5 -4 -8 -18 -5 -31 3 -18 0 -25 -11 -25 -8 0 -15 6
-15 13 0 13 -38 16 -58 3 -18 -11 -33 3 -30 27 2 12 -3 22 -9 23 -7 1 -15 2
-18 3 -3 0 -1 10 6 22 8 15 14 18 21 11 8 -8 18 -5 36 8 29 24 39 26 22 5z
m200 0 c0 -8 -4 -15 -10 -15 -5 0 -7 7 -4 15 4 8 8 15 10 15 2 0 4 -7 4 -15z
m313 -47 c-6 -48 -23 -57 -23 -12 0 20 20 67 26 61 1 -1 0 -23 -3 -49z m87 38
c0 -7 -8 -20 -17 -27 -15 -12 -16 -12 -10 4 4 10 7 23 7 28 0 5 5 9 10 9 6 0
10 -6 10 -14z m-444 -73 c-5 -12 -10 -13 -18 -5 -8 8 -8 15 3 28 15 18 25 4
15 -23z m794 28 c0 -6 -4 -13 -10 -16 -5 -3 -10 1 -10 9 0 9 5 16 10 16 6 0
10 -4 10 -9z m-413 -23 c-3 -8 -6 -5 -6 6 -1 11 2 17 5 13 3 -3 4 -12 1 -19z
m-437 -25 c0 -13 2 -13 17 -2 15 13 15 12 5 -7 -6 -12 -9 -24 -5 -27 3 -4 0
-13 -7 -22 -13 -16 -31 -20 -29 -7 3 18 -2 32 -11 32 -5 0 -7 -8 -4 -17 5 -17
5 -17 -6 0 -6 9 -17 14 -23 11 -7 -4 -9 -4 -5 0 3 4 8 7 10 5 2 -1 13 3 25 9
15 8 20 18 16 33 -4 15 -3 20 5 15 7 -4 12 -14 12 -23z m-170 -13 c0 -5 -2
-10 -4 -10 -3 0 -8 5 -11 10 -3 6 -1 10 4 10 6 0 11 -4 11 -10z m585 -12 c3
-13 5 -32 5 -43 -1 -34 6 -63 17 -77 22 -28 24 -38 9 -32 -27 10 -19 -37 14
-89 17 -26 30 -53 30 -60 0 -13 59 -57 77 -57 6 0 16 -7 23 -15 7 -9 21 -13
30 -10 11 3 33 -8 60 -30 42 -35 40 -48 -5 -19 -21 14 -24 14 -33 -3 -9 -16
-11 -15 -17 10 -9 35 -19 26 -20 -18 -1 -34 -15 -64 -15 -32 0 9 -4 17 -8 17
-5 0 -23 21 -39 48 -17 26 -43 58 -57 71 -25 24 -36 48 -16 36 6 -4 0 9 -13
29 -14 19 -32 59 -42 88 -9 29 -21 58 -26 64 -6 8 -4 14 6 18 8 3 15 10 15 17
0 6 -6 9 -14 6 -10 -4 -11 4 -5 40 5 25 6 49 3 54 -3 5 -1 9 5 9 6 0 13 -10
16 -22z m-208 -10 c-3 -8 -6 -5 -6 6 -1 11 2 17 5 13 3 -3 4 -12 1 -19z m-329
-5 c-2 -10 2 -17 9 -16 8 2 10 -4 6 -14 -4 -10 -2 -14 4 -10 14 9 20 -10 18
-50 -1 -18 2 -33 6 -33 4 0 7 -9 6 -20 -1 -20 -2 -20 -19 2 -14 19 -20 21 -37
11 -18 -11 -18 -11 -3 20 9 18 23 37 31 44 14 11 14 13 1 14 -8 1 -20 1 -25 0
-14 -1 -37 37 -30 50 4 5 11 7 16 4 5 -4 9 -1 9 4 0 6 2 11 5 11 3 0 5 -8 3
-17z m822 -39 c0 -8 -4 -14 -10 -14 -5 0 -10 5 -10 12 0 6 -8 20 -17 31 -18
20 -18 20 10 2 15 -9 27 -24 27 -31z m-750 2 c0 -34 -17 -42 -22 -11 -5 25 -1
35 14 35 4 0 8 -11 8 -24z m657 -33 c0 -9 -4 -10 -14 -2 -7 6 -13 12 -13 14 0
1 6 2 13 2 8 0 14 -6 14 -14z m-634 -23 c-6 -24 -19 -26 -27 -4 -3 8 -2 12 4
9 6 -3 10 1 10 10 0 9 4 14 9 11 5 -3 7 -15 4 -26z m-118 0 c3 -5 1 -10 -4
-10 -6 0 -11 5 -11 10 0 6 2 10 4 10 3 0 8 -4 11 -10z m305 0 c0 -5 -5 -10
-11 -10 -5 0 -7 5 -4 10 3 6 8 10 11 10 2 0 4 -4 4 -10z m684 -55 c24 -50 20
-70 -8 -42 -8 7 -17 23 -20 35 -4 12 -12 20 -17 17 -5 -4 -9 0 -9 9 0 8 -3 22
-7 31 -12 33 44 -13 61 -50z m44 32 c12 -17 39 -46 61 -62 43 -33 70 -75 47
-75 -7 0 -21 9 -31 20 -10 11 -21 18 -25 15 -4 -2 -17 7 -30 20 -13 13 -28 22
-34 18 -6 -3 -8 -3 -4 1 4 5 -2 24 -13 43 -16 29 -18 38 -7 44 7 5 14 9 15 9
1 0 10 -15 21 -33z m-688 -7 c0 -9 -31 -22 -37 -16 -3 2 -2 14 2 26 5 17 10
19 21 9 8 -6 14 -15 14 -19z m380 9 c0 -5 -4 -9 -10 -9 -5 0 -10 7 -10 16 0 8
5 12 10 9 6 -3 10 -10 10 -16z m-265 -29 c-3 -5 -1 -11 4 -15 6 -3 7 -13 4
-22 -5 -12 -3 -14 6 -8 8 4 17 2 22 -6 7 -11 9 -10 9 4 0 10 5 15 10 12 6 -4
8 -10 6 -14 -3 -4 -1 -13 4 -21 5 -9 4 -20 -3 -29 -10 -12 -9 -13 11 -2 19 10
22 9 22 -9 0 -20 -2 -22 -42 -23 -18 -1 -22 4 -21 21 2 14 -3 22 -12 22 -8 0
-15 5 -15 11 0 5 -4 7 -10 4 -5 -3 -10 -13 -10 -21 0 -8 5 -12 10 -9 6 3 10
-3 10 -14 0 -12 6 -21 13 -22 9 0 9 -2 -1 -6 -7 -3 -24 7 -37 22 -14 14 -28
24 -33 22 -4 -3 -7 12 -7 33 -1 30 4 40 20 45 17 6 18 8 3 12 -14 3 -15 7 -6
17 13 14 51 10 43 -4z m-225 -16 c0 -14 -12 -19 -23 -8 -9 9 4 35 14 28 5 -3
9 -12 9 -20z m268 1 c-3 -3 -9 2 -12 12 -6 14 -5 15 5 6 7 -7 10 -15 7 -18z
m232 4 c0 -6 -4 -7 -10 -4 -5 3 -10 11 -10 16 0 6 5 7 10 4 6 -3 10 -11 10
-16z m-20 -24 c0 -5 -5 -3 -10 5 -5 8 -10 20 -10 25 0 6 5 3 10 -5 5 -8 10
-19 10 -25z m450 3 c0 -6 -7 -5 -15 2 -8 7 -15 17 -15 22 0 6 7 5 15 -2 8 -7
15 -17 15 -22z m-526 -24 c5 -14 4 -15 -9 -4 -17 14 -19 20 -6 20 5 0 12 -7
15 -16z m-484 -14 c0 -5 -5 -10 -11 -10 -5 0 -7 5 -4 10 3 6 8 10 11 10 2 0 4
-4 4 -10z m670 -5 c10 -12 10 -15 -4 -15 -9 0 -16 7 -16 15 0 8 2 15 4 15 2 0
9 -7 16 -15z m-170 -27 c0 -13 -23 -5 -28 10 -2 7 2 10 12 6 9 -3 16 -11 16
-16z m284 -33 c17 -25 16 -25 -4 -13 -11 7 -20 18 -20 25 0 19 6 16 24 -12z
m-179 -5 c2 -4 -7 -5 -20 -2 -14 2 -25 8 -25 12 0 10 38 1 45 -10z m252 -42
c16 -23 38 -53 51 -66 12 -14 22 -32 21 -41 0 -14 -1 -14 -6 -1 -3 8 -13 23
-21 33 -12 14 -17 15 -24 5 -7 -10 -8 -9 -7 2 3 23 -12 51 -24 43 -6 -4 -7 -1
-2 6 4 8 -1 18 -14 27 -22 16 -28 34 -11 34 5 0 22 -19 37 -42z m-544 -12 c4
4 7 2 7 -4 0 -7 -7 -12 -15 -12 -8 0 -15 4 -15 9 0 5 -3 18 -6 28 -3 12 -1 10
8 -5 8 -12 17 -19 21 -16z m120 20 c4 -10 1 -13 -8 -9 -8 3 -12 9 -9 14 7 12
11 11 17 -5z m-52 -9 c11 3 19 0 19 -6 0 -6 -5 -11 -11 -11 -7 0 -17 -7 -23
-15 -10 -13 -13 -11 -23 15 -10 26 -9 29 4 21 9 -4 24 -6 34 -4z m-386 -16 c3
-5 1 -12 -4 -15 -5 -3 -11 1 -15 9 -6 16 9 21 19 6z m834 -24 c0 -21 -1 -21
-9 -2 -12 28 -12 37 0 30 6 -3 10 -16 9 -28z m-25 4 c8 -13 -3 -19 -24 -14
-11 3 -17 9 -14 14 7 11 31 12 38 0z m-794 -11 c0 -5 -9 -10 -19 -10 -11 0
-22 -6 -24 -12 -4 -10 -6 -10 -6 0 -1 10 22 25 47 31 1 1 2 -3 2 -9z m75 -20
c3 -5 1 -10 -4 -10 -6 0 -11 5 -11 10 0 6 2 10 4 10 3 0 8 -4 11 -10z m769 -6
c3 -8 2 -12 -4 -9 -6 3 -10 10 -10 16 0 14 7 11 14 -7z m-798 -76 c-7 -12 -12
-14 -17 -6 -4 7 -5 16 -3 20 3 4 0 8 -5 8 -6 0 -11 14 -11 31 l0 32 23 -34
c18 -26 21 -38 13 -51z m-51 52 c3 -5 2 -10 -4 -10 -5 0 -13 5 -16 10 -3 6 -2
10 4 10 5 0 13 -4 16 -10z m78 -71 c3 -12 10 -18 16 -14 14 8 61 -39 61 -62
-1 -17 -1 -17 -11 1 -9 15 -13 16 -20 5 -6 -10 -9 -11 -9 -1 0 16 -39 54 -49
48 -5 -3 -8 6 -8 19 0 30 13 33 20 4z m16 -70 c-8 -4 -4 -9 10 -14 26 -8 28
-25 2 -25 -26 0 -41 22 -34 48 4 18 8 20 20 11 10 -9 11 -14 2 -20z m-51 -4
c-3 -3 -9 2 -12 12 -6 14 -5 15 5 6 7 -7 10 -15 7 -18z m932 -11 c0 -8 -2 -14
-4 -14 -2 0 -11 -3 -20 -6 -11 -4 -16 0 -16 13 0 11 3 22 6 26 10 9 34 -4 34
-19z m-1000 -16 c11 -18 20 -44 20 -58 0 -18 3 -21 9 -11 6 10 10 10 16 1 4
-6 -1 -20 -11 -31 -21 -23 -33 -10 -29 31 1 14 -6 40 -16 58 -20 35 -22 42
-14 42 3 0 14 -15 25 -32z m897 16 c-3 -3 -12 -4 -19 -1 -8 3 -5 6 6 6 11 1
17 -2 13 -5z m-82 -24 c-27 -12 -43 -12 -25 0 8 5 22 9 30 9 10 0 8 -3 -5 -9z
m-755 -30 c0 -5 -8 -10 -17 -10 -15 0 -16 2 -3 10 19 12 20 12 20 0z m30 0 c0
-5 -4 -10 -10 -10 -5 0 -10 5 -10 10 0 6 5 10 10 10 6 0 10 -4 10 -10z m615 0
c-27 -12 -43 -12 -25 0 8 5 22 9 30 9 10 0 8 -3 -5 -9z m-625 -30 c0 -5 -5
-10 -11 -10 -5 0 -7 5 -4 10 3 6 8 10 11 10 2 0 4 -4 4 -10z m850 -22 c0 -6
-7 -7 -16 -4 -9 3 -21 6 -27 6 -7 0 -7 4 2 9 16 10 41 4 41 -11z m-145 -8 c8
-13 -5 -13 -25 0 -13 8 -13 10 2 10 9 0 20 -4 23 -10z m340 -51 c-4 -5 0 -18
8 -27 16 -18 19 -55 5 -46 -5 4 -7 12 -4 20 3 8 1 14 -3 14 -12 0 -23 29 -15
41 3 5 7 9 10 9 3 0 2 -5 -1 -11z m-401 -8 c17 -7 17 -8 2 -24 -24 -24 -33
-21 -33 8 0 27 2 28 31 16z m-409 -21 c-12 -13 -16 -28 -12 -49 4 -19 2 -31
-7 -34 -8 -3 -13 7 -14 33 -2 30 2 42 20 54 30 21 35 20 13 -4z m-78 -65 c-8
-22 -33 -14 -43 13 l-11 30 28 -17 c16 -9 27 -20 26 -26z m113 23 c0 -4 -4
-10 -10 -13 -5 -3 -10 -1 -10 5 0 6 -4 8 -10 5 -5 -3 -10 -2 -10 4 0 5 9 9 20
8 11 -1 20 -5 20 -9z m647 -10 c-3 -8 -6 -5 -6 6 -1 11 2 17 5 13 3 -3 4 -12
1 -19z m550 -35 c-4 -17 -4 -17 -12 0 -4 9 -4 25 0 35 8 16 8 16 12 0 3 -10 3
-26 0 -35z m-682 17 c3 -5 1 -10 -4 -10 -6 0 -11 5 -11 10 0 6 2 10 4 10 3 0
8 -4 11 -10z m505 1 c0 -5 -7 -12 -16 -15 -14 -5 -15 -4 -4 9 14 17 20 19 20
6z m-1005 -21 c3 -5 1 -10 -4 -10 -6 0 -11 5 -11 10 0 6 2 10 4 10 3 0 8 -4
11 -10z m684 -14 c9 -11 7 -13 -13 -13 -20 0 -22 2 -13 13 15 16 13 16 26 0z
m-703 -20 c19 -19 18 -26 -5 -26 -10 0 -21 9 -24 20 -6 23 8 26 29 6z m515
-27 c5 -16 7 -18 8 -6 1 16 3 16 29 3 21 -11 28 -22 27 -38 -1 -13 -8 -22 -14
-20 -17 3 -13 -9 6 -23 15 -11 15 -15 4 -29 -11 -13 -11 -20 -3 -28 15 -15
-13 -49 -34 -41 -19 7 -18 53 1 53 22 0 18 17 -5 23 -21 5 -28 37 -9 37 6 0 0
15 -15 34 -27 36 -35 71 -14 64 7 -3 15 -15 19 -29z m189 -62 c0 -16 -5 -14
-30 13 -16 18 -27 36 -24 42 9 14 54 -32 54 -55z m75 37 c16 -25 16 -25 -3
-15 -11 6 -22 17 -26 26 -9 24 10 17 29 -11z m-330 -38 c-2 -14 8 -26 29 -38
17 -9 25 -17 18 -18 -10 0 -10 -4 2 -16 9 -8 16 -23 16 -32 -1 -13 -7 -9 -25
12 -13 17 -22 33 -19 38 3 4 -2 5 -10 2 -9 -3 -16 -10 -16 -15 0 -20 -16 -7
-29 22 -11 25 -11 36 -2 50 6 10 11 22 11 26 0 5 -5 1 -10 -7 -5 -8 -10 -10
-10 -4 0 18 11 23 29 12 10 -6 17 -20 16 -32z m543 1 c2 -10 -3 -17 -13 -17
-9 0 -13 4 -10 10 3 6 -1 7 -9 4 -9 -3 -16 -2 -16 3 0 28 43 28 48 0z m156
-18 c-6 -10 -44 -18 -44 -10 0 12 8 17 29 17 11 0 18 -3 15 -7z m-780 -35 l19
-26 -27 17 c-14 10 -26 21 -26 26 0 16 15 9 34 -17z m460 1 c3 -9 0 -12 -9 -9
-7 3 -16 12 -19 19 -3 9 0 12 9 9 7 -3 16 -12 19 -19z m181 -2 c-2 -10 -4 -20
-4 -23 -2 -7 -21 23 -21 33 0 4 6 7 14 7 8 0 13 -8 11 -17z m-660 -13 c10 -11
13 -20 8 -20 -6 0 -25 -3 -42 -6 -35 -7 -43 10 -13 32 23 18 26 17 47 -6z
m-77 -25 c-3 -3 -9 2 -12 12 -6 14 -5 15 5 6 7 -7 10 -15 7 -18z m601 -13 c10
-10 7 -11 -16 -6 -46 11 -62 23 -27 21 17 -1 37 -8 43 -15z m-542 -14 c-17 -9
-17 -11 -1 -22 9 -7 18 -25 20 -39 2 -21 -2 -27 -17 -27 -11 0 -17 -4 -14 -10
3 -5 -3 -10 -14 -10 -28 0 -27 13 2 25 12 6 22 19 22 30 0 16 -8 21 -38 23
l-39 3 44 22 c41 22 72 26 35 5z m143 18 c0 -3 -4 -8 -10 -11 -5 -3 -10 -1
-10 4 0 6 5 11 10 11 6 0 10 -2 10 -4z m-257 -26 c-3 -11 -9 -20 -14 -20 -14
0 -11 28 4 33 6 3 13 6 14 6 0 1 -1 -8 -4 -19z m54 14 c-3 -3 -12 -4 -19 -1
-8 3 -5 6 6 6 11 1 17 -2 13 -5z m173 -29 c15 -29 9 -41 -17 -30 -12 5 -14 9
-6 12 9 3 10 10 3 24 -6 10 -7 19 -2 19 5 0 15 -11 22 -25z m-205 -13 c-2 -2
4 -12 13 -23 16 -18 17 -18 39 3 13 12 26 18 30 14 9 -9 -48 -57 -62 -52 -22
7 -46 -21 -41 -48 3 -14 0 -26 -5 -26 -6 0 -7 -5 -4 -10 3 -6 -6 -15 -21 -20
-20 -8 -29 -8 -35 2 -10 16 -2 27 27 38 13 5 24 15 23 22 0 10 -2 10 -6 1 -2
-7 -10 -13 -17 -13 -8 0 -25 -9 -39 -20 -23 -18 -26 -19 -38 -3 -12 15 -12 16
6 9 11 -4 16 -4 12 0 -9 10 13 35 25 28 12 -8 60 25 53 36 -3 5 -12 7 -19 4
-8 -3 -12 3 -10 18 1 13 3 28 3 34 1 6 16 10 35 10 19 -1 33 -3 31 -4z m395
-2 c0 -5 -4 -10 -10 -10 -5 0 -10 5 -10 10 0 6 5 10 10 10 6 0 10 -4 10 -10z
m-55 -10 c-3 -5 0 -7 8 -4 8 3 19 -1 26 -9 9 -12 7 -16 -11 -20 -18 -5 -20 -9
-10 -19 18 -18 15 -37 -13 -62 -20 -19 -23 -26 -12 -34 7 -6 22 -9 34 -6 13 4
22 0 27 -11 7 -20 -1 -38 -15 -30 -5 4 -4 -5 3 -19 6 -14 15 -26 20 -26 4 0 8
-4 8 -10 0 -5 -7 -7 -15 -4 -8 4 -21 1 -29 -5 -10 -9 -15 -8 -20 4 -6 17 -36
21 -36 4 0 -5 4 -8 9 -5 5 3 14 0 20 -8 7 -8 20 -12 30 -9 12 3 20 -2 24 -16
4 -18 2 -20 -21 -15 -21 4 -24 3 -12 -5 12 -9 11 -11 -8 -11 -15 0 -21 4 -16
12 4 6 3 8 -3 5 -17 -11 -22 -57 -7 -57 8 0 14 -4 14 -8 0 -8 -7 -10 -75 -16
-25 -2 -39 -8 -37 -15 1 -7 -2 -10 -8 -6 -5 3 -16 3 -22 -2 -19 -11 -37 -12
-44 -2 -3 5 -10 7 -15 4 -5 -4 -9 0 -9 7 -1 9 -5 7 -14 -4 -7 -10 -15 -15 -18
-13 -3 3 -11 -1 -18 -10 -18 -22 -29 -18 -23 8 3 15 2 18 -5 9 -5 -7 -24 -15
-43 -17 -19 -2 -38 -4 -43 -4 -4 -1 -5 -8 -2 -17 3 -8 2 -13 -2 -10 -4 2 -16
-2 -27 -10 -15 -11 -17 -17 -7 -23 8 -5 1 -8 -19 -8 -19 0 -35 -6 -41 -16 -5
-9 -15 -17 -22 -17 -8 0 -21 -10 -30 -22 -15 -23 -15 -22 -5 7 8 24 8 28 -2
18 -7 -7 -22 -13 -33 -12 -20 0 -20 1 2 9 27 11 29 24 2 17 -10 -3 -24 1 -31
9 -8 10 -8 14 0 14 6 0 11 5 11 11 0 5 -4 7 -10 4 -5 -3 -10 -2 -10 4 0 5 5
13 10 16 6 3 10 2 10 -3 0 -6 6 -12 14 -15 10 -4 14 0 13 14 -1 10 -5 19 -9
19 -4 0 -8 7 -8 16 0 8 5 12 10 9 6 -3 10 -2 10 4 0 5 10 13 22 17 12 3 32 19
46 35 13 16 30 29 37 29 7 0 15 9 18 21 4 13 10 18 18 13 7 -4 10 -3 5 4 -3 6
3 16 14 22 11 6 20 7 20 3 1 -4 8 4 16 20 8 15 22 27 32 27 27 0 67 31 52 40
-9 5 -9 9 -1 14 6 4 11 2 11 -3 0 -6 7 -11 15 -11 13 0 14 4 4 23 -9 18 -9 20
2 10 15 -15 33 -17 24 -4 -3 6 11 8 32 6 20 -2 31 0 24 4 -8 5 4 13 33 21 24
7 50 9 57 5 7 -5 10 -4 7 1 -3 5 1 16 10 24 14 13 15 12 9 -4 -6 -15 -5 -17 6
-8 10 9 16 9 25 0 8 -8 10 -2 10 22 -1 17 -6 34 -13 36 -17 7 -6 54 12 54 8 0
11 -4 8 -10z m-320 -60 c3 -5 1 -10 -4 -10 -6 0 -11 5 -11 10 0 6 2 10 4 10 3
0 8 -4 11 -10z m-5 -30 c0 -5 -2 -10 -4 -10 -3 0 -8 5 -11 10 -3 6 -1 10 4 10
6 0 11 -4 11 -10z m46 -12 c-16 -9 -36 -3 -36 11 0 5 12 6 26 3 22 -4 24 -6
10 -14z m-211 -37 c5 -29 4 -32 -9 -22 -12 10 -14 9 -9 -8 3 -11 10 -19 15
-18 24 5 17 -23 -7 -29 -19 -5 -32 -1 -50 16 -28 26 -25 34 19 62 22 14 25 18
9 13 -13 -3 -23 -4 -23 0 0 5 43 25 47 21 1 -1 5 -17 8 -35z m240 19 c3 -5 -1
-10 -10 -10 -9 0 -13 5 -10 10 3 6 8 10 10 10 2 0 7 -4 10 -10z m-205 -50 c0
-5 -2 -10 -4 -10 -3 0 -8 5 -11 10 -3 6 -1 10 4 10 6 0 11 -4 11 -10z m155
-30 c-3 -5 -11 -10 -16 -10 -6 0 -7 5 -4 10 3 6 11 10 16 10 6 0 7 -4 4 -10z
m-308 -23 c-7 -18 32 -15 43 2 12 20 30 4 28 -24 -2 -19 -8 -25 -25 -25 -12 0
-30 -9 -40 -19 -26 -28 -43 -13 -39 34 5 49 3 45 22 45 9 0 14 -6 11 -13z
m810 -33 c0 -7 -6 -10 -14 -7 -7 3 -13 8 -13 12 0 4 6 8 13 8 8 0 14 -6 14
-13z m-102 -4 c3 -5 1 -10 -4 -10 -6 0 -11 5 -11 10 0 6 2 10 4 10 3 0 8 -4
11 -10z m225 0 c0 -5 -7 -10 -16 -10 -8 0 -12 5 -9 10 3 6 10 10 16 10 5 0 9
-4 9 -10z m-110 -30 c0 -5 -2 -10 -4 -10 -3 0 -8 5 -11 10 -3 6 -1 10 4 10 6
0 11 -4 11 -10z m-160 -46 c0 -11 -5 -14 -16 -10 -12 4 -14 1 -9 -14 4 -12 2
-20 -5 -20 -6 0 -8 5 -5 10 3 6 -1 13 -9 16 -21 8 -20 21 2 27 33 9 42 7 42
-9z m-10 -74 c0 -5 -2 -10 -4 -10 -3 0 -8 5 -11 10 -3 6 -1 10 4 10 6 0 11 -4
11 -10z m-245 -20 c3 -5 1 -10 -4 -10 -6 0 -11 5 -11 10 0 6 2 10 4 10 3 0 8
-4 11 -10z m-455 -20 c0 -5 -2 -10 -4 -10 -3 0 -8 5 -11 10 -3 6 -1 10 4 10 6
0 11 -4 11 -10z m400 -4 c0 -2 -7 -6 -15 -10 -8 -3 -15 -1 -15 4 0 6 7 10 15
10 8 0 15 -2 15 -4z m65 -36 c3 -5 1 -10 -4 -10 -6 0 -11 5 -11 10 0 6 2 10 4
10 3 0 8 -4 11 -10z m45 -14 c0 -3 -4 -8 -10 -11 -5 -3 -10 -1 -10 4 0 6 5 11
10 11 6 0 10 -2 10 -4z m-96 -21 c3 -8 -4 -24 -16 -35 -24 -22 -38 -19 -18 5
10 12 10 15 0 15 -10 0 -10 3 0 15 16 19 26 19 34 0z m119 -6 c-4 -15 -9 -17
-17 -9 -8 8 -7 13 4 20 8 5 16 10 17 10 0 0 -1 -9 -4 -21z m-243 1 c0 -5 -7
-7 -15 -4 -8 4 -15 8 -15 10 0 2 7 4 15 4 8 0 15 -4 15 -10z m-10 -25 c11 -13
10 -14 -4 -9 -9 3 -16 10 -16 15 0 13 6 11 20 -6z m-220 -20 c0 -8 -4 -15 -10
-15 -5 0 -7 7 -4 15 4 8 8 15 10 15 2 0 4 -7 4 -15z m170 5 c0 -5 -4 -10 -10
-10 -5 0 -10 5 -10 10 0 6 5 10 10 10 6 0 10 -4 10 -10z m205 -10 c3 -5 1 -10
-4 -10 -6 0 -11 5 -11 10 0 6 2 10 4 10 3 0 8 -4 11 -10z m-60 -20 c3 -5 2
-10 -4 -10 -5 0 -13 5 -16 10 -3 6 -2 10 4 10 5 0 13 -4 16 -10z m84 -16 c-17
-21 -31 -17 -17 5 7 11 16 17 20 14 5 -2 4 -11 -3 -19z m526 -46 c4 -15 13
-32 21 -39 19 -16 17 -39 -7 -69 -20 -24 -20 -24 -14 -2 4 13 2 22 -4 22 -6 0
-11 7 -11 15 0 8 -7 15 -16 15 -9 0 -12 -5 -8 -12 5 -9 4 -10 -4 -3 -11 10
-15 29 -13 54 1 10 9 8 28 -10 15 -13 22 -17 15 -8 -6 9 -9 19 -5 22 3 4 2 7
-4 7 -5 0 -15 11 -21 25 -6 14 -18 25 -26 25 -9 0 -13 6 -10 15 9 22 72 -23
79 -57z m-725 59 c0 -2 -9 -12 -20 -22 -17 -16 -20 -16 -20 -2 0 8 8 18 18 20
9 3 18 5 20 6 1 0 2 -1 2 -2z m600 -37 c27 -14 38 -25 34 -35 -7 -18 -24 -20
-24 -2 0 6 -15 22 -33 35 -39 27 -29 29 23 2z m-603 -15 c-15 -16 -19 -13 -11
9 3 9 10 13 15 10 5 -3 3 -11 -4 -19z m133 15 c0 -5 -5 -10 -11 -10 -5 0 -7 5
-4 10 3 6 8 10 11 10 2 0 4 -4 4 -10z m953 -17 c-7 -2 -19 -2 -25 0 -7 3 -2 5
12 5 14 0 19 -2 13 -5z m-938 -23 c3 -5 1 -10 -4 -10 -6 0 -11 5 -11 10 0 6 2
10 4 10 3 0 8 -4 11 -10z m725 -25 c0 -8 4 -15 9 -15 5 0 11 -7 15 -15 3 -10
-1 -15 -13 -15 -13 0 -20 9 -23 30 -3 17 -1 30 4 30 4 0 8 -7 8 -15z m-779
-15 c-13 -11 -29 -20 -37 -20 -8 0 -14 -4 -14 -10 0 -5 -7 -10 -15 -10 -27 0
-16 20 15 26 16 4 35 13 41 20 6 8 17 14 23 14 6 -1 0 -10 -13 -20z m-104 -16
c-3 -3 -12 -4 -19 -1 -8 3 -5 6 6 6 11 1 17 -2 13 -5z m183 -24 c0 -5 -8 -10
-17 -10 -15 0 -16 2 -3 10 19 12 20 12 20 0z m660 -10 c0 -5 8 -6 17 -3 15 6
16 5 3 -9 -9 -10 -19 -13 -26 -7 -12 9 -13 -18 -2 -37 4 -5 3 -16 -2 -23 -6
-11 -10 -9 -19 7 -6 12 -11 25 -10 29 3 19 -2 34 -9 29 -5 -3 -9 0 -9 7 0 7
13 13 29 14 15 1 28 -2 28 -7z m-460 -4 c0 -3 -4 -8 -10 -11 -5 -3 -10 -1 -10
4 0 6 5 11 10 11 6 0 10 -2 10 -4z m-60 -16 c0 -5 -2 -10 -4 -10 -3 0 -8 5
-11 10 -3 6 -1 10 4 10 6 0 11 -4 11 -10z m30 6 c0 -3 -4 -8 -10 -11 -5 -3
-10 -1 -10 4 0 6 5 11 10 11 6 0 10 -2 10 -4z m-116 -12 c9 -3 16 -10 16 -15
0 -13 -43 -4 -48 9 -4 13 8 15 32 6z m386 -43 c0 -5 -7 -12 -16 -15 -8 -3 -13
-10 -9 -15 3 -6 -4 -9 -15 -8 -30 2 -32 25 -2 36 35 12 42 13 42 2z m542 -19
c-6 -2 -8 -11 -5 -19 5 -13 2 -12 -13 3 -29 28 -27 45 4 31 13 -6 20 -13 14
-15z m-717 4 c30 16 50 8 36 -15 -5 -8 -30 -14 -61 -16 -28 -2 -57 -8 -63 -14
-6 -6 -15 -11 -20 -11 -5 0 2 9 16 20 14 11 31 20 37 20 7 0 10 7 6 18 -6 16
-5 16 7 0 12 -15 16 -16 42 -2z m75 -7 c0 -6 -4 -7 -10 -4 -5 3 -10 11 -10 16
0 6 5 7 10 4 6 -3 10 -11 10 -16z m310 -19 c0 -5 -2 -10 -4 -10 -3 0 -8 5 -11
10 -3 6 -1 10 4 10 6 0 11 -4 11 -10z m-233 -16 c-3 -3 -12 -4 -19 -1 -8 3 -5
6 6 6 11 1 17 -2 13 -5z m-114 -42 c9 -8 17 -10 17 -4 0 14 41 2 47 -14 8 -20
25 -5 18 16 -4 14 -1 16 19 13 14 -3 27 -14 30 -26 7 -28 0 -34 -9 -8 -9 30
-23 26 -17 -4 4 -23 2 -25 -29 -19 -53 9 -61 13 -53 26 4 7 4 10 -1 6 -4 -4
-25 0 -47 9 -56 22 -59 9 -4 -17 26 -11 45 -24 42 -28 -3 -5 9 -7 26 -6 30 2
68 -13 68 -27 0 -4 -17 -3 -37 2 -52 12 -57 11 -44 -5 7 -8 21 -12 31 -9 11 3
20 0 20 -6 0 -6 -4 -11 -9 -11 -30 0 -10 -70 20 -70 10 -1 8 -5 -5 -15 -27
-20 -36 -19 -36 5 0 10 -7 34 -16 53 -16 33 -17 33 -74 31 -47 -2 -61 1 -75
17 -10 10 -14 19 -9 19 5 0 15 10 23 23 13 20 13 21 -1 9 -20 -16 -43 -7 -45
17 -2 19 19 30 66 37 13 2 25 5 28 8 7 7 35 -4 56 -22z m608 8 c9 0 23 -8 30
-17 10 -11 10 -14 2 -9 -7 4 -13 2 -13 -3 0 -6 -7 -11 -15 -11 -8 0 -15 7 -15
15 0 9 -7 18 -15 21 -8 4 -15 11 -15 17 0 7 4 7 12 -1 7 -7 20 -12 29 -12z
m-864 -5 c-12 -9 -12 -12 -1 -23 8 -7 14 -18 14 -25 0 -7 -3 -8 -8 -2 -8 11
-27 15 -82 19 -39 2 -60 12 -60 28 0 7 5 7 14 -1 10 -9 15 -8 19 3 4 10 22 14
62 13 42 -1 53 -4 42 -12z m463 -7 c0 -4 -9 -8 -21 -8 -11 0 -18 4 -15 8 3 5
12 9 21 9 8 0 15 -4 15 -9z m648 -20 c7 -7 12 -16 12 -20 0 -15 -15 -8 -28 12
-13 22 -3 27 16 8z m-1273 -8 c3 -6 -1 -7 -9 -4 -18 7 -21 14 -7 14 6 0 13 -4
16 -10z m201 -45 c9 -8 11 -15 6 -15 -5 0 -15 7 -22 15 -7 8 -9 15 -6 15 4 0
14 -7 22 -15z m459 -5 c-10 -11 -22 -20 -27 -20 -10 0 24 38 36 39 5 1 1 -8
-9 -19z m629 -30 c-6 -5 -24 21 -24 34 0 6 6 1 14 -10 8 -10 12 -21 10 -24z
m-1257 24 c-3 -3 -12 -4 -19 -1 -8 3 -5 6 6 6 11 1 17 -2 13 -5z m1143 -4 c0
-5 -2 -10 -4 -10 -3 0 -8 5 -11 10 -3 6 -1 10 4 10 6 0 11 -4 11 -10z m-630
-30 c0 -12 -28 -25 -36 -17 -9 9 6 27 22 27 8 0 14 -5 14 -10z m-272 -25 c-3
-3 -9 2 -12 12 -6 14 -5 15 5 6 7 -7 10 -15 7 -18z m32 14 c0 -7 16 -8 46 -3
44 6 46 6 35 -14 -6 -11 -11 -30 -11 -42 0 -18 -3 -19 -20 -10 -11 6 -20 18
-20 27 0 9 -3 13 -6 10 -10 -10 -44 12 -44 28 0 8 5 15 10 15 6 0 10 -5 10
-11z m270 -15 c0 -8 -7 -14 -15 -14 -17 0 -18 2 -9 24 7 18 24 12 24 -10z
m404 -65 c-3 -5 0 -9 5 -9 14 0 14 13 -1 28 -6 6 -9 15 -5 18 10 10 39 -17 33
-32 -3 -7 2 -15 10 -18 9 -3 12 -12 9 -18 -4 -7 2 -2 13 11 l20 24 16 -31 c9
-17 12 -33 8 -36 -20 -12 -81 3 -105 28 -14 14 -30 26 -34 26 -4 0 -8 13 -8
29 l0 30 22 -21 c12 -12 20 -25 17 -29z m-752 22 c16 -18 14 -31 -4 -31 -4 0
-8 7 -8 15 0 8 -4 15 -10 15 -5 0 -10 5 -10 10 0 16 14 12 32 -9z m310 -43
c-8 -31 -13 -34 -52 -29 -20 2 -5 36 23 53 15 10 28 23 28 30 1 7 3 6 6 -4 2
-9 0 -31 -5 -50z m528 40 c0 -6 -6 -5 -15 2 -8 7 -15 14 -15 16 0 2 7 1 15 -2
8 -4 15 -11 15 -16z m-603 -69 c-1 -11 -5 -19 -10 -19 -5 0 -6 10 -2 23 6 21
6 21 -9 3 -14 -17 -16 -18 -16 -3 0 9 -7 17 -16 17 -11 0 -14 5 -10 16 3 9 6
23 6 32 1 12 9 7 30 -17 16 -18 28 -42 27 -52z m-127 56 c7 -8 8 -15 3 -15 -6
0 -8 -12 -5 -26 3 -19 1 -25 -7 -20 -6 4 -11 18 -11 32 0 14 -4 22 -10 19 -6
-3 -7 1 -4 9 8 20 18 20 34 1z m-20 -80 c20 -21 30 -24 55 -19 44 9 48 14 28
31 -16 13 -16 13 6 3 17 -9 20 -15 12 -23 -6 -6 -11 -18 -11 -27 0 -8 -8 -22
-17 -30 -22 -18 -83 -14 -83 5 0 8 -4 17 -10 20 -6 3 -7 -1 -4 -10 4 -10 2
-15 -7 -13 -8 2 -14 -4 -14 -12 0 -18 88 -43 123 -35 12 3 22 1 22 -5 0 -5 -5
-10 -12 -10 -6 0 -3 -7 8 -15 10 -8 15 -15 10 -15 -5 0 -3 -6 3 -14 10 -12 8
-13 -9 -9 -12 3 -24 12 -27 19 -3 8 -13 14 -22 14 -9 0 -24 7 -34 14 -10 8
-31 12 -48 9 -17 -2 -37 1 -44 7 -8 7 -18 9 -24 6 -14 -9 -41 4 -41 21 0 8 5
11 13 7 6 -4 1 5 -12 19 -14 15 -32 27 -40 27 -14 0 -14 2 -1 9 8 6 18 7 22 5
4 -3 5 2 2 10 -4 9 -1 16 6 16 8 0 11 -9 8 -23 -3 -13 0 -24 6 -25 6 0 28 -5
48 -10 20 -5 39 -7 42 -4 11 10 6 19 -11 19 -48 -1 -73 4 -73 13 0 5 7 7 16 3
13 -5 15 -2 9 18 -7 21 -6 22 9 10 14 -12 16 -11 16 3 0 10 5 14 10 11 6 -4 8
-11 5 -16 -4 -5 -1 -9 5 -9 7 0 9 7 6 16 -3 9 -6 18 -6 20 0 2 -9 4 -21 4 -11
0 -18 4 -14 9 3 6 14 8 25 6 11 -2 19 -1 19 3 -4 23 4 23 15 0 6 -15 23 -39
36 -53z m1004 59 c3 -8 2 -12 -4 -9 -6 3 -10 10 -10 16 0 14 7 11 14 -7z
m-1134 -4 c0 -5 -4 -10 -10 -10 -5 0 -10 5 -10 10 0 6 5 10 10 10 6 0 10 -4
10 -10z m-190 -30 c-6 -11 -13 -20 -16 -20 -2 0 0 9 6 20 6 11 13 20 16 20 2
0 0 -9 -6 -20z m1130 -21 c0 -6 -4 -7 -10 -4 -5 3 -10 11 -10 16 0 6 5 7 10 4
6 -3 10 -11 10 -16z m200 6 c0 -8 -2 -15 -4 -15 -2 0 -6 7 -10 15 -3 8 -1 15
4 15 6 0 10 -7 10 -15z m-310 -9 c0 -3 -4 -8 -10 -11 -5 -3 -10 -1 -10 4 0 6
5 11 10 11 6 0 10 -2 10 -4z m-1020 -30 c0 -3 -4 -8 -10 -11 -5 -3 -10 -1 -10
4 0 6 5 11 10 11 6 0 10 -2 10 -4z m154 -42 c25 -24 19 -37 -8 -17 -13 10 -22
21 -19 26 6 10 10 9 27 -9z m-116 -22 c3 -20 1 -21 -22 -11 -28 13 -33 25 -13
32 20 9 32 2 35 -21z m922 17 c0 -5 -6 -7 -12 -3 -10 6 -10 4 0 -7 13 -14 16
-39 4 -39 -12 0 -33 40 -27 50 8 13 35 13 35 -1z m-44 -33 c10 -10 11 -17 3
-22 -8 -5 -8 -9 1 -14 9 -5 8 -9 -2 -13 -8 -3 -15 0 -16 6 0 7 -4 22 -7 35 -8
25 0 28 21 8z m-722 -27 c-4 -8 -1 -8 13 -1 16 9 19 8 18 -8 -1 -23 -15 -40
-15 -20 0 8 -12 2 -30 -15 -29 -28 -30 -28 -30 -7 0 12 6 21 12 20 7 -2 14 7
16 20 2 12 8 22 13 22 6 0 7 -5 3 -11z m81 -59 c4 -6 -8 -10 -29 -10 -19 0
-37 -6 -39 -12 -4 -8 -6 -7 -6 4 -1 25 60 40 74 18z m216 -8 c-7 -2 -18 1 -23
6 -8 8 -4 9 13 5 13 -4 18 -8 10 -11z m-181 -27 c7 -9 10 -18 6 -22 -3 -3 -6
-2 -6 3 0 5 -14 9 -32 9 -17 0 -33 6 -35 13 -7 18 52 15 67 -3z m200 -35 c0
-5 -4 -10 -10 -10 -5 0 -10 5 -10 10 0 6 5 10 10 10 6 0 10 -4 10 -10z m-285
-10 c-4 -6 8 -10 29 -10 25 0 36 -4 36 -15 0 -8 -9 -15 -20 -15 -11 0 -20 -7
-20 -15 0 -8 -6 -15 -12 -15 -9 0 -8 -3 2 -10 10 -6 21 -4 34 8 11 10 16 11
11 3 -4 -8 -2 -17 6 -22 18 -11 5 -21 -27 -21 -26 0 -27 -1 -9 -14 10 -8 16
-14 12 -14 -4 0 2 -9 12 -19 13 -13 17 -27 14 -41 -4 -16 -8 -18 -14 -9 -4 7
-5 17 -2 22 7 12 -46 61 -85 76 -18 8 -31 16 -28 18 2 2 0 20 -4 39 -7 31 -6
34 15 34 12 0 28 7 35 15 14 17 24 20 15 5z m285 -52 c0 -4 -5 -8 -12 -8 -6 0
-8 3 -5 6 3 4 2 16 -4 28 -10 20 -10 20 5 2 9 -11 16 -23 16 -28z m992 31 c16
-9 18 -13 7 -20 -14 -8 -39 6 -39 22 0 12 7 11 32 -2z m84 -11 c10 -12 13 -18
7 -14 -16 9 -17 -6 -2 -21 8 -8 5 -13 -10 -17 -23 -6 -31 -7 -30 -3 0 1 -5 16
-11 32 -9 24 -9 28 1 18 19 -19 31 -16 24 7 -8 26 -3 25 21 -2z m-1178 -30
c-2 -6 -14 -18 -26 -26 -20 -13 -22 -13 -22 2 0 9 8 16 21 16 11 0 17 5 14 10
-3 6 -1 10 5 10 7 0 10 -5 8 -12z m32 2 c0 -5 -5 -10 -11 -10 -5 0 -7 5 -4 10
3 6 8 10 11 10 2 0 4 -4 4 -10z m80 -26 c0 -2 -9 -4 -20 -4 -11 0 -20 4 -20 9
0 5 9 7 20 4 11 -3 20 -7 20 -9z m130 -10 c0 -2 -7 -4 -15 -4 -8 0 -15 4 -15
10 0 5 7 7 15 4 8 -4 15 -8 15 -10z m-260 -39 c0 -19 4 -23 18 -19 14 5 15 4
2 -5 -23 -16 -27 -14 -32 19 -3 17 -1 30 4 30 4 0 8 -11 8 -25z m474 -1 c21
-21 20 -34 -3 -34 -12 0 -20 9 -23 25 -6 29 4 32 26 9z m-217 -36 c-3 -8 -6
-5 -6 6 -1 11 2 17 5 13 3 -3 4 -12 1 -19z m-21 -12 c2 -13 1 -13 -3 -1 -2 8
-9 13 -14 10 -5 -4 -9 -1 -9 5 0 18 25 5 26 -14z m359 14 c3 -5 -3 -10 -14
-10 -11 0 -23 5 -26 10 -3 6 3 10 14 10 11 0 23 -4 26 -10z m465 0 c0 -5 -7
-7 -15 -4 -8 4 -15 8 -15 10 0 2 7 4 15 4 8 0 15 -4 15 -10z m-860 -16 c0 -8
-5 -12 -10 -9 -6 4 -8 11 -5 16 9 14 15 11 15 -7z m430 6 c0 -5 -5 -10 -11
-10 -5 0 -7 5 -4 10 3 6 8 10 11 10 2 0 4 -4 4 -10z m-460 -55 c-20 -24 -40
-18 -40 13 0 39 8 44 33 22 17 -16 18 -22 7 -35z m985 47 c17 -12 15 -27 -6
-40 -19 -12 -19 -11 -9 9 10 17 9 23 -1 30 -8 5 -9 9 -4 9 6 0 15 -4 20 -8z
m-465 -18 c0 -2 -7 -4 -15 -4 -8 0 -15 4 -15 10 0 5 7 7 15 4 8 -4 15 -8 15
-10z m-702 -9 c-2 -5 -8 -10 -15 -11 -6 -1 -9 4 -6 12 6 16 27 15 21 -1z m62
0 c0 -8 -2 -15 -4 -15 -2 0 -6 7 -10 15 -3 8 -1 15 4 15 6 0 10 -7 10 -15z
m344 -27 c-3 -4 -2 -8 3 -7 13 3 43 -12 43 -23 0 -5 -10 -9 -22 -8 -13 1 -26
2 -30 1 -17 -2 -21 5 -24 42 -2 37 -2 38 17 22 10 -10 16 -22 13 -27z m426 21
c0 -6 -4 -7 -10 -4 -5 3 -10 11 -10 16 0 6 5 7 10 4 6 -3 10 -11 10 -16z
m-894 -36 c-11 -11 -17 4 -9 23 7 18 8 18 11 1 2 -10 1 -21 -2 -24z m381 -13
c7 -19 10 -36 8 -39 -3 -2 3 -10 13 -17 9 -8 12 -14 5 -14 -6 0 -15 5 -18 10
-5 8 -11 7 -21 -1 -20 -16 -18 -4 3 17 15 15 15 18 2 28 -19 14 -31 56 -16 53
6 -1 17 -18 24 -37z m467 26 c-3 -8 4 -16 18 -21 l23 -7 -25 -7 c-14 -4 -32
-6 -42 -3 -14 3 -14 7 5 28 24 27 29 30 21 10z m-604 -36 c0 -14 -20 -22 -36
-16 -12 5 -13 8 -2 20 13 14 38 11 38 -4z m170 10 c0 -5 -4 -10 -10 -10 -5 0
-10 5 -10 10 0 6 5 10 10 10 6 0 10 -4 10 -10z m-400 -39 c0 -5 -10 -11 -22
-13 -16 -2 -22 -9 -20 -20 3 -20 -13 -24 -24 -6 -4 6 3 19 16 30 24 19 50 24
50 9z m136 -19 c8 -12 11 -22 5 -22 -5 0 -14 8 -20 17 -7 14 -12 15 -24 5 -8
-7 -13 -21 -10 -31 3 -13 -5 -24 -26 -37 -17 -10 -31 -21 -31 -24 0 -4 -6 -7
-14 -7 -7 0 -13 5 -12 11 3 23 17 34 36 29 26 -7 25 4 -2 26 -13 12 -18 22
-13 31 6 10 11 9 21 -5 11 -15 16 -16 29 -5 9 7 14 19 11 26 -9 22 33 10 50
-14z m124 13 c0 -8 -2 -15 -4 -15 -2 0 -6 7 -10 15 -3 8 -1 15 4 15 6 0 10 -7
10 -15z m56 -10 c3 -17 -12 -20 -21 -5 -7 12 4 34 13 25 3 -3 7 -12 8 -20z
m-325 -28 c-10 -9 -11 -8 -5 6 3 10 9 15 12 12 3 -3 0 -11 -7 -18z m138 -6 c8
-5 9 -11 3 -15 -5 -3 -15 1 -22 9 -14 16 -3 20 19 6z m249 -22 c-3 -8 -7 -3
-11 10 -4 17 -3 21 5 13 5 -5 8 -16 6 -23z m-64 -30 c-3 -5 -10 -7 -15 -4 -5
4 -9 1 -9 -5 0 -6 -4 -8 -10 -5 -5 3 -10 17 -10 31 0 24 1 24 25 8 14 -9 22
-20 19 -25z m-129 21 c-3 -5 -2 -10 3 -10 16 0 21 -38 8 -56 -11 -15 -14 -15
-28 0 -9 9 -22 16 -28 16 -6 0 1 13 17 30 29 30 39 37 28 20z m75 -60 c9 -16
5 -22 -25 -36 -19 -9 -35 -22 -35 -29 0 -6 -9 -20 -20 -30 -10 -9 -24 -32 -30
-50 -14 -44 -38 -42 -38 4 0 20 5 43 11 51 6 8 7 12 3 8 -5 -4 -15 0 -22 10
-9 13 -9 19 -1 24 8 5 6 8 -5 8 -21 0 -24 15 -6 26 25 16 50 11 58 -12 12 -32
47 -20 67 22 17 35 26 36 43 4z m290 0 c0 -5 -4 -10 -10 -10 -5 0 -10 5 -10
10 0 6 5 10 10 10 6 0 10 -4 10 -10z m4017 -16 c-3 -3 -12 -4 -19 -1 -8 3 -5
6 6 6 11 1 17 -2 13 -5z m-4491 -36 c6 -9 -12 -27 -27 -28 -4 0 -9 11 -11 24
-4 19 -1 22 14 18 10 -2 21 -9 24 -14z m227 0 c3 -8 -5 -14 -20 -14 -19 -2
-22 1 -12 12 14 17 25 18 32 2z m-215 -47 c3 -8 -1 -12 -9 -9 -7 2 -15 10 -17
17 -3 8 1 12 9 9 7 -2 15 -10 17 -17z m5420 -91 c39 -11 121 -64 177 -115 22
-20 72 -61 112 -91 41 -32 78 -70 87 -89 28 -58 66 -95 174 -166 130 -86 132
-88 187 -98 54 -10 72 0 118 69 18 26 69 88 114 137 45 49 91 101 103 116 32
41 100 76 178 92 96 20 119 10 88 -38 -55 -85 -81 -294 -40 -324 10 -7 19 -23
21 -35 2 -12 10 -29 18 -38 14 -15 12 -21 -14 -58 -17 -22 -37 -44 -44 -49
-46 -26 -157 -201 -157 -246 0 -9 -17 -49 -37 -89 -35 -70 -37 -78 -42 -205
-5 -107 -9 -136 -23 -150 -15 -14 -42 -18 -165 -21 -82 -2 -172 -3 -202 -2
-38 0 -86 -11 -170 -40 -64 -22 -163 -48 -221 -59 -58 -10 -121 -25 -141 -34
l-36 -15 -7 -78 c-10 -113 -17 -144 -30 -144 -21 0 -62 53 -74 95 -6 22 -18
49 -25 60 -14 18 -16 18 -40 2 -40 -26 -66 -58 -87 -104 -21 -48 -23 -49 -44
-27 -14 14 -14 18 3 42 13 19 21 53 25 113 9 112 -1 123 -114 125 -92 2 -138
26 -167 86 -10 21 -23 38 -29 38 -6 0 -17 7 -24 15 -10 12 -7 20 19 44 34 32
85 46 203 56 l66 6 17 42 c11 26 17 67 16 107 0 53 5 77 29 127 17 34 30 66
30 71 0 5 -14 40 -31 78 -56 123 -75 214 -45 214 8 0 36 -22 62 -50 49 -51 83
-64 85 -32 4 44 -4 105 -26 192 -36 142 -57 309 -46 367 14 71 21 84 55 99 38
16 51 17 94 4z m-5376 -27 c-10 -4 -10 -8 -1 -19 8 -9 8 -14 1 -14 -15 0 -25
18 -17 30 3 6 12 10 18 9 8 0 8 -2 -1 -6z m323 -33 c3 -5 1 -10 -4 -10 -6 0
-11 5 -11 10 0 6 2 10 4 10 3 0 8 -4 11 -10z m-321 -31 c3 1 6 -1 6 -4 0 -3 0
-10 0 -17 0 -6 -8 -3 -19 8 -10 10 -16 23 -13 28 2 4 8 3 12 -4 4 -6 10 -11
14 -11z m196 -3 c0 -3 -4 -8 -10 -11 -5 -3 -10 -1 -10 4 0 6 5 11 10 11 6 0
10 -2 10 -4z m110 0 c0 -3 -4 -8 -10 -11 -5 -3 -10 -1 -10 4 0 6 5 11 10 11 6
0 10 -2 10 -4z m-367 -56 c-4 -14 0 -20 11 -20 10 0 13 -6 10 -15 -7 -17 -3
-18 20 -9 23 9 20 29 -6 47 -22 16 -22 16 10 6 18 -6 39 -8 48 -5 8 3 12 2 9
-4 -3 -6 -1 -10 4 -10 6 0 11 5 11 10 0 7 7 7 20 0 11 -6 18 -15 15 -19 -2 -5
6 -16 19 -25 20 -13 26 -13 36 -2 8 11 8 16 -2 20 -7 3 -3 4 10 2 14 -3 22 1
22 10 0 22 27 28 60 14 24 -10 33 -10 45 0 8 7 15 9 16 4 0 -5 2 -26 5 -47 2
-23 0 -36 -6 -32 -10 6 -13 -5 -11 -41 2 -16 -5 -23 -26 -27 -35 -7 -53 4 -25
14 22 8 31 39 12 39 -5 0 -7 -7 -4 -15 8 -19 -3 -19 -22 -1 -11 11 -11 16 -1
19 7 3 5 6 -5 6 -9 1 -20 -4 -24 -10 -4 -8 -9 -7 -15 2 -7 11 -9 11 -9 1 0 -8
-5 -10 -12 -6 -6 4 -4 -3 5 -17 21 -29 21 -36 2 -36 -8 0 -12 4 -9 9 3 5 0 16
-7 24 -10 12 -14 12 -22 2 -6 -9 -7 -7 -3 6 4 11 1 23 -6 28 -11 6 -10 8 0 8
7 0 11 4 8 9 -3 5 -25 7 -47 5 -37 -3 -40 -2 -28 13 12 14 11 15 -11 8 -34
-10 -49 -25 -25 -25 15 0 16 -3 7 -12 -10 -10 -15 -10 -22 2 -10 16 -38 20
-57 7 -6 -4 -14 -4 -17 1 -4 7 -1 56 4 72 2 3 2 9 1 13 -1 5 3 6 8 3 5 -3 7
-15 4 -26z m421 -18 c-12 -18 -26 -20 -32 -3 -2 6 3 8 12 5 17 -7 22 11 6 21
-5 3 -10 11 -10 18 0 6 8 4 17 -6 14 -13 15 -21 7 -35z m281 29 c3 -5 1 -12
-5 -16 -5 -3 -10 1 -10 9 0 18 6 21 15 7z m82 -23 c-3 -8 -6 -5 -6 6 -1 11 2
17 5 13 3 -3 4 -12 1 -19z m413 2 c0 -5 6 -7 13 -5 16 6 103 -49 117 -75 14
-26 6 -25 -23 3 -34 34 -75 60 -85 53 -6 -3 -15 1 -22 9 -11 13 -14 13 -26 -2
-12 -16 -13 -16 -14 -1 0 15 12 25 33 27 4 1 7 -3 7 -9z m-500 -10 c12 -8 11
-10 -7 -10 -13 0 -23 5 -23 10 0 13 11 13 30 0z m425 -20 c3 -5 1 -10 -4 -10
-6 0 -11 5 -11 10 0 6 2 10 4 10 3 0 8 -4 11 -10z m-355 -25 c7 -9 8 -15 2
-15 -5 0 -12 7 -16 15 -3 8 -4 15 -2 15 2 0 9 -7 16 -15z m67 -36 c-3 -10 -1
-19 4 -19 19 0 8 -32 -18 -56 -16 -14 -21 -22 -13 -18 13 7 13 5 1 -9 -14 -18
-36 -24 -26 -7 3 6 -1 10 -9 10 -9 0 -16 -5 -16 -11 0 -5 -5 -7 -11 -3 -6 3
-9 14 -6 24 3 12 -2 20 -14 23 -11 3 -19 1 -19 -4 0 -5 -5 -9 -11 -9 -7 0 -8
7 -4 18 4 9 8 26 10 36 2 24 40 39 76 31 15 -3 30 -1 34 4 3 6 1 11 -4 11 -6
0 -11 5 -11 10 0 7 7 7 21 -1 14 -7 19 -17 16 -30z m321 -11 c11 -9 31 -12 57
-8 33 4 43 1 57 -17 11 -13 25 -19 37 -16 13 3 25 -3 36 -21 10 -14 22 -23 28
-19 5 3 8 2 5 -3 -9 -15 10 -54 27 -54 8 0 15 -5 15 -11 0 -5 4 -7 10 -4 12 7
60 -42 60 -61 0 -8 4 -14 9 -14 5 0 8 -15 7 -34 -1 -19 1 -34 4 -34 22 2 30
-5 30 -27 0 -15 6 -25 14 -25 8 0 18 -5 22 -12 5 -7 3 -8 -6 -3 -8 5 -11 3 -8
-6 3 -8 12 -15 21 -17 20 -4 24 37 5 56 -9 9 -9 12 -1 12 13 0 28 -19 28 -35
0 -5 7 -10 15 -10 8 -1 13 -7 11 -15 -2 -8 -4 -21 -4 -27 0 -7 -11 -13 -24
-13 -12 0 -23 -4 -23 -10 0 -5 9 -10 19 -10 16 0 27 -19 35 -60 1 -3 5 -10 9
-17 4 -6 3 -14 -1 -17 -5 -3 -14 6 -20 19 -7 14 -17 25 -25 25 -7 0 -26 26
-42 57 -17 32 -36 64 -43 71 -7 8 -10 22 -7 30 3 9 3 13 -1 10 -12 -12 -33 19
-27 40 4 17 1 21 -16 17 -12 -2 -19 0 -17 4 6 10 -93 116 -116 124 -10 4 -18
17 -19 29 0 22 -1 22 -9 3 -5 -11 -9 -15 -9 -10 -1 6 -13 11 -27 12 -15 0 -30
7 -35 15 -7 10 -9 10 -9 -2 0 -13 -2 -13 -9 -1 -5 8 -21 15 -37 17 -15 2 -30
7 -33 13 -8 13 -77 -3 -74 -17 2 -6 -4 -9 -11 -6 -8 3 -12 12 -10 19 6 15 0
20 -38 29 -17 4 -28 2 -28 -4 0 -5 8 -10 18 -10 14 0 14 -2 3 -9 -21 -13 -75
40 -67 65 5 18 13 19 102 12 56 -4 103 -12 112 -20z m-774 6 c3 -8 2 -12 -4
-9 -6 3 -10 10 -10 16 0 14 7 11 14 -7z m-364 -22 c0 -15 -2 -15 -10 -2 -13
20 -13 33 0 25 6 -3 10 -14 10 -23z m-36 6 c-4 -6 1 -17 11 -25 14 -9 16 -16
8 -24 -17 -17 -32 -2 -29 29 4 32 4 32 12 32 3 0 2 -5 -2 -12z m286 -8 c-6
-11 -12 -20 -14 -20 -2 0 -2 9 1 20 3 11 9 20 15 20 5 0 4 -9 -2 -20z m253
-17 c-19 -7 -16 -20 7 -26 28 -7 25 -25 -6 -33 -19 -5 -29 -2 -36 10 -5 9 -13
14 -18 11 -4 -3 -6 4 -3 14 3 11 11 17 18 15 7 -3 16 -1 20 5 3 6 12 11 18 10
9 0 9 -2 0 -6z m-268 -32 c33 -19 41 -47 13 -45 -10 1 -16 -2 -13 -6 3 -4 -2
-11 -10 -14 -10 -3 -18 1 -22 11 -4 9 -1 19 5 21 7 2 12 8 12 14 0 10 -37 7
-86 -7 -18 -6 -22 -2 -26 25 l-5 31 51 -6 c28 -4 65 -15 81 -24z m765 -18 c13
3 35 0 49 -7 14 -7 58 -21 96 -30 39 -10 84 -28 102 -42 17 -13 36 -24 41 -24
23 0 79 -37 119 -79 42 -44 93 -137 93 -170 0 -9 6 -27 13 -41 19 -36 27 -70
16 -70 -5 0 -9 5 -9 11 0 8 -5 7 -15 -1 -9 -7 -19 -10 -22 -6 -4 4 -1 11 6 15
9 6 10 11 2 15 -6 4 -11 2 -11 -4 0 -7 -6 -8 -19 -1 -10 6 -21 8 -24 5 -3 -3
-8 -1 -12 5 -3 6 1 11 9 11 9 0 16 5 16 11 0 5 5 7 10 4 6 -3 10 -2 10 4 0 16
-71 60 -86 54 -8 -3 -14 0 -14 7 0 7 8 10 20 7 16 -4 20 0 20 17 0 12 -5 27
-12 34 -7 7 -8 12 -4 12 5 0 3 6 -3 14 -8 10 -23 13 -45 9 -27 -4 -35 -1 -51
23 -10 16 -18 34 -18 41 0 16 -13 17 -22 2 -5 -7 -14 -4 -28 8 -11 10 -17 12
-13 6 11 -20 -5 -15 -20 4 -14 20 -30 12 -20 -9 17 -33 34 -60 51 -78 10 -11
15 -23 12 -26 -9 -9 -37 15 -37 31 0 7 -9 15 -19 18 -11 3 -22 17 -26 36 -7
31 -28 38 -32 10 -8 -60 -15 -89 -23 -89 -5 0 -7 6 -4 14 3 7 -2 29 -10 47 -8
20 -15 27 -15 17 -1 -10 -5 -18 -11 -18 -16 0 -50 38 -50 56 0 8 -5 25 -11 36
-11 21 -12 21 -23 -7 -10 -24 -13 -26 -19 -12 -3 9 -2 17 4 17 25 0 -3 16 -33
18 -41 3 -78 27 -78 51 0 30 31 84 42 73 6 -6 17 -8 24 -5 8 3 14 0 14 -6 0
-6 5 -11 10 -11 7 0 7 8 -1 23 -8 16 -4 14 13 -7 19 -22 30 -28 48 -23z m-984
18 c22 18 16 -6 -6 -26 -11 -10 -20 -13 -20 -7 0 7 -8 12 -17 12 -15 0 -14 2
3 14 11 8 21 10 22 5 3 -6 10 -5 18 2z m1480 -86 c12 -23 12 -26 1 -12 -8 9
-19 17 -26 17 -6 0 -11 7 -11 15 0 8 -4 15 -9 15 -5 0 -11 12 -14 28 l-5 27
24 -30 c14 -16 32 -43 40 -60z m-949 49 c-3 -3 -12 -4 -19 -1 -8 3 -5 6 6 6
11 1 17 -2 13 -5z m-187 -14 c0 -5 -9 -10 -20 -10 -11 0 -20 5 -20 10 0 6 9
10 20 10 11 0 20 -4 20 -10z m347 -30 c2 -22 -12 -34 -28 -25 -7 5 -4 14 7 26
21 23 19 23 21 -1z m102 -17 c-2 -31 -3 -33 -6 -10 -5 34 -23 36 -23 1 0 -14
-4 -23 -9 -20 -8 5 -8 27 -1 46 1 3 2 8 1 13 0 4 8 7 19 7 17 0 20 -6 19 -37z
m121 -67 c0 -6 -7 -3 -15 8 -7 10 -18 15 -23 12 -11 -7 -24 19 -15 28 8 8 53
-34 53 -48z m623 -22 c15 -30 23 -54 17 -54 -11 0 -43 46 -47 68 -1 9 -9 19
-17 24 -22 12 -20 27 2 21 9 -2 29 -29 45 -59z m-1163 -11 c0 -8 5 -11 10 -8
6 3 10 1 10 -5 0 -7 -7 -9 -16 -6 -9 3 -22 6 -29 6 -8 0 -19 10 -26 21 -8 15
-8 19 0 15 6 -4 11 0 11 10 0 16 1 16 20 -1 11 -10 20 -24 20 -32z m45 20 c14
-15 25 -32 25 -36 0 -19 -36 -54 -50 -48 -19 7 -25 33 -8 30 32 -4 36 0 25 26
-7 14 -17 25 -23 25 -6 0 -17 7 -24 15 -24 29 27 17 55 -12z m-339 8 c-4 -5 0
-11 6 -14 7 -3 3 -4 -9 -4 -17 1 -19 4 -11 14 12 15 22 18 14 4z m219 -41 c-5
-8 -11 -8 -21 1 -12 10 -12 14 -2 20 16 10 33 -5 23 -21z m215 11 c0 -6 -5
-13 -10 -16 -7 -4 -7 -13 0 -26 6 -10 8 -19 5 -19 -27 0 -47 -20 -42 -42 4
-14 2 -16 -13 -8 -26 14 -26 13 -24 -17 2 -39 3 -40 18 -20 13 16 14 15 11
-18 -4 -40 -15 -58 -22 -37 -3 6 -9 12 -15 12 -6 0 -4 -8 5 -18 18 -19 24 -82
8 -82 -12 0 -25 31 -22 50 2 8 0 12 -4 9 -10 -11 -15 -70 -5 -64 6 4 10 1 10
-5 0 -6 -6 -13 -14 -16 -8 -3 -12 -12 -9 -20 4 -10 -3 -14 -22 -14 -17 0 -24
-4 -19 -12 4 -7 3 -8 -4 -4 -13 8 2 46 18 46 5 0 -3 20 -17 45 -13 25 -31 45
-39 45 -9 0 -13 -4 -9 -9 7 -12 -21 -19 -65 -15 -19 1 -42 3 -51 3 -9 1 -19 8
-23 16 -5 13 -2 14 15 4 19 -9 20 -8 14 10 -4 13 -2 21 5 21 6 0 8 5 5 10 -3
6 -2 10 3 10 6 0 13 -8 16 -17 6 -15 8 -15 16 -3 7 12 12 12 22 2 6 -6 17 -12
23 -12 5 1 1 8 -10 18 -25 21 -32 77 -10 85 17 7 32 -12 18 -22 -5 -3 -12 -14
-16 -23 -4 -13 -1 -16 16 -13 23 5 57 -20 57 -41 0 -8 6 -11 15 -7 9 3 21 -2
28 -11 12 -16 13 -16 14 1 3 47 8 63 18 60 5 -3 10 6 10 19 0 13 0 24 -1 24
-1 0 -11 -9 -23 -19 -13 -11 -18 -22 -12 -25 6 -4 8 -13 5 -21 -5 -12 -9 -11
-23 6 -9 11 -26 21 -38 22 -13 1 -23 8 -23 15 0 9 7 13 18 10 11 -3 25 5 37
20 16 22 16 25 2 19 -19 -7 -23 8 -6 19 16 10 30 -18 17 -33 -6 -8 -9 -15 -7
-18 7 -7 24 8 49 45 13 19 25 37 27 39 1 2 9 -1 16 -8 11 -9 17 -8 26 3 9 11
8 15 -4 20 -25 9 -18 36 10 36 14 0 25 -4 25 -9z m720 -27 c0 -7 8 -15 18 -18
10 -3 18 -15 19 -25 1 -13 -3 -18 -12 -14 -8 2 -13 10 -12 16 1 6 -3 11 -10
12 -16 0 -19 5 -27 39 -6 26 -5 28 8 17 9 -8 16 -19 16 -27z m-1169 3 c-10 -9
-11 -8 -5 6 3 10 9 15 12 12 3 -3 0 -11 -7 -18z m469 4 c0 -6 -4 -13 -10 -16
-5 -3 -10 1 -10 9 0 9 5 16 10 16 6 0 10 -4 10 -9z m-486 -58 c-17 -18 -19
-17 -20 16 -1 26 0 27 15 12 13 -13 14 -19 5 -28z m306 23 c0 -7 -11 -16 -25
-18 -16 -4 -25 -1 -25 8 0 7 10 15 23 17 12 2 23 5 25 6 1 0 2 -5 2 -13z
m-246 -17 c-3 -6 2 -19 12 -30 19 -21 16 -33 -4 -20 -7 4 -14 22 -17 39 -2 19
0 30 6 26 5 -3 7 -10 3 -15z m926 -15 c0 -24 -18 -29 -32 -9 -14 19 -8 28 9
14 15 -13 16 -12 11 9 -4 12 -2 20 3 16 5 -3 9 -16 9 -30z m94 10 c3 -8 2 -12
-4 -9 -6 3 -10 10 -10 16 0 14 7 11 14 -7z m60 -25 c14 -12 16 -17 6 -15 -33
4 -51 22 -44 41 6 14 9 15 12 5 3 -8 15 -22 26 -31z m-309 1 c3 -5 2 -10 -4
-10 -5 0 -13 5 -16 10 -3 6 -2 10 4 10 5 0 13 -4 16 -10z m485 0 c0 -5 -2 -10
-4 -10 -3 0 -8 5 -11 10 -3 6 -1 10 4 10 6 0 11 -4 11 -10z m-1196 -38 c-6
-20 -24 -32 -24 -14 1 23 14 52 21 45 5 -5 6 -18 3 -31z m832 0 c8 -12 20 -19
27 -16 16 6 54 -33 43 -43 -4 -4 -11 -1 -15 6 -7 10 -10 9 -16 -8 -8 -25 -27
-27 -49 -5 -12 12 -14 20 -5 36 13 25 8 30 -32 32 -18 1 -34 6 -36 12 -7 21
67 8 83 -14z m229 -1 c-9 -16 -25 -3 -18 15 4 10 9 12 15 6 6 -6 7 -15 3 -21z
m-1135 -16 c0 -7 6 -15 13 -18 6 -2 9 -8 4 -13 -4 -4 -14 2 -23 14 -8 12 -20
20 -25 17 -5 -3 -6 1 -3 9 7 17 34 10 34 -9z m798 -6 c2 -10 -5 -19 -17 -22
-25 -6 -30 -1 -24 24 6 23 36 22 41 -2z m206 -5 c11 -28 6 -34 -12 -16 -11 9
-17 20 -15 25 7 12 21 8 27 -9z m-1054 -8 c0 -3 -4 -8 -10 -11 -5 -3 -10 -1
-10 4 0 6 5 11 10 11 6 0 10 -2 10 -4z m135 -14 c-3 -3 -11 0 -18 7 -9 10 -8
11 6 5 10 -3 15 -9 12 -12z m1055 4 c0 -3 -4 -8 -10 -11 -5 -3 -10 -1 -10 4 0
6 5 11 10 11 6 0 10 -2 10 -4z m124 -25 c-7 -8 -35 9 -29 19 4 6 11 5 20 -3 7
-6 11 -14 9 -16z m-386 7 c17 -17 15 -31 -2 -25 -10 4 -13 1 -9 -9 6 -17 -8
-19 -25 -2 -9 9 -12 9 -12 0 0 -23 -15 -12 -16 12 -2 32 41 47 64 24z m-435
-33 c-3 -9 -8 -14 -10 -11 -3 3 -2 9 2 15 9 16 15 13 8 -4z m570 -12 c7 -16
18 -27 23 -26 13 2 16 -35 3 -42 -5 -4 -9 1 -9 10 0 9 -12 32 -26 51 -15 19
-22 34 -16 34 6 0 17 -12 25 -27z m157 13 c0 -11 -19 -15 -25 -6 -3 5 1 10 9
10 9 0 16 -2 16 -4z m-1115 -16 c3 -5 1 -10 -4 -10 -6 0 -11 5 -11 10 0 6 2
10 4 10 3 0 8 -4 11 -10z m1198 -5 c-3 -9 -8 -14 -10 -11 -3 3 -2 9 2 15 9 16
15 13 8 -4z m247 -16 c0 -6 -4 -7 -10 -4 -5 3 -10 11 -10 16 0 6 5 7 10 4 6
-3 10 -11 10 -16z m-823 -15 c-9 -9 -28 6 -21 18 4 6 10 6 17 -1 6 -6 8 -13 4
-17z m539 -1 c-10 -10 -19 5 -10 18 6 11 8 11 12 0 2 -7 1 -15 -2 -18z m109
16 c11 -17 0 -20 -21 -4 -17 13 -17 14 -2 15 9 0 20 -5 23 -11z m-1236 -20
c-16 -10 -23 -4 -14 10 3 6 11 8 17 5 6 -4 5 -9 -3 -15z m1461 -33 c0 -24 -2
-27 -15 -16 -15 13 -20 51 -8 63 10 11 23 -15 23 -47z m-1213 -8 c-3 -7 -5 -2
-5 12 0 14 2 19 5 13 2 -7 2 -19 0 -25z m742 3 c-3 -6 -10 -7 -18 -2 -7 5 -10
14 -6 21 9 14 29 -2 24 -19z m-929 4 c0 -8 -2 -15 -4 -15 -2 0 -6 7 -10 15 -3
8 -1 15 4 15 6 0 10 -7 10 -15z m800 -15 c0 -10 5 -22 10 -25 6 -3 10 -13 10
-21 0 -9 -5 -12 -12 -8 -8 5 -9 2 -4 -11 5 -15 4 -16 -8 -6 -10 8 -16 9 -21 1
-10 -16 -28 -12 -21 5 3 8 1 15 -4 15 -6 0 -5 11 2 25 7 16 14 21 18 14 11
-17 22 5 13 27 -4 12 -3 15 5 10 7 -4 12 -16 12 -26z m80 -14 c0 -18 -16 -29
-30 -21 -6 4 -5 11 3 20 16 18 27 19 27 1z m487 8 c-3 -3 -12 -4 -19 -1 -8 3
-5 6 6 6 11 1 17 -2 13 -5z m-1480 -29 c-4 -8 -18 -15 -34 -15 l-28 0 30 19
c33 20 40 19 32 -4z m103 21 c0 -3 -4 -8 -10 -11 -5 -3 -10 -1 -10 4 0 6 5 11
10 11 6 0 10 -2 10 -4z m1250 -24 c0 -15 -2 -15 -10 -2 -13 20 -13 33 0 25 6
-3 10 -14 10 -23z m117 11 c-4 -3 1 -11 10 -18 22 -16 24 -56 4 -79 -10 -13
-11 -17 -2 -11 11 6 12 -4 7 -61 -11 -109 -18 -121 -50 -88 -20 19 -20 28 -2
43 9 8 14 33 15 72 0 61 5 79 22 79 6 0 7 -5 3 -12 -4 -7 -3 -8 4 -4 9 5 9 12
0 26 -7 10 -16 16 -20 14 -4 -3 -8 6 -8 20 0 14 5 26 12 26 6 0 8 -3 5 -7z
m-1112 -13 c3 -5 -1 -10 -10 -10 -9 0 -13 5 -10 10 3 6 8 10 10 10 2 0 7 -4
10 -10z m822 -12 c-3 -8 -6 -5 -6 6 -1 11 2 17 5 13 3 -3 4 -12 1 -19z m-868
-26 c13 -10 11 -10 -11 -2 -16 5 -28 7 -28 4 0 -3 -5 -2 -12 2 -7 5 -5 11 8
21 15 11 20 11 23 1 2 -7 11 -19 20 -26z m495 12 c3 -8 2 -12 -4 -9 -6 3 -10
10 -10 16 0 14 7 11 14 -7z m586 6 c0 -5 -7 -10 -15 -10 -9 0 -12 -6 -8 -17 4
-9 2 -14 -4 -10 -5 3 -9 -3 -9 -13 1 -11 -3 -19 -9 -19 -5 -1 -10 5 -10 12 0
6 -4 18 -9 26 -6 9 -5 12 1 8 6 -4 18 2 28 13 20 22 35 26 35 10z m-1566 -25
c-6 -16 -24 -21 -24 -7 0 11 11 22 21 22 5 0 6 -7 3 -15z m461 -11 c22 -8 56
-16 75 -17 27 -2 36 -7 38 -23 2 -11 16 -35 32 -52 16 -18 27 -32 25 -32 -13
0 -82 45 -93 61 -7 11 -19 19 -25 19 -7 0 -6 -4 3 -10 23 -15 -7 -32 -33 -18
-10 5 -28 7 -39 5 -14 -4 -22 0 -25 13 -6 22 -30 34 -39 19 -3 -6 -3 -22 0
-37 6 -24 5 -25 -7 -9 -8 9 -19 17 -26 17 -6 0 -11 5 -11 11 0 8 -6 7 -17 -2
-9 -8 -18 -13 -20 -11 -2 1 -17 -10 -33 -27 -25 -24 -27 -30 -13 -35 14 -6 14
-8 -2 -26 -12 -14 -27 -18 -49 -16 -17 2 -41 4 -53 5 -33 1 -28 14 11 32 26
12 38 13 46 5 8 -8 10 -7 5 5 -4 10 -1 20 5 24 8 5 5 13 -9 26 -12 11 -21 24
-21 28 0 11 36 21 73 21 15 0 39 7 53 16 17 12 24 13 22 4 -5 -22 23 -23 29
-1 6 25 40 27 98 5z m1109 -94 c1 -55 -1 -100 -4 -100 -3 0 -11 -13 -18 -30
-16 -36 -34 -38 -55 -7 l-16 22 -1 -30 c-1 -27 -2 -28 -14 -12 -7 9 -22 17
-32 17 -15 0 -16 2 -5 9 12 8 12 12 2 25 -11 13 -11 16 3 16 9 0 16 -7 16 -15
0 -16 25 -21 34 -6 4 5 3 17 -1 27 -6 16 -7 16 -13 0 -5 -15 -8 -14 -29 8
l-24 25 28 -5 c22 -4 26 -2 22 10 -4 9 -3 18 2 20 4 3 14 -10 21 -29 11 -27
16 -32 27 -24 10 9 13 8 13 -2 1 -33 25 29 25 63 0 41 -4 45 -23 26 -18 -18
-15 -1 5 29 10 15 18 31 19 37 0 6 2 17 2 25 1 8 5 11 8 8 4 -3 7 -51 8 -107z
m-1594 86 c9 -12 8 -15 -9 -13 -21 1 -26 8 -14 20 9 9 9 9 23 -7z m1177 -18
c-3 -8 -6 -5 -6 6 -1 11 2 17 5 13 3 -3 4 -12 1 -19z m448 12 c3 -5 2 -10 -4
-10 -5 0 -13 5 -16 10 -3 6 -2 10 4 10 5 0 13 -4 16 -10z m-1477 -22 c2 -4 15
-5 29 -2 23 6 25 5 18 -17 -12 -38 -25 -49 -61 -49 -20 0 -34 5 -34 13 0 6 -5
4 -11 -6 -14 -24 -32 -12 -19 13 5 10 7 26 3 36 -5 14 -2 16 15 12 23 -6 31 7
10 16 -7 3 1 2 17 -1 17 -3 31 -10 33 -15z m7742 -1 c19 -8 54 -29 77 -46 24
-17 47 -31 52 -31 18 0 138 -128 179 -190 56 -86 55 -118 -1 -139 -37 -14
-191 -13 -242 2 -38 12 -44 19 -107 137 -92 170 -104 202 -88 239 12 29 50 51
80 46 8 -1 31 -9 50 -18z m-7222 4 c6 -1 12 -9 12 -20 0 -13 -7 -18 -26 -18
-18 0 -22 3 -15 10 13 13 15 30 2 22 -5 -3 -12 -1 -15 4 -4 5 2 8 11 6 10 -2
24 -4 31 -4z m222 -11 c0 -5 -2 -10 -4 -10 -3 0 -8 5 -11 10 -3 6 -1 10 4 10
6 0 11 -4 11 -10z m-15 -29 c3 -5 1 -12 -5 -16 -5 -3 -10 1 -10 9 0 18 6 21
15 7z m330 -19 c-8 -8 -25 10 -19 20 4 6 9 5 15 -3 4 -7 6 -15 4 -17z m-465
-1 c0 -16 -13 -19 -26 -6 -19 19 -17 24 6 18 11 -3 20 -9 20 -12z m-80 -1 c0
-5 -2 -10 -4 -10 -3 0 -8 5 -11 10 -3 6 -1 10 4 10 6 0 11 -4 11 -10z m30 0
c0 -5 -4 -10 -10 -10 -5 0 -10 5 -10 10 0 6 5 10 10 10 6 0 10 -4 10 -10z
m-310 -10 c0 -5 -2 -10 -4 -10 -3 0 -8 5 -11 10 -3 6 -1 10 4 10 6 0 11 -4 11
-10z m150 0 c0 -5 -2 -10 -4 -10 -3 0 -8 5 -11 10 -3 6 -1 10 4 10 6 0 11 -4
11 -10z m64 -7 c4 -5 12 -9 17 -9 5 -1 11 -2 14 -3 3 0 1 -10 -5 -21 -13 -24
5 -28 18 -4 8 15 12 15 28 3 11 -8 19 -23 19 -33 0 -14 11 -22 40 -31 24 -7
40 -17 39 -26 -1 -11 8 -14 34 -11 30 4 34 2 29 -13 -4 -9 -7 -22 -7 -27 0 -6
-3 -8 -7 -4 -5 4 -8 13 -8 19 0 8 -23 12 -68 12 -46 0 -70 4 -76 14 -6 9 -11
10 -15 2 -5 -8 -13 -8 -26 -1 -10 6 -29 8 -42 6 -30 -5 -59 11 -52 28 3 7 -2
16 -12 20 -14 5 -15 4 -4 -9 10 -12 10 -15 -3 -15 -9 0 -18 4 -21 9 -3 4 -20
11 -37 15 -17 3 -39 16 -49 28 -24 28 -24 34 -4 42 8 3 12 2 9 -4 -6 -9 8 -14
28 -11 5 1 6 -3 2 -8 -3 -6 9 -17 27 -26 31 -14 32 -14 11 1 -23 17 -31 44
-13 44 6 0 10 -8 10 -17 1 -17 1 -17 11 0 7 12 18 16 39 12 23 -4 28 -2 24 10
-5 11 1 15 18 15 14 0 28 -3 32 -7z m960 -26 c-3 -9 -10 -17 -14 -17 -10 0
-22 31 -15 38 3 3 5 0 5 -6 0 -7 5 -12 11 -12 6 0 8 7 4 18 -4 12 -3 14 5 6 6
-6 8 -18 4 -27z m68 -9 c-9 -9 -12 -7 -12 12 0 19 3 21 12 12 9 -9 9 -15 0
-24z m-1252 3 c-1 -19 -20 -29 -57 -28 -39 2 -41 3 -26 19 14 16 83 23 83 9z
m1035 -19 c-6 -7 -34 11 -29 19 3 5 11 3 19 -4 7 -6 12 -13 10 -15z m-1214
-26 c14 8 11 -3 -7 -20 -24 -24 -35 -19 -22 10 7 15 14 21 16 15 2 -6 8 -9 13
-5z m959 -12 c0 -8 -4 -12 -10 -9 -5 3 -10 13 -10 21 0 8 5 12 10 9 6 -3 10
-13 10 -21z m-876 0 c4 -11 1 -14 -11 -12 -9 2 -18 9 -21 16 -6 18 25 15 32
-4z m61 -14 c-5 -8 -11 -8 -21 1 -12 10 -12 14 -2 20 16 10 33 -5 23 -21z
m1295 0 c0 -5 -2 -10 -4 -10 -3 0 -8 5 -11 10 -3 6 -1 10 4 10 6 0 11 -4 11
-10z m-1411 -24 c9 -11 9 -16 -1 -22 -7 -4 -10 -4 -6 1 4 4 3 14 -3 22 -6 7
-9 13 -6 13 2 0 10 -6 16 -14z m68 2 c15 -6 34 -10 42 -9 7 1 20 -1 30 -5 9
-4 21 -8 26 -8 34 -3 105 -32 105 -43 0 -16 -5 -16 -32 -2 -11 6 -30 13 -44
15 -19 3 -22 1 -17 -13 5 -14 0 -12 -21 7 -22 20 -26 21 -20 6 6 -16 4 -18 -9
-13 -9 3 -17 2 -17 -3 0 -5 -7 -7 -16 -3 -12 4 -13 8 -3 13 8 6 4 10 -12 13
-21 4 -20 4 6 6 l30 1 -29 15 c-15 8 -37 15 -47 15 -11 0 -19 5 -19 10 0 13
12 13 47 -2z m118 2 c-3 -5 -10 -10 -16 -10 -5 0 -9 5 -9 10 0 6 7 10 16 10 8
0 12 -4 9 -10z m102 -23 c17 -9 35 -21 38 -27 10 -15 -22 -12 -38 5 -8 8 -18
11 -22 7 -5 -4 -5 -1 -1 6 4 7 1 12 -9 12 -9 0 -13 -4 -10 -10 3 -5 3 -10 0
-10 -12 0 -45 21 -45 29 0 13 53 6 87 -12z m928 3 c3 -5 1 -10 -4 -10 -6 0
-11 5 -11 10 0 6 2 10 4 10 3 0 8 -4 11 -10z m-201 -6 c9 -3 16 -15 16 -25 0
-22 -4 -23 -30 -6 -17 10 -22 9 -29 -1 -7 -11 -9 -10 -14 3 -6 14 0 20 40 34
1 1 8 -2 17 -5z m176 2 c0 -3 -4 -8 -10 -11 -5 -3 -10 -1 -10 4 0 6 5 11 10
11 6 0 10 -2 10 -4z m-101 -50 c0 -19 -1 -19 -10 4 -7 18 -12 21 -18 11 -6
-10 -10 -9 -14 4 -4 9 -3 13 3 10 6 -3 10 -1 10 6 0 8 4 8 15 -1 8 -7 15 -22
14 -34z m-1044 16 c-3 -3 -11 0 -18 7 -9 10 -8 11 6 5 10 -3 15 -9 12 -12z
m1300 8 c3 -5 -1 -10 -10 -10 -9 0 -13 5 -10 10 3 6 8 10 10 10 2 0 7 -4 10
-10z m-340 -42 c5 -5 -5 -6 -25 -2 -32 7 -34 6 -21 -9 9 -11 10 -17 2 -17 -10
0 -13 7 -10 26 0 4 -5 11 -13 15 -8 6 1 6 22 3 19 -4 39 -11 45 -16z m-538 -4
c-3 -3 -12 -4 -19 -1 -8 3 -5 6 6 6 11 1 17 -2 13 -5z m221 -16 c19 -17 24
-19 19 -6 -8 23 18 30 35 10 40 -48 42 -53 22 -46 -11 4 -3 -9 20 -30 21 -21
36 -40 32 -43 -3 -3 -12 0 -21 7 -13 11 -14 10 -9 -4 8 -21 -12 -21 -25 1 -8
16 -10 14 -16 -10 -11 -43 -28 -32 -20 13 6 37 5 41 -22 52 -39 17 -64 44 -57
62 8 21 13 20 42 -6z m352 2 c0 -5 -2 -10 -4 -10 -3 0 -8 5 -11 10 -3 6 -1 10
4 10 6 0 11 -4 11 -10z m219 -12 c11 -11 18 -26 14 -31 -3 -6 -1 -7 5 -3 13 8
31 -23 25 -42 -3 -6 -9 -9 -15 -6 -5 3 -12 -3 -15 -15 -3 -12 -11 -21 -19 -21
-7 0 -18 -9 -24 -20 -6 -11 -17 -20 -24 -20 -8 0 -19 -7 -26 -15 -11 -13 -10
-14 6 -9 14 5 16 4 8 -5 -7 -8 -18 -9 -35 -2 -16 5 -31 5 -42 0 -13 -8 -17 -6
-17 6 0 8 4 15 9 15 5 0 13 9 16 20 5 15 15 20 41 20 26 0 33 -3 28 -12 -5 -9
-2 -8 10 1 9 8 14 21 11 29 -4 10 0 13 14 9 14 -3 17 0 14 13 -3 10 0 21 6 24
12 8 3 36 -12 36 -6 0 -8 -3 -4 -6 9 -9 -19 -34 -37 -34 -9 0 -16 5 -16 10 0
6 5 10 11 10 5 0 7 5 4 10 -3 6 -1 10 5 10 7 0 9 8 5 20 -4 11 -2 20 4 20 6 0
11 -5 11 -11 0 -5 5 -7 10 -4 6 4 8 11 5 16 -11 17 4 9 24 -13z m-632 -14 c13
-12 23 -33 23 -46 0 -14 7 -31 15 -38 26 -22 18 -58 -16 -76 -29 -15 -33 -15
-48 1 -15 16 -15 17 7 6 17 -9 22 -9 22 0 0 7 3 9 7 6 9 -10 33 13 33 31 0 8
-3 12 -7 9 -3 -4 -15 1 -26 10 -10 10 -22 17 -25 15 -4 -2 -8 2 -10 8 -2 6 5
14 16 17 20 5 20 6 4 24 -24 25 -91 35 -116 16 -16 -11 -17 -17 -7 -38 12 -23
11 -23 -4 -4 -14 17 -17 18 -25 5 -7 -11 -4 -17 8 -22 15 -7 14 -8 -2 -5 -12
1 -23 13 -27 30 -6 24 -4 29 17 38 15 5 22 14 18 21 -4 6 -3 8 3 5 5 -3 23 -2
39 3 43 12 75 8 101 -16z m423 -9 c10 -12 9 -15 -8 -15 -11 0 -22 7 -26 15 -3
9 0 15 8 15 7 0 19 -7 26 -15z m-1000 -15 c0 -5 -2 -10 -4 -10 -3 0 -8 5 -11
10 -3 6 -1 10 4 10 6 0 11 -4 11 -10z m957 -22 c-3 -8 -6 -5 -6 6 -1 11 2 17
5 13 3 -3 4 -12 1 -19z m-892 2 c3 -5 -1 -10 -9 -10 -8 0 -18 5 -21 10 -3 6 1
10 9 10 8 0 18 -4 21 -10z m421 -11 l9 -20 28 21 c22 18 27 19 27 6 0 -9 -5
-16 -12 -16 -9 0 -9 -3 0 -12 14 -14 16 -48 3 -48 -16 0 -24 22 -11 30 9 5 9
9 1 14 -6 4 -16 4 -22 1 -11 -7 -49 22 -49 37 0 16 17 8 26 -13z m589 -13 c8
4 15 11 16 18 0 6 4 0 10 -12 11 -29 4 -42 -21 -42 -22 0 -50 26 -50 46 0 14
2 14 15 0 9 -8 22 -13 30 -10z m-417 -32 c-10 -10 -28 6 -28 24 0 15 1 15 17
-1 9 -9 14 -19 11 -23z m-174 7 c4 -5 -1 -8 -9 -7 -21 3 -31 16 -12 16 9 0 18
-4 21 -9z m93 -26 c-15 -16 -22 -11 -13 10 3 9 10 13 16 10 6 -4 5 -11 -3 -20z
m211 -14 c2 -14 -1 -21 -10 -19 -7 2 -12 -4 -10 -12 2 -10 0 -12 -7 -5 -13 13
-2 67 13 62 6 -2 12 -13 14 -26z m-328 -3 c0 -13 -23 -5 -28 10 -2 7 2 10 12
6 9 -3 16 -11 16 -16z m590 14 c0 -13 -12 -22 -22 -16 -10 6 -1 24 13 24 5 0
9 -4 9 -8z m-380 -23 c0 -4 7 -6 15 -3 8 4 15 1 15 -5 0 -14 -16 -14 -41 -1
-22 12 -26 32 -4 24 8 -4 15 -10 15 -15z m170 11 c0 -13 -11 -13 -30 0 -12 8
-11 10 8 10 12 0 22 -4 22 -10z m-20 -30 c0 -5 -2 -10 -4 -10 -3 0 -8 5 -11
10 -3 6 -1 10 4 10 6 0 11 -4 11 -10z m390 6 c0 -3 -4 -8 -10 -11 -5 -3 -10
-1 -10 4 0 6 5 11 10 11 6 0 10 -2 10 -4z m-519 -32 c8 -10 5 -15 -16 -20 -19
-5 -30 -1 -40 12 -8 11 -15 22 -15 25 0 11 59 -3 71 -17z m481 -30 c-2 -28 2
-43 8 -39 5 3 10 0 10 -7 0 -14 -20 -48 -20 -35 0 5 -5 5 -10 2 -6 -4 -1 -14
12 -25 l23 -19 -26 -1 c-24 0 -26 -4 -25 -36 1 -23 -4 -39 -13 -42 -8 -3 -11
0 -7 6 3 6 3 18 0 27 -6 16 -8 16 -16 1 -5 -9 -7 -20 -4 -25 3 -5 0 -14 -8
-20 -11 -10 -13 -5 -11 24 1 27 -1 32 -10 25 -9 -8 -14 -6 -19 6 -11 28 -6 43
16 49 15 6 26 1 40 -16 l19 -24 -12 28 c-10 22 -9 32 2 54 11 20 11 27 2 30
-7 3 -13 14 -13 25 0 17 3 18 14 8 8 -6 17 -21 20 -33 3 -15 4 -13 4 8 -1 36
12 88 20 81 3 -3 4 -26 4 -52z m-862 0 c0 -8 -4 -12 -10 -9 -5 3 -10 10 -10
16 0 5 5 9 10 9 6 0 10 -7 10 -16z m214 0 c3 -8 2 -12 -4 -9 -6 3 -10 10 -10
16 0 14 7 11 14 -7z m564 -35 c4 -24 3 -24 -12 -4 -19 24 -20 38 -3 33 6 -3
13 -15 15 -29z m-908 -1 c25 -32 13 -44 -16 -17 -13 12 -21 26 -18 30 8 14 14
11 34 -13z m163 -11 c-3 -5 -14 -7 -24 -4 -10 3 -20 0 -23 -7 -3 -8 -5 -8 -5
1 -1 6 6 19 15 27 12 13 18 13 29 3 7 -6 11 -16 8 -20z m-240 3 c3 -11 3 -20
1 -20 -2 0 -8 9 -14 20 -6 11 -7 20 -2 20 6 0 12 -9 15 -20z m38 -7 c13 -16
12 -17 -3 -4 -10 7 -18 15 -18 17 0 8 8 3 21 -13z m919 -3 c0 -5 -7 -7 -15 -4
-8 4 -15 8 -15 10 0 2 7 4 15 4 8 0 15 -4 15 -10z m-520 -51 c0 -5 -10 -9 -21
-9 -18 0 -19 2 -9 15 12 15 30 12 30 -6z m-53 -11 c-3 -8 -6 -5 -6 6 -1 11 2
17 5 13 3 -3 4 -12 1 -19z m483 -78 c0 -5 -5 -10 -11 -10 -5 0 -7 5 -4 10 3 6
8 10 11 10 2 0 4 -4 4 -10z m-23 -26 c-3 -3 -12 -4 -19 -1 -8 3 -5 6 6 6 11 1
17 -2 13 -5z m48 -4 c3 -5 2 -10 -4 -10 -5 0 -13 5 -16 10 -3 6 -2 10 4 10 5
0 13 -4 16 -10z m-226 -24 c13 -1 26 -6 28 -13 2 -6 -2 -10 -9 -9 -50 9 -78
19 -78 28 0 6 7 7 18 3 9 -4 28 -8 41 -9z m148 -2 c2 -7 -6 -10 -22 -7 -14 3
-25 10 -25 15 0 13 43 6 47 -8z m43 9 c0 -10 -20 -40 -20 -31 0 3 -3 13 -6 22
-4 11 -1 16 10 16 9 0 16 -3 16 -7z m-270 -13 c0 -5 -7 -7 -15 -4 -8 4 -15 8
-15 10 0 2 7 4 15 4 8 0 15 -4 15 -10z m289 -27 c0 -33 -1 -35 -9 -15 -8 20
-4 52 6 52 2 0 4 -17 3 -37z m-89 7 c0 -5 -2 -10 -4 -10 -3 0 -8 5 -11 10 -3
6 -1 10 4 10 6 0 11 -4 11 -10z m30 -10 c0 -5 -5 -10 -11 -10 -5 0 -7 5 -4 10
3 6 8 10 11 10 2 0 4 -4 4 -10z m-117 -14 c4 -10 1 -13 -9 -9 -15 6 -19 23 -5
23 5 0 11 -7 14 -14z m159 -23 c6 -26 -3 -53 -17 -53 -7 0 -12 15 -13 35 -1
37 23 51 30 18z"/>
<path d="M1826 5951 c-4 -5 3 -7 14 -4 23 6 26 13 6 13 -8 0 -17 -4 -20 -9z"/>
<path d="M1915 5940 c3 -5 -1 -10 -9 -10 -9 0 -16 -4 -16 -9 0 -5 15 -7 33 -6
42 4 41 3 27 20 -14 17 -45 21 -35 5z"/>
<path d="M1980 5940 c-8 -5 -12 -11 -9 -14 2 -3 11 -1 19 4 8 5 12 11 9 14 -2
3 -11 1 -19 -4z"/>
<path d="M1865 5890 c-3 -5 -1 -10 4 -10 6 0 11 5 11 10 0 6 -2 10 -4 10 -3 0
-8 -4 -11 -10z"/>
<path d="M1955 5889 c4 -5 16 -9 27 -9 26 0 19 9 -11 15 -12 2 -19 0 -16 -6z"/>
<path d="M1875 5830 c-3 -5 -1 -10 4 -10 6 0 11 5 11 10 0 6 -2 10 -4 10 -3 0
-8 -4 -11 -10z"/>
<path d="M1950 5829 c0 -5 5 -7 10 -4 6 3 10 8 10 11 0 2 -4 4 -10 4 -5 0 -10
-5 -10 -11z"/>
<path d="M2110 5833 c0 -6 8 -17 18 -24 16 -13 16 -13 2 6 -8 11 -16 22 -17
24 -2 2 -3 0 -3 -6z"/>
<path d="M1631 5814 c0 -11 3 -14 6 -6 3 7 2 16 -1 19 -3 4 -6 -2 -5 -13z"/>
<path d="M1691 5776 c23 -40 54 -69 43 -42 -3 9 -2 16 3 16 5 0 14 -15 21 -34
12 -33 34 -47 60 -39 6 3 12 9 12 14 0 6 -3 8 -7 6 -12 -7 -53 11 -53 23 0 6
5 8 10 5 18 -11 11 4 -14 28 -14 14 -27 22 -31 19 -3 -3 -12 4 -21 16 -8 12
-21 22 -29 22 -11 0 -10 -8 6 -34z"/>
<path d="M2070 5772 c0 -5 7 -15 15 -22 8 -7 15 -8 15 -2 0 5 -7 15 -15 22 -8
7 -15 8 -15 2z"/>
<path d="M2107 5746 c-4 -10 -7 -26 -7 -36 0 -16 -3 -17 -25 -7 -13 7 -29 21
-34 32 -9 18 -10 17 -5 -5 4 -22 2 -25 -26 -25 -21 0 -38 8 -51 24 -16 20 -19
21 -16 5 5 -34 18 -44 55 -44 46 0 127 -27 220 -73 12 -6 49 -32 82 -59 33
-26 64 -48 68 -48 4 0 19 -18 32 -40 14 -23 33 -50 42 -61 9 -11 14 -28 11
-37 -4 -13 -3 -14 5 -4 7 10 22 -6 58 -62 49 -75 77 -98 67 -53 -8 31 -23 48
-36 40 -6 -4 -8 0 -4 9 3 9 -3 24 -14 34 -10 9 -19 26 -19 36 0 11 -4 17 -9
14 -5 -4 -19 11 -32 31 -12 21 -28 45 -36 53 -7 8 -24 29 -39 45 -14 17 -23
24 -19 18 3 -7 2 -13 -3 -13 -5 0 -15 18 -22 40 -11 34 -15 38 -32 29 -19 -10
-19 -10 -2 18 10 15 14 24 9 20 -5 -4 -15 3 -22 15 l-12 23 -1 -25 c0 -19 -3
-21 -9 -11 -5 8 -8 22 -6 32 4 21 -10 33 -25 24 -8 -5 -7 -11 1 -21 7 -9 8
-14 1 -14 -6 0 -14 9 -17 20 -4 11 -11 18 -16 14 -6 -3 -8 -12 -5 -20 3 -8 0
-11 -10 -7 -8 3 -13 12 -10 20 6 15 -32 35 -48 25 -5 -3 -6 0 -3 5 4 6 -1 21
-11 33 -17 21 -19 21 -25 6z m10 -48 c-3 -8 -6 -5 -6 6 -1 11 2 17 5 13 3 -3
4 -12 1 -19z"/>
<path d="M2060 5740 c0 -5 5 -10 11 -10 5 0 7 5 4 10 -3 6 -8 10 -11 10 -2 0
-4 -4 -4 -10z"/>
<path d="M1846 5725 c-3 -8 -3 -22 0 -30 7 -17 34 -21 34 -4 0 5 -4 8 -9 5 -5
-4 -7 2 -4 13 6 23 -13 37 -21 16z"/>
<path d="M1740 5701 c0 -6 4 -13 10 -16 6 -3 7 1 4 9 -7 18 -14 21 -14 7z"/>
<path d="M1940 5655 c-7 -9 -11 -17 -9 -20 3 -2 10 5 17 15 14 24 10 26 -8 5z"/>
<path d="M1778 5653 c7 -3 16 -2 19 1 4 3 -2 6 -13 5 -11 0 -14 -3 -6 -6z"/>
<path d="M1868 5649 c-6 -4 -8 -14 -5 -24 4 -9 11 -14 16 -11 5 3 9 -6 9 -20
0 -30 9 -41 23 -27 6 6 6 18 0 36 -7 17 -7 27 -1 27 6 0 10 6 10 14 0 15 -31
18 -52 5z"/>
<path d="M1985 5630 c4 -12 2 -26 -3 -33 -5 -7 -6 -21 -1 -32 4 -11 8 -14 8
-7 1 6 8 12 16 12 9 0 12 -6 9 -15 -4 -8 -2 -15 4 -15 6 0 18 -3 28 -7 14 -5
16 -1 12 25 -3 23 -1 32 10 32 8 0 12 -6 9 -14 -3 -8 4 -22 15 -33 21 -18 21
-18 14 2 -4 11 -9 26 -10 33 -1 7 -8 18 -14 24 -7 7 -12 17 -12 24 0 6 -9 14
-21 17 -16 4 -18 3 -8 -9 8 -10 8 -14 0 -14 -6 0 -11 -8 -11 -17 0 -12 -7 -8
-21 15 -24 37 -33 41 -24 12z"/>
<path d="M1945 5616 c-20 -20 -20 -23 -4 -53 17 -34 30 -35 22 -2 -3 10 -10
19 -17 19 -6 0 0 9 14 20 16 12 21 22 15 28 -6 5 -18 0 -30 -12z"/>
<path d="M2135 5567 c8 -19 13 -42 11 -53 -2 -10 -1 -13 1 -6 3 6 9 12 14 12
6 0 9 -6 8 -12 -3 -18 19 -68 30 -68 10 0 18 46 13 73 -3 13 -7 15 -16 8 -9
-8 -20 1 -41 34 -33 54 -39 57 -20 12z"/>
<path d="M2267 5524 c5 -13 3 -16 -10 -11 -9 3 -17 2 -17 -3 0 -5 11 -9 25 -8
26 2 32 27 7 36 -8 2 -10 -2 -5 -14z"/>
<path d="M1840 5498 c0 -10 -6 -18 -14 -18 -18 0 -10 -34 12 -52 13 -11 15
-10 9 5 -4 10 -3 26 2 36 6 10 6 23 0 32 -7 11 -9 11 -9 -3z"/>
<path d="M2293 5470 c-6 -17 -7 -30 -2 -30 5 0 15 -12 21 -27 7 -16 23 -42 35
-59 13 -17 23 -36 23 -43 0 -7 7 -19 15 -27 26 -26 16 4 -19 60 -45 69 -60
120 -43 144 6 8 5 12 -5 12 -7 0 -19 -13 -25 -30z"/>
<path d="M2140 5444 c1 -5 7 -20 15 -34 13 -24 14 -24 15 -4 0 12 -7 27 -15
34 -8 7 -15 9 -15 4z"/>
<path d="M2230 5385 c0 -5 5 -17 10 -25 5 -8 10 -10 10 -5 0 6 -5 17 -10 25
-5 8 -10 11 -10 5z"/>
<path d="M2069 5367 c7 -7 14 -8 21 -1 6 6 2 10 -12 11 -16 2 -18 -1 -9 -10z"/>
<path d="M2127 5310 c3 -11 9 -20 13 -20 5 0 6 9 3 20 -3 11 -9 20 -13 20 -5
0 -6 -9 -3 -20z"/>
<path d="M2290 5321 c0 -16 22 -24 30 -11 6 9 10 8 19 -6 6 -11 11 -14 11 -7
0 6 -6 15 -12 20 -20 12 -48 14 -48 4z"/>
<path d="M2446 5315 c-3 -8 -1 -15 4 -15 13 0 22 18 11 24 -5 3 -11 -1 -15 -9z"/>
<path d="M2265 5300 c3 -18 1 -19 -18 -8 -20 10 -21 10 -8 -5 7 -10 20 -17 27
-17 8 0 14 -9 14 -21 0 -13 -4 -18 -12 -13 -8 5 -9 0 -5 -15 5 -19 3 -21 -11
-9 -10 7 -8 2 4 -12 12 -14 27 -34 33 -45 11 -18 12 -18 7 7 -3 14 -9 33 -12
42 -3 9 -2 16 4 16 6 0 9 6 7 13 -14 65 -19 78 -26 82 -4 3 -6 -4 -4 -15z"/>
<path d="M2170 5296 c0 -8 4 -17 9 -20 5 -4 7 3 4 14 -6 23 -13 26 -13 6z"/>
<path d="M2380 5250 c0 -5 5 -10 11 -10 5 0 7 5 4 10 -3 6 -8 10 -11 10 -2 0
-4 -4 -4 -10z"/>
<path d="M2416 5215 c4 -8 8 -15 10 -15 2 0 4 7 4 15 0 8 -4 15 -10 15 -5 0
-7 -7 -4 -15z"/>
<path d="M2575 5191 c-3 -5 -1 -12 5 -16 5 -3 10 -3 10 1 0 3 7 1 15 -6 20
-17 32 -5 15 15 -14 17 -36 20 -45 6z"/>
<path d="M2447 5160 c3 -11 10 -23 16 -27 7 -4 8 0 4 11 -4 10 -7 22 -7 27 0
5 -4 9 -9 9 -5 0 -7 -9 -4 -20z"/>
<path d="M2646 5157 c3 -10 9 -15 12 -12 3 3 0 11 -7 18 -10 9 -11 8 -5 -6z"/>
<path d="M2600 5138 c0 -9 7 -19 16 -22 15 -6 15 -4 3 11 -7 10 -15 20 -16 22
-2 2 -3 -3 -3 -11z"/>
<path d="M2673 5135 c0 -8 4 -15 9 -15 5 0 6 -4 3 -10 -3 -5 -1 -10 4 -10 15
0 14 25 -2 39 -10 8 -14 7 -14 -4z"/>
<path d="M2406 5105 c3 -22 10 -47 15 -55 12 -18 1 44 -12 75 -7 14 -7 7 -3
-20z"/>
<path d="M2287 5081 c3 -12 9 -21 14 -21 14 0 11 16 -5 29 -12 10 -13 8 -9 -8z"/>
<path d="M2320 5028 c0 -9 7 -31 15 -49 l14 -34 0 30 c0 17 -6 39 -14 49 -12
16 -15 17 -15 4z"/>
<path d="M2282 4988 c-7 -7 -12 -16 -12 -21 0 -5 7 -1 16 8 9 9 14 18 12 20
-2 3 -10 -1 -16 -7z"/>
<path d="M2445 4970 c22 -45 29 -52 20 -20 -4 14 -14 32 -22 40 -12 12 -11 7
2 -20z"/>
<path d="M2670 4971 c0 -6 4 -13 10 -16 6 -3 7 1 4 9 -7 18 -14 21 -14 7z"/>
<path d="M2736 4924 c-4 -9 -4 -19 -1 -22 2 -3 7 3 11 12 4 9 4 19 1 22 -2 3
-7 -3 -11 -12z"/>
<path d="M2230 4922 c0 -12 19 -26 26 -19 2 2 -2 10 -11 17 -9 8 -15 8 -15 2z"/>
<path d="M2334 4895 c3 -23 12 -26 13 -5 1 11 -2 20 -7 20 -4 0 -7 -7 -6 -15z"/>
<path d="M2396 4892 c9 -38 6 -116 -5 -120 -5 -2 -7 -10 -4 -18 3 -10 0 -12
-10 -9 -10 5 -14 -1 -14 -19 0 -14 3 -24 7 -21 12 7 43 77 44 100 1 11 8 19
16 17 10 -2 11 0 3 10 -6 7 -18 29 -27 48 -9 19 -13 25 -10 12z"/>
<path d="M2747 4859 c4 -13 8 -18 11 -10 2 7 -1 18 -6 23 -8 8 -9 4 -5 -13z"/>
<path d="M2656 4833 c-6 -14 -5 -15 5 -6 7 7 10 15 7 18 -3 3 -9 -2 -12 -12z"/>
<path d="M2480 4818 c0 -7 5 -20 10 -28 8 -12 10 -11 10 7 0 12 -4 25 -10 28
-5 3 -10 0 -10 -7z"/>
<path d="M2736 4795 c4 -8 10 -15 15 -15 5 0 9 7 9 15 0 8 -7 15 -15 15 -9 0
-12 -6 -9 -15z"/>
<path d="M2466 4744 c-3 -9 -12 -14 -19 -11 -9 3 -12 -4 -11 -24 2 -26 -1 -29
-19 -23 -20 6 -21 5 -7 -12 8 -10 15 -20 16 -22 0 -1 13 21 28 49 14 29 25 54
22 56 -2 2 -6 -4 -10 -13z"/>
<path d="M2716 4743 c-6 -14 -5 -15 5 -6 7 7 10 15 7 18 -3 3 -9 -2 -12 -12z"/>
<path d="M2377 4659 c7 -7 15 -10 18 -7 3 3 -2 9 -12 12 -14 6 -15 5 -6 -5z"/>
<path d="M2350 4626 c14 -18 13 -19 -2 -13 -13 5 -18 1 -18 -12 0 -10 7 -18
15 -18 8 0 12 4 10 8 -3 4 2 9 10 13 8 3 15 11 15 17 0 7 -3 9 -7 6 -3 -4 -13
-1 -22 6 -14 11 -15 10 -1 -7z"/>
<path d="M2756 4575 c4 -8 11 -15 16 -15 6 0 5 6 -2 15 -7 8 -14 15 -16 15 -2
0 -1 -7 2 -15z"/>
<path d="M2338 4562 c-23 -4 -24 -32 -1 -32 9 0 24 -7 33 -15 15 -14 19 -13
35 4 17 20 17 20 -9 15 -19 -3 -28 1 -34 14 -4 10 -15 16 -24 14z"/>
<path d="M2475 4185 c0 -13 3 -21 8 -18 4 2 7 10 7 18 0 8 -3 16 -7 18 -5 3
-8 -5 -8 -18z"/>
<path d="M2665 4200 c-3 -5 -2 -10 4 -10 5 0 13 5 16 10 3 6 2 10 -4 10 -5 0
-13 -4 -16 -10z"/>
<path d="M2603 4164 c-3 -9 -12 -13 -22 -10 -13 5 -13 4 2 -8 18 -14 23 -36 8
-36 -5 0 -12 -7 -15 -15 -11 -31 37 12 50 44 10 25 10 30 -2 35 -8 3 -17 -1
-21 -10z"/>
<path d="M2440 4126 c0 -2 7 -7 16 -10 8 -3 12 -2 9 4 -6 10 -25 14 -25 6z"/>
<path d="M2136 4105 c4 -8 8 -15 10 -15 2 0 4 7 4 15 0 8 -4 15 -10 15 -5 0
-7 -7 -4 -15z"/>
<path d="M2275 4100 c-3 -6 1 -7 9 -4 10 4 16 1 16 -9 0 -9 9 -14 23 -13 12 1
26 -3 30 -9 5 -6 7 -2 5 9 -2 11 -9 21 -17 24 -8 3 -11 0 -7 -7 11 -16 -10
-13 -24 4 -14 17 -26 19 -35 5z"/>
<path d="M2220 4050 c-8 -5 -10 -10 -5 -10 6 0 17 5 25 10 8 5 11 10 5 10 -5
0 -17 -5 -25 -10z"/>
<path d="M2286 4023 c-6 -14 -5 -15 5 -6 7 7 10 15 7 18 -3 3 -9 -2 -12 -12z"/>
<path d="M2340 3915 c7 -9 15 -13 17 -11 7 7 -7 26 -19 26 -6 0 -6 -6 2 -15z"/>
<path d="M2534 3889 c-3 -6 -2 -15 3 -20 5 -5 9 -1 9 11 0 23 -2 24 -12 9z"/>
<path d="M2243 3865 c0 -8 3 -16 6 -16 33 -7 61 -6 61 1 0 5 -11 7 -25 4 -18
-3 -25 0 -25 11 0 8 -4 15 -8 15 -5 0 -9 -7 -9 -15z"/>
<path d="M2608 3850 c16 -15 22 -31 20 -52 -2 -18 2 -33 10 -35 17 -7 15 43
-4 72 -8 13 -23 26 -32 30 -12 4 -10 -1 6 -15z"/>
<path d="M2326 3845 c-3 -8 -1 -15 4 -15 6 0 10 7 10 15 0 8 -2 15 -4 15 -2 0
-6 -7 -10 -15z"/>
<path d="M2360 3827 c0 -9 -5 -17 -11 -17 -5 0 -7 -5 -4 -10 4 -6 12 -4 22 6
12 11 13 18 4 27 -8 8 -11 7 -11 -6z"/>
<path d="M2515 3830 c28 -12 37 -12 30 0 -3 6 -16 10 -28 9 -21 0 -21 -1 -2
-9z"/>
<path d="M2180 3824 c0 -1 6 -7 14 -13 10 -9 15 -8 19 2 3 8 -3 13 -14 13 -11
0 -19 -1 -19 -2z"/>
<path d="M2715 3780 c10 -11 20 -20 23 -20 3 0 -3 9 -13 20 -10 11 -20 20 -23
20 -3 0 3 -9 13 -20z"/>
<path d="M2370 3720 c0 -4 7 -11 16 -14 22 -9 26 -8 22 6 -5 13 -38 20 -38 8z"/>
<path d="M2490 3710 c0 -5 5 -10 11 -10 5 0 7 5 4 10 -3 6 -8 10 -11 10 -2 0
-4 -4 -4 -10z"/>
<path d="M2450 3653 c0 -15 18 -35 27 -32 5 2 1 12 -9 22 -10 9 -18 14 -18 10z"/>
<path d="M2654 3559 c-3 -6 -1 -16 6 -22 10 -9 12 -8 7 5 -3 9 -1 19 6 22 9 3
9 5 0 5 -6 1 -15 -4 -19 -10z"/>
<path d="M2985 3490 c3 -4 14 -10 25 -13 11 -3 18 -2 15 3 -3 4 -14 10 -25 13
-11 3 -18 2 -15 -3z"/>
<path d="M2661 3453 c-8 -9 -10 -18 -4 -24 13 -13 35 12 25 28 -5 7 -11 6 -21
-4z"/>
<path d="M2830 3456 c0 -2 7 -9 15 -16 9 -7 15 -8 15 -2 0 5 -7 12 -15 16 -8
3 -15 4 -15 2z"/>
<path d="M2877 3408 c3 -13 19 -34 36 -48 17 -14 27 -18 23 -10 -7 12 -6 13 5
3 31 -30 41 0 11 35 -14 16 -22 18 -36 10 -16 -9 -18 -8 -13 5 3 9 -1 18 -9
21 -22 8 -22 8 -17 -16z"/>
<path d="M2980 3369 c0 -20 21 -49 35 -49 8 0 15 -6 15 -14 0 -8 4 -18 10 -21
17 -10 -9 47 -28 62 -16 12 -15 12 3 6 18 -6 18 -5 6 10 -15 19 -41 23 -41 6z"/>
<path d="M3084 3260 c2 -19 4 -39 5 -43 0 -5 6 -5 13 -1 7 5 8 3 3 -6 -14 -22
18 -31 33 -8 12 16 12 22 2 31 -10 10 -12 8 -6 -7 11 -31 -25 3 -40 39 l-13
30 3 -35z"/>
<path d="M3117 3273 c-10 -9 -9 -23 1 -23 5 0 9 7 9 15 0 17 -1 18 -10 8z"/>
<path d="M3045 3240 c3 -5 8 -10 11 -10 2 0 4 5 4 10 0 6 -5 10 -11 10 -5 0
-7 -4 -4 -10z"/>
<path d="M3180 3210 c0 -5 5 -10 10 -10 6 0 10 5 10 10 0 6 -4 10 -10 10 -5 0
-10 -4 -10 -10z"/>
<path d="M3187 3164 c-4 -4 -7 -14 -7 -23 0 -11 3 -12 11 -4 6 6 10 16 7 23
-2 6 -7 8 -11 4z"/>
<path d="M3155 3080 c-3 -5 -1 -10 4 -10 6 0 11 5 11 10 0 6 -2 10 -4 10 -3 0
-8 -4 -11 -10z"/>
<path d="M3075 3060 c-3 -5 -1 -10 4 -10 6 0 11 5 11 10 0 6 -2 10 -4 10 -3 0
-8 -4 -11 -10z"/>
<path d="M3145 3050 c-3 -5 -1 -10 4 -10 6 0 11 5 11 10 0 6 -2 10 -4 10 -3 0
-8 -4 -11 -10z"/>
<path d="M3093 3020 c14 -11 29 -29 32 -40 4 -11 11 -20 17 -20 7 0 7 4 -1 13
-8 10 -7 17 1 25 9 9 8 12 -5 12 -9 0 -17 5 -17 11 0 5 -4 8 -9 4 -5 -3 -12
-1 -16 5 -3 5 -11 10 -17 10 -6 0 1 -9 15 -20z"/>
<path d="M2883 3015 c0 -8 4 -12 9 -9 5 3 6 10 3 15 -9 13 -12 11 -12 -6z"/>
<path d="M3100 2959 c0 -5 5 -7 10 -4 6 3 10 8 10 11 0 2 -4 4 -10 4 -5 0 -10
-5 -10 -11z"/>
<path d="M3176 2944 c-6 -15 -9 -16 -15 -5 -7 10 -10 9 -16 -8 -3 -11 -11 -21
-17 -21 -5 0 -8 7 -4 15 6 17 -9 21 -19 5 -7 -12 20 -42 29 -33 3 4 6 -1 6 -9
0 -9 7 -18 15 -22 15 -5 19 5 16 32 -1 8 5 19 13 25 10 8 13 17 7 25 -6 11
-10 10 -15 -4z"/>
<path d="M3020 2892 c0 -7 8 -12 17 -10 24 4 27 24 3 24 -11 0 -20 -6 -20 -14z"/>
<path d="M3073 2887 c-4 -8 -16 -16 -25 -20 -11 -4 -16 -16 -16 -36 1 -17 2
-31 3 -31 2 0 14 6 28 13 21 11 24 16 14 27 -10 10 -9 12 6 7 15 -6 16 -4 7
13 -6 11 -7 20 -1 20 5 0 12 -7 15 -16 4 -9 9 -14 12 -11 6 6 -18 47 -28 47
-4 0 -11 -6 -15 -13z"/>
<path d="M3330 2806 c0 -8 5 -18 10 -21 6 -3 10 1 10 9 0 8 -4 18 -10 21 -5 3
-10 -1 -10 -9z"/>
<path d="M3060 2756 c0 -8 4 -17 9 -20 5 -4 7 3 4 14 -6 23 -13 26 -13 6z"/>
<path d="M3329 2762 c9 -6 14 -29 14 -61 0 -28 1 -51 3 -51 12 0 75 93 68 99
-5 5 -29 12 -54 16 -30 4 -40 3 -31 -3z"/>
<path d="M3440 2759 c0 -5 5 -7 10 -4 6 3 10 8 10 11 0 2 -4 4 -10 4 -5 0 -10
-5 -10 -11z"/>
<path d="M2915 2700 c-3 -5 -1 -10 4 -10 6 0 11 5 11 10 0 6 -2 10 -4 10 -3 0
-8 -4 -11 -10z"/>
<path d="M3136 2654 c-4 -10 -1 -14 6 -12 15 5 23 28 10 28 -5 0 -13 -7 -16
-16z"/>
<path d="M2975 2620 c-3 -5 -1 -10 4 -10 6 0 11 5 11 10 0 6 -2 10 -4 10 -3 0
-8 -4 -11 -10z"/>
<path d="M3204 2448 c-20 -21 -39 -36 -42 -34 -2 3 3 12 12 21 21 21 20 24 -4
22 -10 -1 -17 -3 -15 -5 2 -3 0 -13 -5 -23 -8 -14 -6 -19 10 -24 14 -5 27 2
44 22 13 15 28 24 33 20 4 -5 -1 -15 -11 -23 -11 -7 -17 -17 -13 -20 4 -4 15
4 26 17 14 17 17 29 10 41 -7 14 -6 16 6 12 8 -4 15 -2 15 3 0 21 -30 8 -66
-29z"/>
<path d="M2975 2420 c3 -5 8 -10 11 -10 2 0 4 5 4 10 0 6 -5 10 -11 10 -5 0
-7 -4 -4 -10z"/>
<path d="M3090 2286 c0 -13 7 -27 16 -30 14 -5 15 -4 4 9 -10 12 -10 18 0 30
10 12 10 15 -4 15 -10 0 -16 -9 -16 -24z"/>
<path d="M2977 2269 c7 -7 15 -10 18 -7 3 3 -2 9 -12 12 -14 6 -15 5 -6 -5z"/>
<path d="M3018 2253 c7 -3 16 -2 19 1 4 3 -2 6 -13 5 -11 0 -14 -3 -6 -6z"/>
<path d="M3058 2233 c7 -3 16 -2 19 1 4 3 -2 6 -13 5 -11 0 -14 -3 -6 -6z"/>
<path d="M2818 2183 c7 -3 16 -2 19 1 4 3 -2 6 -13 5 -11 0 -14 -3 -6 -6z"/>
<path d="M2794 2154 c-18 -14 -18 -15 4 -4 12 6 28 8 34 4 7 -4 8 -3 4 4 -10
16 -18 15 -42 -4z"/>
<path d="M3030 2109 c0 -5 5 -7 10 -4 6 3 10 8 10 11 0 2 -4 4 -10 4 -5 0 -10
-5 -10 -11z"/>
<path d="M3110 2080 c18 -12 30 -13 30 -2 0 4 -10 9 -22 9 -18 2 -20 0 -8 -7z"/>
<path d="M3226 2031 c-4 -5 1 -8 9 -7 21 3 31 16 12 16 -9 0 -18 -4 -21 -9z"/>
<path d="M1522 5800 c0 -14 3 -34 8 -45 l9 -20 -1 20 c0 11 -4 31 -8 45 l-8
25 0 -25z"/>
<path d="M1010 5489 c0 -11 4 -18 10 -14 5 3 7 12 3 20 -7 21 -13 19 -13 -6z"/>
<path d="M990 5382 c6 -13 14 -21 18 -18 3 4 -2 14 -12 24 -18 16 -18 16 -6
-6z"/>
<path d="M1021 5304 c0 -11 3 -14 6 -6 3 7 2 16 -1 19 -3 4 -6 -2 -5 -13z"/>
<path d="M1425 5219 c-4 -6 -5 -12 -2 -15 2 -3 7 2 10 11 7 17 1 20 -8 4z"/>
<path d="M2055 4080 c-3 -5 -2 -10 4 -10 5 0 13 5 16 10 3 6 2 10 -4 10 -5 0
-13 -4 -16 -10z"/>
<path d="M2000 4040 c-12 -8 -10 -10 8 -10 13 0 20 4 17 10 -7 12 -6 12 -25 0z"/>
<path d="M1980 3930 c-8 -5 -12 -12 -9 -15 4 -3 12 1 19 10 14 17 11 19 -10 5z"/>
<path d="M1900 3892 c0 -6 -8 -13 -17 -15 -16 -4 -16 -5 -1 -6 18 -1 34 16 24
26 -3 4 -6 1 -6 -5z"/>
<path d="M1958 3892 c-10 -2 -18 -8 -18 -13 0 -11 11 -11 30 1 18 11 11 18
-12 12z"/>
<path d="M2060 3234 c0 -8 5 -12 10 -9 6 4 8 11 5 16 -9 14 -15 11 -15 -7z"/>
<path d="M2170 2219 c0 -5 5 -7 10 -4 6 3 10 8 10 11 0 2 -4 4 -10 4 -5 0 -10
-5 -10 -11z"/>
<path d="M7843 1421 c6 -57 15 -66 38 -40 28 32 10 78 -29 79 -10 0 -13 -11
-9 -39z"/>
<path d="M3335 1820 c-19 -8 -19 -9 3 -9 12 -1 22 4 22 9 0 6 -1 10 -2 9 -2 0
-12 -4 -23 -9z"/>
<path d="M3234 1632 c4 -3 14 -7 22 -8 9 -1 13 0 10 4 -4 3 -14 7 -22 8 -9 1
-13 0 -10 -4z"/>
<path d="M3583 1420 c-1 -11 2 -22 6 -24 4 -3 7 4 8 14 1 11 -2 22 -6 24 -4 3
-7 -4 -8 -14z"/>
<path d="M2440 1380 c-13 -8 -12 -10 3 -10 9 0 17 5 17 10 0 12 -1 12 -20 0z"/>
<path d="M3140 1390 c0 -5 5 -10 11 -10 5 0 7 5 4 10 -3 6 -8 10 -11 10 -2 0
-4 -4 -4 -10z"/>
<path d="M2640 1110 c0 -5 5 -10 11 -10 5 0 7 5 4 10 -3 6 -8 10 -11 10 -2 0
-4 -4 -4 -10z"/>
<path d="M3585 940 c-3 -5 -1 -10 4 -10 6 0 11 5 11 10 0 6 -2 10 -4 10 -3 0
-8 -4 -11 -10z"/>
<path d="M2200 1081 c0 -10 39 -11 45 -2 2 5 -7 9 -20 9 -14 0 -25 -3 -25 -7z"/>
<path d="M2760 926 c0 -2 9 -6 20 -9 11 -3 18 -1 14 4 -5 9 -34 13 -34 5z"/>
<path d="M3465 480 c-3 -5 -1 -10 4 -10 6 0 11 5 11 10 0 6 -2 10 -4 10 -3 0
-8 -4 -11 -10z"/>
<path d="M3682 760 c-7 -11 -12 -25 -12 -32 0 -7 7 0 15 16 18 33 15 45 -3 16z"/>
<path d="M5555 725 c-5 -2 -22 -6 -37 -9 -40 -9 -86 -53 -115 -110 -14 -28
-39 -63 -55 -77 -34 -31 -85 -109 -94 -143 -7 -30 18 -56 56 -56 32 0 56 21
121 107 30 38 57 60 107 84 85 41 188 102 227 134 25 20 28 28 19 42 -6 10
-22 21 -35 24 -25 7 -176 10 -194 4z"/>
<path d="M3696 703 c-6 -14 -5 -15 5 -6 7 7 10 15 7 18 -3 3 -9 -2 -12 -12z"/>
<path d="M6138 558 c-38 -40 -78 -90 -89 -110 -12 -24 -32 -43 -53 -52 -59
-24 -153 -95 -168 -126 -16 -33 -106 -107 -161 -133 -19 -9 -46 -35 -61 -57
-20 -31 -33 -40 -55 -40 -16 0 -39 -9 -52 -20 -24 -19 -23 -19 327 -20 l351 0
17 43 c21 55 20 69 -5 118 -11 22 -19 50 -17 62 3 22 12 24 151 39 30 4 18 25
-29 53 -28 17 -54 25 -67 21 -24 -6 -47 9 -47 31 0 12 9 14 43 9 54 -8 95 6
102 36 6 24 -38 182 -57 206 -24 29 -59 13 -130 -60z"/>
<path d="M3565 440 c-3 -5 -1 -10 4 -10 6 0 11 5 11 10 0 6 -2 10 -4 10 -3 0
-8 -4 -11 -10z"/>
<path d="M5062 269 c-58 -23 -141 -113 -134 -145 1 -6 -7 -19 -18 -29 -18 -17
-20 -17 -20 -1 0 9 -5 14 -10 11 -6 -4 -18 3 -28 15 -16 20 -19 20 -31 7 -7
-9 -14 -29 -16 -46 -2 -16 -11 -42 -21 -56 l-16 -25 221 0 c238 0 244 2 180
49 -29 21 -29 24 -24 84 5 53 3 68 -17 101 -26 44 -33 48 -66 35z"/>
<path d="M4080 147 c-13 -7 -31 -24 -38 -37 -13 -24 -12 -28 17 -59 17 -18 31
-37 31 -42 0 -5 97 -9 220 -9 121 0 220 3 220 8 0 4 16 16 35 26 39 21 51 66
18 66 -55 0 -167 -31 -210 -57 -50 -31 -81 -31 -107 1 -26 31 -134 116 -147
116 -8 0 -25 -6 -39 -13z"/>
<path d="M3521 98 c-1 -10 -7 -18 -13 -19 -7 0 -3 -5 9 -11 12 -6 26 -24 32
-39 7 -19 17 -29 30 -29 25 0 26 7 5 48 -14 29 -20 33 -41 31 -4 0 -10 8 -14
18 -7 17 -8 17 -8 1z"/>
</g>
</svg>
