<?xml version="1.0" standalone="no"?>
<!DOCTYPE svg PUBLIC "-//W3C//DTD SVG 20010904//EN"
 "http://www.w3.org/TR/2001/REC-SVG-20010904/DTD/svg10.dtd">
<svg version="1.0" xmlns="http://www.w3.org/2000/svg"
 width="400.000000pt" height="400.000000pt" viewBox="0 0 400.000000 400.000000"
 preserveAspectRatio="xMidYMid meet">

<g transform="translate(0.000000,400.000000) scale(0.100000,-0.100000)"
fill="#000000" stroke="none">
<path d="M1138 3989 c-26 -15 -23 -49 4 -49 12 0 35 -16 55 -39 19 -22 52 -47
77 -56 33 -13 43 -21 39 -35 -3 -10 1 -21 8 -25 8 -6 10 -4 4 5 -10 16 12 30
47 30 23 0 27 -5 33 -40 9 -52 25 -52 25 0 0 34 4 41 25 46 31 8 26 13 64 -63
17 -35 36 -63 41 -63 15 0 12 20 -4 26 -15 6 -46 73 -46 98 0 8 19 25 43 39
23 14 53 43 67 66 17 28 32 41 48 41 12 0 22 6 22 13 0 10 -17 13 -59 13 -45
0 -58 -3 -54 -13 7 -18 -7 -16 -31 5 -20 16 -20 16 -7 -1 21 -27 4 -33 -22 -9
-13 12 -27 22 -33 22 -5 0 2 -9 16 -20 18 -14 21 -20 9 -20 -9 0 -24 9 -34 20
-10 11 -23 20 -28 20 -6 0 0 -11 13 -25 31 -33 18 -32 -28 2 l-37 27 29 -32
c37 -40 22 -42 -24 -2 -19 16 -39 29 -45 30 -5 0 6 -13 25 -30 23 -19 29 -29
19 -30 -8 0 -28 14 -44 30 -16 17 -34 30 -39 30 -6 0 5 -14 24 -30 23 -19 29
-30 19 -30 -9 0 -24 9 -35 21 -10 11 -28 26 -39 31 -14 8 -12 2 9 -21 38 -40
25 -40 -28 1 -37 29 -39 29 -17 5 32 -36 4 -38 -29 -2 -25 26 -53 31 -82 14z
m452 -40 c0 -19 -21 -50 -31 -44 -14 9 -11 27 4 19 8 -5 9 -4 2 4 -7 7 -26 6
-65 -4 -62 -16 -170 -18 -218 -5 -37 11 -42 0 -15 -33 9 -12 2 -7 -17 11 -19
18 -31 35 -28 38 3 3 36 1 73 -6 53 -9 88 -9 154 0 47 7 92 16 101 21 21 13
40 12 40 -1z"/>
<path d="M1860 3989 c0 -29 35 -78 66 -95 19 -11 41 -30 47 -44 12 -24 17 -25
109 -28 110 -3 113 -1 123 79 l5 44 -14 -50 c-8 -27 -15 -53 -16 -57 0 -5 -17
-7 -37 -7 -38 1 -38 1 -8 9 23 6 12 8 -42 9 -41 0 -75 6 -79 12 -4 6 -13 32
-20 58 -14 45 -12 12 2 -43 8 -32 -12 -36 -22 -4 -4 12 -10 45 -14 73 l-8 50
-1 -44 c-1 -35 -4 -41 -14 -32 -8 6 -16 9 -19 6 -3 -3 -11 13 -18 35 -12 36
-40 56 -40 29z"/>
<path d="M2212 3980 c0 -14 2 -19 5 -12 2 6 2 18 0 25 -3 6 -5 1 -5 -13z"/>
<path d="M2880 3995 c0 -21 73 -114 110 -140 75 -52 173 -71 204 -40 8 8 19
15 25 15 20 0 11 22 -19 51 -17 17 -41 29 -55 29 -38 0 -86 24 -119 59 -25 26
-37 31 -78 31 -47 0 -48 -1 -37 -21 22 -42 94 -111 139 -134 25 -13 39 -24 32
-25 -42 -1 -138 78 -181 150 -12 19 -21 31 -21 25z"/>
<path d="M751 3863 c-1 -92 -13 -133 -37 -133 -14 0 -16 7 -11 43 3 24 9 52
13 62 9 24 -85 -77 -104 -111 -18 -35 -25 -29 -17 14 7 42 3 39 -44 -27 -17
-24 -31 -51 -31 -61 0 -9 -14 -29 -31 -46 -17 -16 -37 -41 -45 -56 -16 -31
-64 -40 -64 -13 0 8 -6 15 -14 15 -8 0 -17 -21 -25 -57 -15 -77 -14 -103 4
-103 8 0 15 7 15 15 0 16 18 20 35 7 6 -4 16 -29 23 -57 36 -144 180 -237 318
-206 70 16 135 59 170 114 16 25 38 48 49 52 13 4 16 8 8 12 -19 7 -17 73 2
73 8 0 15 3 15 6 0 3 -7 12 -15 20 -8 9 -15 25 -15 37 0 12 -9 42 -20 66 -11
23 -17 47 -14 52 3 6 2 29 -2 52 -6 37 -8 39 -15 20 -12 -33 -16 -29 -17 20
-1 23 -8 62 -16 87 l-15 45 5 -60 c4 -45 2 -65 -9 -80 -15 -19 -15 -17 -10 21
4 35 0 52 -31 107 -20 36 -41 85 -45 109 -8 39 -9 35 -10 -39z m34 -223 c46
-19 98 -68 121 -113 22 -41 29 -133 14 -185 -14 -54 -80 -128 -135 -153 -24
-11 -64 -19 -101 -19 -159 0 -278 144 -244 296 36 160 193 239 345 174z m-377
-138 c8 -6 10 -19 6 -40 -5 -26 -11 -32 -31 -32 -21 0 -24 4 -19 23 3 12 6 30
6 40 0 18 17 22 38 9z"/>
<path d="M621 3646 c7 -7 181 -37 186 -32 12 12 -75 36 -130 36 -33 0 -58 -2
-56 -4z"/>
<path d="M566 3622 c-3 -5 54 -19 127 -31 73 -12 143 -25 157 -28 23 -5 24 -4
10 11 -9 9 -59 24 -125 36 -120 22 -161 24 -169 12z"/>
<path d="M526 3591 c-4 -5 27 -14 66 -21 40 -6 122 -21 181 -32 103 -19 132
-19 111 1 -9 9 -292 61 -331 61 -12 0 -24 -4 -27 -9z"/>
<path d="M495 3560 c-3 -5 1 -10 9 -10 9 0 16 -4 16 -8 0 -5 -10 -8 -21 -8
-33 1 -34 -22 -2 -27 27 -4 27 -4 -4 -6 -40 -1 -42 -13 -5 -29 l27 -12 -32 5
c-25 3 -33 1 -33 -10 0 -9 10 -15 25 -15 14 0 25 -5 25 -10 0 -6 -11 -8 -25
-4 -19 5 -25 2 -25 -9 0 -9 11 -17 28 -20 l27 -4 -27 -2 c-34 -1 -36 -18 -5
-31 18 -7 19 -9 4 -9 -10 -1 -17 -6 -15 -13 5 -13 395 -84 405 -74 4 3 -2 13
-13 22 -18 15 -18 15 9 9 20 -4 27 -1 27 9 0 8 -10 17 -22 19 -17 3 -14 5 10
6 17 0 32 5 32 11 0 5 -15 14 -32 19 l-33 10 34 -2 c20 -1 36 3 38 11 3 6 -3
12 -14 12 -10 0 -25 5 -33 11 -11 8 -7 9 18 4 25 -5 32 -3 32 9 0 10 -9 16
-25 16 -14 0 -25 4 -25 9 0 4 12 6 26 3 34 -6 28 19 -7 29 l-24 7 23 1 c14 1
22 6 20 13 -3 8 -75 25 -189 45 -209 36 -216 37 -224 23z m123 -58 c7 -9 9
-23 6 -32 -4 -8 -8 -32 -8 -52 -2 -50 -24 -72 -65 -63 -35 8 -35 6 -21 77 22
107 18 101 48 93 15 -3 33 -14 40 -23z m96 -5 c14 -11 16 -22 10 -80 -8 -75
-23 -93 -70 -81 -24 6 -26 9 -20 48 4 22 10 60 13 84 5 35 9 42 27 42 12 0 30
-6 40 -13z m111 -21 c17 -12 17 -18 5 -90 -7 -42 -16 -78 -19 -80 -3 -3 -21 2
-40 10 l-33 14 7 58 c11 89 38 119 80 88z"/>
<path d="M570 3475 c0 -9 5 -15 11 -13 6 2 11 8 11 13 0 5 -5 11 -11 13 -6 2
-11 -4 -11 -13z"/>
<path d="M560 3405 c0 -14 4 -25 9 -25 12 0 23 29 15 41 -10 18 -24 9 -24 -16z"/>
<path d="M680 3460 c0 -11 5 -20 10 -20 6 0 10 9 10 20 0 11 -4 20 -10 20 -5
0 -10 -9 -10 -20z"/>
<path d="M667 3388 c-7 -25 -3 -33 12 -23 13 8 15 45 2 45 -5 0 -11 -10 -14
-22z"/>
<path d="M787 3453 c-12 -19 -18 -101 -9 -107 12 -7 17 8 27 72 4 26 3 42 -4
42 -5 0 -12 -3 -14 -7z"/>
<path d="M480 3296 c29 -26 395 -78 369 -52 -4 5 -350 66 -370 66 -10 0 -10
-3 1 -14z"/>
<path d="M511 3256 c17 -19 249 -62 276 -52 9 4 14 8 12 10 -2 2 -58 14 -124
25 -66 12 -133 24 -150 27 -28 6 -29 5 -14 -10z"/>
<path d="M566 3211 c18 -16 78 -31 127 -31 67 0 53 10 -35 26 -89 16 -105 17
-92 5z"/>
<path d="M2470 3928 c0 -5 -22 -8 -50 -8 -27 0 -50 -4 -50 -9 0 -5 18 -17 40
-27 22 -10 38 -20 35 -22 -7 -7 151 -60 213 -72 43 -8 66 -7 108 6 30 8 54 18
54 21 0 10 -65 73 -75 73 -5 0 -3 -5 5 -11 13 -9 13 -10 0 -6 -8 3 -50 13 -92
23 -42 9 -75 21 -73 25 3 4 -22 9 -55 11 -33 1 -60 0 -60 -4z"/>
<path d="M115 3919 c-9 -13 -14 -9 83 -62 45 -25 94 -55 109 -66 14 -12 33
-21 42 -21 10 0 26 -7 37 -15 27 -20 36 -18 32 6 -3 23 -7 26 -78 59 -62 29
-121 62 -157 88 -34 24 -58 28 -68 11z"/>
<path d="M3348 3924 c-16 -16 -6 -22 42 -29 49 -7 50 -7 51 -43 l1 -37 9 45
c5 26 5 48 0 53 -12 12 -94 21 -103 11z"/>
<path d="M2633 3913 c9 -2 23 -2 30 0 6 3 -1 5 -18 5 -16 0 -22 -2 -12 -5z"/>
<path d="M3818 3874 c-24 -40 -30 -44 -48 -34 -16 9 -22 8 -27 -5 -3 -10 -13
-15 -24 -12 -11 3 -19 -2 -22 -15 -4 -13 -10 -17 -18 -12 -8 4 -10 3 -5 -4 9
-14 -62 -155 -74 -147 -5 3 -12 0 -16 -6 -4 -8 -3 -9 4 -5 18 11 15 1 -18 -65
-17 -33 -35 -57 -40 -54 -6 4 -7 -1 -3 -11 5 -13 3 -15 -7 -9 -9 5 -11 4 -6
-4 4 -6 -1 -26 -12 -44 l-19 -33 66 -35 67 -35 110 205 c98 182 109 207 95
219 -15 12 -14 14 1 24 15 11 15 13 0 24 -15 11 -15 16 7 54 31 56 23 59 -11
4z"/>
<path d="M2688 3903 c7 -3 16 -2 19 1 4 3 -2 6 -13 5 -11 0 -14 -3 -6 -6z"/>
<path d="M92 3879 c2 -6 25 -19 51 -29 25 -10 68 -33 94 -53 26 -19 59 -38 73
-42 14 -4 39 -19 56 -32 27 -20 32 -21 38 -8 4 12 -8 22 -52 41 -31 14 -64 32
-72 39 -20 18 -167 95 -181 95 -6 0 -9 -5 -7 -11z"/>
<path d="M72 3850 c2 -7 32 -23 67 -35 35 -13 75 -35 90 -48 14 -14 47 -35 72
-46 26 -10 50 -24 53 -30 4 -6 14 -11 23 -11 27 0 -16 40 -67 62 -25 11 -60
31 -78 44 -32 25 -93 55 -141 69 -16 5 -22 3 -19 -5z"/>
<path d="M52 3798 c2 -6 27 -19 56 -29 28 -10 68 -31 89 -48 42 -34 131 -81
152 -81 25 0 -10 31 -57 51 -24 11 -61 34 -82 52 -22 18 -63 41 -93 50 -64 20
-70 21 -65 5z"/>
<path d="M1291 3749 c-13 -36 -15 -76 -3 -65 4 4 7 15 8 24 3 46 5 53 14 47 6
-3 7 1 4 9 -8 22 -10 20 -23 -15z"/>
<path d="M2938 3730 c-3 -26 -19 -68 -38 -99 -24 -38 -35 -70 -38 -108 -3 -39
-10 -56 -23 -64 -17 -9 -19 -6 -19 28 -1 38 -1 38 -24 -22 -35 -91 -47 -127
-58 -167 -7 -24 -17 -38 -27 -38 -15 -1 -15 -2 0 -13 9 -7 18 -26 22 -44 5
-26 3 -33 -14 -38 -27 -9 -29 -6 -34 51 -2 27 -4 52 -4 57 -1 4 -8 7 -17 7
-15 0 -16 -9 -9 -72 3 -40 9 -76 11 -80 9 -14 34 -8 34 7 0 9 9 15 23 15 16 0
28 -10 39 -33 57 -119 193 -180 319 -144 101 30 172 102 199 205 7 28 16 42
28 42 16 1 16 2 0 14 -10 7 -21 27 -24 44 -5 25 -2 31 16 37 12 4 23 5 25 3 2
-2 9 -58 15 -115 0 -2 7 -3 16 -3 13 0 15 7 10 31 -3 17 -6 53 -6 80 0 42 -3
49 -20 49 -11 0 -20 -7 -20 -15 0 -29 -45 -17 -64 18 -10 17 -28 51 -41 74
-12 23 -34 56 -49 73 l-26 32 0 -26 c0 -45 -31 -29 -49 25 -6 19 -29 53 -51
74 -22 22 -40 46 -40 54 0 10 -3 12 -10 5 -7 -7 -5 -29 5 -67 19 -74 19 -76
-7 -86 -47 -18 -59 29 -37 141 8 37 8 66 2 84 -9 28 -10 28 -15 -16z m189
-252 c92 -46 146 -133 146 -236 1 -246 -294 -361 -460 -179 -26 29 -47 64 -57
98 -20 66 -20 92 -1 157 46 155 227 232 372 160z"/>
<path d="M2961 3458 c2 -30 2 -30 6 -6 4 24 9 27 51 31 l47 3 -52 2 -53 2 1
-32z"/>
<path d="M2920 3460 c0 -11 2 -20 4 -20 2 0 6 9 9 20 3 11 1 20 -4 20 -5 0 -9
-9 -9 -20z"/>
<path d="M3078 3473 c7 -3 16 -2 19 1 4 3 -2 6 -13 5 -11 0 -14 -3 -6 -6z"/>
<path d="M3110 3467 c0 -2 21 -19 47 -37 27 -20 41 -36 34 -38 -7 -2 -17 2
-22 9 -7 11 -9 10 -9 -3 0 -26 -28 -22 -33 5 l-4 22 -2 -22 c0 -14 -8 -23 -18
-24 -10 -1 -40 -3 -67 -5 -33 -3 -52 0 -58 8 -6 10 -8 8 -8 -4 0 -26 -28 -22
-33 5 -4 21 -4 21 -6 1 -1 -23 -30 -33 -82 -30 -16 1 -29 0 -29 -3 0 -17 21
-191 26 -218 5 -26 3 -33 -10 -33 -9 0 -16 4 -16 8 0 5 -7 9 -15 9 -20 0 -20
-1 18 -43 l32 -37 5 29 c4 21 11 29 26 30 12 1 33 4 47 8 16 4 27 1 30 -7 4
-9 6 -9 6 1 1 18 29 14 34 -5 4 -17 5 -17 6 0 2 25 29 21 34 -5 4 -20 4 -19 6
5 1 24 5 27 39 28 20 1 51 3 68 5 26 3 33 -1 37 -18 8 -28 -12 -56 -24 -36 -6
9 -9 5 -9 -11 l0 -24 24 22 c23 22 26 44 13 101 -4 14 -8 48 -11 75 -3 28 -8
71 -12 98 -6 40 -4 47 10 47 9 0 16 -8 17 -17 0 -11 3 -13 6 -5 2 6 10 9 16 5
23 -14 -35 57 -61 75 -36 25 -52 34 -52 29z m32 -134 c8 -10 18 -43 22 -73 3
-30 9 -65 12 -77 5 -19 3 -21 -32 -18 -50 5 -61 19 -68 90 -6 62 -2 78 24 88
24 9 26 8 42 -10z m-101 -24 c6 -12 8 -30 5 -42 -3 -12 -1 -27 5 -33 6 -7 9
-25 7 -41 -2 -21 -10 -29 -36 -37 -20 -5 -36 -5 -41 0 -5 5 -12 46 -16 92 l-7
82 36 0 c26 0 38 -6 47 -21z m-116 -6 c11 -11 15 -26 11 -44 -3 -16 -1 -31 4
-34 14 -9 12 -59 -2 -73 -7 -7 -26 -12 -44 -12 l-31 0 -7 80 c-4 44 -5 84 -1
90 10 16 52 12 70 -7z m-75 -229 c0 -14 -3 -14 -15 -4 -8 7 -15 14 -15 16 0 2
7 4 15 4 8 0 15 -7 15 -16z"/>
<path d="M3106 3311 c-12 -19 5 -111 21 -111 11 0 12 11 7 53 -7 54 -17 76
-28 58z"/>
<path d="M2992 3286 c1 -10 8 -17 13 -17 15 1 12 24 -3 29 -9 3 -13 -2 -10
-12z"/>
<path d="M3000 3205 c0 -17 5 -25 13 -22 6 2 12 12 12 22 0 10 -6 20 -12 23
-8 2 -13 -6 -13 -23z"/>
<path d="M2880 3271 c0 -12 6 -21 16 -21 9 0 14 7 12 17 -5 25 -28 28 -28 4z"/>
<path d="M2890 3195 c0 -17 5 -25 13 -22 6 2 12 12 12 22 0 10 -6 20 -12 23
-8 2 -13 -6 -13 -23z"/>
<path d="M2875 3450 c-3 -5 -1 -10 4 -10 6 0 11 5 11 10 0 6 -2 10 -4 10 -3 0
-8 -4 -11 -10z"/>
<path d="M3002 3435 c0 -16 2 -22 5 -12 2 9 2 23 0 30 -3 6 -5 -1 -5 -18z"/>
<path d="M3042 3430 c0 -19 2 -27 5 -17 2 9 2 25 0 35 -3 9 -5 1 -5 -18z"/>
<path d="M2825 3410 c-16 -16 -24 -30 -19 -30 5 0 15 9 22 20 7 12 17 18 22
15 6 -3 10 1 10 9 0 21 -2 21 -35 -14z"/>
<path d="M3082 3415 c0 -16 2 -22 5 -12 2 9 2 23 0 30 -3 6 -5 -1 -5 -18z"/>
<path d="M2892 3390 c0 -14 2 -19 5 -12 2 6 2 18 0 25 -3 6 -5 1 -5 -13z"/>
<path d="M2776 3334 c-4 -9 -4 -19 -1 -22 2 -3 7 3 11 12 4 9 4 19 1 22 -2 3
-7 -3 -11 -12z"/>
<path d="M3230 3345 c0 -5 5 -17 10 -25 5 -8 10 -10 10 -5 0 6 -5 17 -10 25
-5 8 -10 11 -10 5z"/>
<path d="M2762 3280 c0 -14 2 -19 5 -12 2 6 2 18 0 25 -3 6 -5 1 -5 -13z"/>
<path d="M2792 3265 c0 -16 2 -22 5 -12 2 9 2 23 0 30 -3 6 -5 -1 -5 -18z"/>
<path d="M3250 3280 c0 -5 -9 -10 -20 -10 -11 0 -20 -4 -20 -9 0 -5 9 -7 19
-4 17 4 20 -1 24 -34 3 -32 4 -30 5 15 1 28 0 52 -3 52 -3 0 -5 -4 -5 -10z"/>
<path d="M2762 3200 c0 -14 2 -19 5 -12 2 6 2 18 0 25 -3 6 -5 1 -5 -13z"/>
<path d="M3221 3204 c0 -11 3 -14 6 -6 3 7 2 16 -1 19 -3 4 -6 -2 -5 -13z"/>
<path d="M2802 3175 c0 -16 2 -22 5 -12 2 9 2 23 0 30 -3 6 -5 -1 -5 -18z"/>
<path d="M3230 3151 c-6 -12 -7 -21 -1 -21 10 0 24 30 17 37 -2 3 -9 -5 -16
-16z"/>
<path d="M3082 3085 c0 -16 2 -22 5 -12 2 9 2 23 0 30 -3 6 -5 -1 -5 -18z"/>
<path d="M3122 3065 c0 -16 2 -22 5 -12 2 9 2 23 0 30 -3 6 -5 -1 -5 -18z"/>
<path d="M2891 3064 c0 -11 3 -14 6 -6 3 7 2 16 -1 19 -3 4 -6 -2 -5 -13z"/>
<path d="M2932 3050 c0 -14 2 -19 5 -12 2 6 2 18 0 25 -3 6 -5 1 -5 -13z"/>
<path d="M2972 3040 c0 -14 2 -19 5 -12 2 6 2 18 0 25 -3 6 -5 1 -5 -13z"/>
<path d="M2870 3036 c0 -3 9 -10 20 -16 11 -6 20 -8 20 -6 0 3 -9 10 -20 16
-11 6 -20 8 -20 6z"/>
<path d="M3011 3024 c0 -11 3 -14 6 -6 3 7 2 16 -1 19 -3 4 -6 -2 -5 -13z"/>
<path d="M3124 3024 c-18 -14 -18 -15 4 -4 12 6 22 13 22 15 0 8 -5 6 -26 -11z"/>
<path d="M3050 3016 c0 -8 -10 -17 -22 -19 -20 -4 -19 -4 5 -6 21 -1 27 4 27
19 0 11 -2 20 -5 20 -3 0 -5 -6 -5 -14z"/>
<path d="M3085 3010 c-3 -5 -1 -10 4 -10 6 0 11 5 11 10 0 6 -2 10 -4 10 -3 0
-8 -4 -11 -10z"/>
<path d="M2928 3003 c7 -3 16 -2 19 1 4 3 -2 6 -13 5 -11 0 -14 -3 -6 -6z"/>
<path d="M2968 2993 c7 -3 16 -2 19 1 4 3 -2 6 -13 5 -11 0 -14 -3 -6 -6z"/>
<path d="M3404 3729 c-3 -6 -16 -9 -29 -7 -20 4 -21 2 -17 -43 7 -70 -5 -118
-31 -130 l-22 -10 22 5 c13 2 26 0 29 -5 3 -5 14 -9 26 -9 20 0 20 0 -1 18
-20 16 -20 22 -11 77 5 33 19 72 30 87 11 16 18 28 16 28 -3 0 -8 -5 -12 -11z"/>
<path d="M1880 3685 c-263 -32 -322 -42 -332 -57 -13 -21 -9 -31 10 -22 9 4
48 12 86 18 59 9 70 8 80 -6 10 -14 20 -15 91 -3 134 21 225 52 225 75 0 12
-26 11 -160 -5z"/>
<path d="M2277 3686 c-71 -26 -112 -71 -127 -141 -16 -70 2 -124 50 -147 31
-15 57 -16 215 -11 169 6 180 8 202 29 32 32 32 108 0 152 -71 95 -241 155
-340 118z m148 -12 c124 -32 205 -107 205 -190 0 -73 -18 -80 -217 -86 -229
-8 -253 3 -253 115 0 99 75 170 185 176 12 1 48 -6 80 -15z"/>
<path d="M2288 3663 c-24 -6 -23 -20 2 -33 11 -6 20 -17 20 -25 0 -21 14 -25
42 -11 23 12 24 12 20 -10 -6 -34 27 -32 70 3 18 15 27 20 19 10 -12 -15 -11
-17 15 -18 28 -1 28 -1 -6 -11 -19 -5 -39 -14 -45 -19 -17 -17 24 -39 74 -41
46 -1 46 -1 7 -5 -21 -3 -56 3 -78 12 -46 18 -58 13 -40 -15 19 -31 14 -35
-13 -10 -14 13 -25 18 -25 12 0 -8 -9 -10 -25 -6 -15 4 -25 2 -25 -4 0 -6 -12
-25 -26 -42 -15 -17 -24 -33 -21 -36 10 -10 217 8 217 18 0 6 7 5 15 -2 12
-10 15 -9 15 6 1 18 1 18 14 2 19 -26 71 -23 90 4 22 32 20 38 -13 38 -17 0
-32 4 -35 8 -3 5 8 6 25 4 25 -4 29 -1 29 19 -1 38 -93 126 -122 117 -7 -3
-19 3 -29 13 -22 22 -99 36 -109 19 -5 -9 -9 -9 -14 -1 -7 11 -18 12 -48 4z"/>
<path d="M2217 3622 c-23 -25 -47 -86 -47 -119 0 -36 25 -73 49 -73 29 0 60
32 67 66 6 30 4 31 -38 40 l-43 8 43 4 c23 2 40 7 37 13 -4 5 -1 9 4 9 20 0
11 39 -11 54 -29 21 -41 20 -61 -2z"/>
<path d="M2836 3584 c-4 -20 -5 -38 -2 -41 2 -3 8 11 12 31 3 21 4 39 1 42 -2
3 -8 -11 -11 -32z"/>
<path d="M1245 3590 c-23 -11 -49 -34 -59 -51 -19 -31 -19 -88 -3 -359 2 -20
-3 -26 -25 -28 -16 -2 -28 -8 -28 -14 0 -7 26 -9 78 -4 42 3 117 9 165 12 l89
7 -4 56 c-2 52 1 61 45 132 52 84 54 91 31 113 -22 23 -40 20 -69 -11 l-25
-28 0 40 c0 111 -102 181 -195 135z"/>
<path d="M3091 3605 c1 -19 18 -51 18 -35 0 8 -4 22 -9 30 -5 8 -9 11 -9 5z"/>
<path d="M1884 3459 c4 -29 13 -57 19 -61 10 -7 106 -1 115 7 8 7 -30 65 -42
65 -8 0 -24 -16 -36 -36 -12 -19 -25 -33 -28 -30 -2 3 8 22 23 42 22 29 25 38
14 45 -8 5 -19 9 -26 9 -6 0 -19 3 -29 7 -15 6 -16 1 -10 -48z"/>
<path d="M1814 3477 l-26 -23 41 -28 c23 -16 41 -31 41 -33 0 -5 -15 4 -53 30
-33 22 -44 16 -53 -32 l-7 -33 49 7 c68 10 77 21 68 83 -7 59 -19 64 -60 29z"/>
<path d="M0 3461 c0 -5 17 -12 37 -16 52 -9 141 -57 188 -100 l40 -36 -57 40
c-55 39 -122 71 -180 85 l-28 6 0 -150 0 -150 83 0 c46 0 109 -5 141 -11 78
-14 106 3 106 64 0 105 -142 232 -302 271 -16 3 -28 2 -28 -3z m50 -141 c5
-19 11 -53 15 -75 7 -54 -7 -22 -33 75 -15 55 -17 70 -6 55 8 -11 19 -35 24
-55z m95 -22 c8 -29 15 -63 14 -77 0 -14 -9 7 -20 47 -10 40 -21 78 -25 84 -4
7 -3 8 4 4 6 -4 18 -30 27 -58z m101 -64 c3 -23 4 -49 1 -56 -3 -7 -6 -1 -6
13 -1 15 -8 46 -16 69 -18 52 -19 60 0 36 8 -10 17 -38 21 -62z"/>
<path d="M3883 3451 c-58 -27 -93 -83 -100 -158 -3 -47 0 -64 16 -90 26 -41
78 -63 147 -63 l54 0 0 150 0 150 -43 0 c-23 0 -59 -9 -80 -20 -46 -25 -49
-19 -3 10 21 12 52 21 80 22 25 0 46 4 46 9 0 16 -74 9 -117 -10z m76 -140 c6
-19 11 -48 10 -65 0 -23 -4 -17 -15 27 -7 32 -19 68 -25 80 -10 19 -10 20 4 7
8 -8 19 -30 26 -49z m-70 -81 l-1 -25 -7 25 c-4 14 -11 39 -14 55 l-6 30 14
-30 c8 -16 14 -41 14 -55z"/>
<path d="M1006 3423 c-5 -19 -12 -58 -21 -111 -5 -28 -3 -33 12 -30 13 2 20
16 24 53 4 28 10 62 14 78 6 21 4 27 -8 27 -9 0 -18 -8 -21 -17z"/>
<path d="M2033 3375 c0 -22 2 -30 4 -17 2 12 2 30 0 40 -3 9 -5 -1 -4 -23z"/>
<path d="M1953 3383 c-18 -2 -33 -8 -33 -12 0 -5 18 -21 41 -37 45 -31 59 -24
59 29 0 28 1 28 -67 20z"/>
<path d="M1793 3353 c-28 -5 -29 -23 -4 -54 21 -27 34 -21 64 30 l18 31 -28
-1 c-15 -1 -38 -4 -50 -6z"/>
<path d="M1903 3344 c3 -11 8 -36 12 -56 7 -42 12 -45 41 -23 26 20 39 19 23
-2 -11 -15 -10 -14 9 1 12 11 22 21 22 24 0 3 -3 2 -6 -1 -4 -3 -15 4 -24 16
-10 12 -32 30 -50 41 -31 18 -32 18 -27 0z"/>
<path d="M1856 3313 c-32 -49 -28 -63 19 -63 33 0 34 1 28 33 -14 73 -18 75
-47 30z"/>
<path d="M2315 3223 c-22 -25 -38 -48 -36 -52 2 -3 28 -27 58 -53 49 -43 56
-46 81 -37 26 10 32 5 189 -156 89 -92 166 -164 171 -161 6 3 -66 79 -159 167
-93 88 -169 165 -169 171 0 5 5 18 10 28 9 16 1 29 -47 79 l-58 60 -40 -46z
m90 -20 l38 -48 -41 40 c-36 33 -51 55 -39 55 1 0 20 -21 42 -47z m-10 -23
c27 -27 47 -50 44 -50 -3 0 -27 23 -54 50 -27 28 -47 50 -44 50 3 0 27 -22 54
-50z m-10 -20 c27 -27 47 -50 44 -50 -3 0 -27 23 -54 50 -27 28 -47 50 -44 50
3 0 27 -22 54 -50z m-20 -12 c28 -29 34 -38 15 -20 -46 41 -63 42 -24 0 27
-29 25 -29 -18 6 -27 21 -48 41 -48 44 0 3 5 1 12 -6 7 -7 17 -12 22 -12 6 0
5 5 -2 12 -11 11 -16 28 -9 28 1 0 25 -24 52 -52z"/>
<path d="M3490 3183 c-12 -15 -12 -16 0 -5 21 18 40 15 40 -7 0 -11 4 -22 10
-26 5 -3 7 -12 4 -19 -8 -20 14 -30 33 -14 15 12 15 11 4 -9 -7 -15 -8 -23 -1
-23 5 0 10 6 11 13 0 6 5 1 10 -12 6 -14 15 -21 24 -18 10 4 12 1 8 -11 -6
-14 -4 -15 9 -4 13 10 16 9 21 -9 4 -14 11 -20 21 -16 11 4 13 1 9 -11 -6 -15
-5 -15 10 -3 15 12 17 11 17 -9 0 -16 4 -20 16 -16 9 3 19 6 23 6 3 0 8 12 9
28 1 21 0 23 -8 12 -7 -11 -10 -11 -10 -2 0 7 -5 10 -11 6 -8 -4 -9 1 -4 17 7
21 6 22 -9 10 -14 -11 -16 -11 -16 2 0 11 -7 15 -21 12 -17 -3 -19 0 -13 18 6
19 5 20 -8 9 -13 -10 -18 -9 -29 5 -12 14 -12 16 0 8 10 -5 12 -4 7 4 -6 9
-11 9 -23 -1 -14 -11 -15 -10 -9 8 4 14 2 21 -8 21 -9 0 -12 -5 -9 -11 4 -6
-1 -5 -10 3 -9 7 -14 18 -10 25 3 6 0 6 -8 -1 -19 -19 -27 -16 -31 9 -4 29
-31 34 -48 11z"/>
<path d="M1630 3130 c-102 -35 -167 -141 -177 -290 -6 -84 13 -184 48 -252 42
-82 162 -188 214 -188 28 0 28 30 0 81 -47 87 -44 209 5 254 20 18 21 17 46
-6 14 -13 33 -37 41 -53 19 -37 21 -128 4 -188 -27 -96 9 -103 90 -18 123 129
148 344 61 515 -73 143 -190 194 -332 145z m208 -60 c57 -25 99 -56 114 -83
10 -20 8 -19 -23 6 -49 39 -101 65 -161 81 -29 7 -54 18 -56 24 -4 13 68 -3
126 -28z m-138 25 c0 -2 -24 -16 -52 -31 -72 -36 -114 -69 -150 -118 -23 -30
-28 -35 -23 -16 13 41 35 68 85 105 63 46 140 79 140 60z m85 -54 c73 -26 111
-55 146 -109 53 -83 36 -198 -39 -274 -20 -21 -42 -38 -50 -38 -8 0 5 18 28
41 51 50 70 93 70 158 0 88 -35 143 -121 186 -76 39 -110 41 -169 9 -168 -92
-180 -288 -24 -380 49 -29 46 -46 -3 -21 -140 73 -169 254 -58 362 45 43 115
84 148 85 10 0 42 -9 72 -19z m-6 -57 c117 -59 150 -210 62 -288 -28 -26 -40
-12 -14 17 78 85 47 210 -65 259 -44 20 -47 20 -79 3 -18 -10 -47 -39 -64 -64
-27 -41 -30 -52 -27 -104 4 -50 9 -62 41 -95 45 -46 48 -61 6 -31 -109 77 -84
246 46 317 28 16 35 15 94 -14z m-13 -57 c21 -19 39 -46 43 -67 7 -35 -3 -97
-20 -114 -17 -18 -19 1 -4 37 19 47 10 90 -28 128 -35 35 -44 34 -74 -11 -28
-41 -29 -74 -3 -125 23 -45 23 -45 10 -45 -21 0 -52 82 -47 122 6 43 50 108
73 108 8 0 30 -15 50 -33z m-12 -105 c-6 -9 -20 -17 -30 -17 -23 0 -31 38 -12
59 11 13 16 12 33 -5 15 -15 17 -23 9 -37z m246 -116 c0 -51 -145 -189 -165
-157 -3 5 11 17 30 27 41 19 113 97 121 131 8 30 14 29 14 -1z m-382 -142 c55
-20 74 -34 47 -34 -32 0 -118 45 -146 76 -15 16 -30 40 -34 54 -6 19 3 13 39
-27 31 -34 62 -57 94 -69z m332 -13 c-12 -23 -64 -57 -102 -66 -39 -10 -35 8
5 23 17 6 48 23 67 36 43 31 43 31 30 7z m-278 -61 c15 0 30 -4 33 -10 4 -6
-7 -10 -27 -10 -37 0 -118 34 -118 49 0 6 19 1 43 -9 23 -11 54 -20 69 -20z"/>
<path d="M3383 3135 c-3 -9 -3 -19 1 -22 3 -4 6 2 6 11 0 13 6 17 20 13 11 -3
18 -1 14 4 -9 14 -34 10 -41 -6z"/>
<path d="M3428 3110 c6 -8 12 -24 12 -37 0 -26 10 -29 29 -10 11 10 12 7 6
-13 -7 -22 -6 -23 8 -12 12 11 15 10 13 -5 -2 -26 24 -22 43 7 9 14 11 21 4
16 -8 -4 -13 -2 -13 4 0 7 -7 9 -17 5 -15 -5 -16 -4 -5 6 17 18 15 34 -3 19
-15 -13 -35 -6 -35 13 0 7 4 6 10 -3 6 -9 10 -10 10 -3 0 17 -14 23 -30 13 -9
-5 -20 -4 -30 3 -12 9 -13 9 -2 -3z"/>
<path d="M2150 3092 c0 -12 122 -96 141 -97 9 -1 36 -17 60 -35 57 -44 73 -52
34 -18 -16 15 -47 37 -68 50 -21 13 -65 42 -97 66 -59 43 -70 48 -70 34z"/>
<path d="M326 3051 c-9 -14 -48 -352 -42 -366 9 -25 43 -18 48 10 4 21 1 25
-19 25 -22 0 -23 3 -17 37 4 20 7 45 8 55 1 10 8 23 16 28 10 7 11 10 3 10 -7
0 -13 7 -13 16 0 11 6 15 20 11 11 -3 23 -1 26 4 3 5 -7 9 -21 9 -17 0 -25 5
-22 13 2 6 13 12 25 12 23 1 27 7 19 28 -4 9 -6 9 -6 0 -1 -7 -8 -13 -16 -13
-12 0 -14 10 -9 53 3 28 9 55 12 58 4 4 30 4 57 0 l50 -6 -3 -35 c-2 -19 -8
-37 -12 -40 -4 -3 -2 -10 4 -16 9 -8 15 -7 24 3 8 8 9 13 2 13 -23 0 -8 29 18
33 l27 4 -27 2 c-20 1 -26 5 -22 16 5 12 17 14 58 9 28 -3 61 -6 73 -6 19 0
22 -5 21 -37 -1 -20 -6 -39 -12 -43 -8 -5 -7 -8 1 -8 7 0 10 -7 7 -15 -7 -18
-30 -20 -37 -2 -3 7 -6 5 -6 -5 -1 -11 6 -18 18 -18 18 0 19 -5 14 -57 -3 -32
-9 -59 -13 -61 -5 -2 -6 -12 -3 -22 6 -22 -22 -29 -30 -7 -3 7 -6 5 -6 -5 -1
-12 6 -18 19 -18 12 0 20 -7 20 -16 0 -12 -7 -15 -25 -12 -16 4 -25 1 -25 -7
0 -8 8 -11 20 -8 14 4 20 0 20 -10 0 -10 -10 -15 -35 -15 -19 0 -35 3 -35 7 0
3 -19 6 -42 6 l-43 0 3 35 c2 19 9 38 14 41 6 4 5 8 -3 11 -20 7 1 30 22 25
11 -3 19 -1 19 4 0 5 -10 9 -21 9 -16 0 -20 5 -16 20 3 11 1 23 -4 26 -5 3 -9
-5 -10 -18 0 -13 -3 -32 -6 -43 -2 -11 -4 -30 -4 -42 0 -13 -3 -23 -8 -23 -5
0 -7 -9 -4 -20 4 -14 0 -20 -10 -20 -8 0 -17 4 -19 9 -1 5 -9 3 -16 -5 -11
-12 -9 -14 12 -14 17 0 38 -13 60 -37 31 -34 33 -42 30 -88 -3 -27 -9 -66 -14
-85 -16 -59 -40 -274 -34 -298 4 -14 13 -22 23 -20 13 3 19 30 33 133 22 176
29 252 22 238 -10 -23 -25 -14 -22 14 3 29 28 45 28 17 0 -27 11 -9 13 22 2
18 11 33 24 39 11 6 28 17 36 24 11 8 38 11 79 9 l63 -3 3 35 c2 19 0 32 -4
28 -3 -4 -7 -18 -8 -30 -1 -17 -7 -22 -21 -21 -11 2 -37 4 -58 4 -37 1 -38 2
-31 33 4 17 6 43 6 59 0 19 4 27 16 28 11 0 12 3 5 6 -18 7 -16 33 1 33 8 0
16 -12 18 -27 3 -27 4 -27 9 5 5 29 3 32 -19 32 -20 0 -23 4 -18 28 3 15 8 51
11 80 4 29 12 52 18 52 8 0 7 4 -2 9 -21 14 -3 32 27 27 15 -2 40 -5 55 -5 27
-1 28 -2 22 -48 -8 -74 -16 -107 -29 -115 -8 -6 -7 -8 2 -8 24 0 11 -29 -15
-33 l-28 -4 27 -2 c20 -1 26 -5 22 -16 -7 -17 -34 -21 -34 -5 0 6 -6 5 -14 -2
-17 -16 -2 -28 27 -20 17 4 19 2 13 -21 -3 -15 -3 -27 2 -27 9 0 46 286 38
299 -3 5 -31 12 -61 16 -30 3 -55 9 -55 13 0 4 -37 8 -82 9 -44 1 -84 6 -87
10 -7 9 -130 13 -135 4z m-6 -356 c0 -8 -7 -15 -15 -15 -8 0 -15 7 -15 15 0 8
7 15 15 15 8 0 15 -7 15 -15z m188 -51 c58 -8 67 -20 23 -35 -15 -6 -33 -20
-39 -32 -10 -22 -10 -22 -17 -2 -4 11 -22 32 -39 47 l-31 27 25 1 c14 0 49 -3
78 -6z m-28 -179 c0 -8 -4 -15 -10 -15 -5 0 -10 7 -10 15 0 8 5 15 10 15 6 0
10 -7 10 -15z m-40 -315 c0 -5 -4 -10 -10 -10 -5 0 -10 5 -10 10 0 6 5 10 10
10 6 0 10 -4 10 -10z"/>
<path d="M3540 3020 c-21 -29 -16 -42 7 -19 8 8 11 6 10 -7 -1 -13 5 -19 18
-20 40 -2 44 -4 39 -18 -7 -18 7 -26 34 -19 17 4 20 9 12 23 -5 9 -7 20 -3 23
3 4 -4 5 -15 2 -16 -3 -19 0 -15 13 6 15 4 15 -9 4 -14 -11 -17 -10 -23 8 -4
13 -12 19 -20 16 -9 -3 -12 0 -8 10 9 24 -4 16 -27 -16z"/>
<path d="M114 2983 c-4 -32 -7 -61 -6 -65 1 -4 -5 -25 -14 -47 -9 -22 -14 -59
-12 -87 3 -49 3 -49 40 -52 35 -3 37 -1 44 33 3 20 1 47 -6 64 -6 16 -11 42
-9 57 6 78 -1 154 -15 154 -9 0 -16 -19 -22 -57z"/>
<path d="M360 3013 c0 -16 5 -20 20 -16 16 4 20 0 21 -23 l1 -29 7 30 c5 25 3
31 -14 34 -11 1 -23 8 -27 15 -5 6 -8 2 -8 -11z"/>
<path d="M2096 3011 c-3 -4 30 -27 72 -52 94 -54 102 -57 78 -33 -28 27 -145
94 -150 85z"/>
<path d="M525 2990 c-3 -5 1 -10 10 -10 9 0 13 5 10 10 -3 6 -8 10 -10 10 -2
0 -7 -4 -10 -10z"/>
<path d="M565 2991 c-3 -5 -1 -12 5 -16 5 -3 10 1 10 9 0 18 -6 21 -15 7z"/>
<path d="M962 2965 c5 -16 14 -39 19 -50 5 -11 13 -51 19 -90 10 -75 36 -161
51 -171 17 -10 97 27 102 47 3 10 2 17 -2 14 -11 -6 -43 64 -35 77 4 7 2 8 -4
4 -7 -4 -12 -2 -12 5 0 7 -24 54 -52 105 -42 72 -57 91 -74 90 -19 -1 -20 -4
-12 -31z"/>
<path d="M3250 2980 c0 -8 5 -22 10 -30 9 -13 10 -13 10 0 0 8 -5 22 -10 30
-9 13 -10 13 -10 0z"/>
<path d="M650 2965 c0 -8 2 -15 4 -15 2 0 6 7 10 15 3 8 1 15 -4 15 -6 0 -10
-7 -10 -15z"/>
<path d="M353 2963 c9 -2 23 -2 30 0 6 3 -1 5 -18 5 -16 0 -22 -2 -12 -5z"/>
<path d="M482 2950 c0 -14 2 -19 5 -12 2 6 2 18 0 25 -3 6 -5 1 -5 -13z"/>
<path d="M688 2963 c6 -2 18 -2 25 0 6 3 1 5 -13 5 -14 0 -19 -2 -12 -5z"/>
<path d="M3585 2960 c-3 -5 -1 -10 4 -10 6 0 11 5 11 10 0 6 -2 10 -4 10 -3 0
-8 -4 -11 -10z"/>
<path d="M520 2929 c0 -16 -5 -20 -20 -16 -11 3 -22 2 -25 -3 -3 -4 9 -10 25
-12 26 -4 30 -1 30 18 0 12 6 25 13 27 7 3 5 6 -5 6 -12 1 -18 -6 -18 -20z"/>
<path d="M650 2929 c0 -10 50 -18 55 -9 3 4 -9 10 -25 12 -17 3 -30 1 -30 -3z"/>
<path d="M3252 2869 c-22 -45 -32 -79 -30 -101 3 -38 -14 -51 -22 -16 -5 21
-7 21 -13 5 -4 -10 -7 -32 -7 -48 0 -18 -4 -28 -10 -24 -5 3 -10 0 -10 -8 0
-20 39 -67 56 -67 8 0 14 -4 14 -9 0 -5 8 -7 19 -4 11 3 21 -2 25 -12 5 -14 9
-15 21 -5 8 6 19 9 25 5 5 -3 10 -1 10 5 0 6 4 9 9 5 12 -7 81 63 81 82 0 8
-5 11 -11 7 -8 -5 -10 3 -6 27 4 19 2 41 -3 49 -8 13 -10 12 -10 -3 0 -11 -6
-17 -12 -14 -7 2 -13 18 -13 35 0 22 -10 41 -33 64 l-33 33 7 -42 c5 -36 4
-43 -10 -43 -25 0 -30 26 -17 87 7 30 11 56 9 57 -1 2 -18 -27 -36 -65z"/>
<path d="M388 2898 c-4 -24 -1 -28 18 -28 12 0 24 -6 27 -12 2 -7 6 4 8 24 4
33 3 37 -22 40 -23 4 -28 0 -31 -24z m42 -3 c0 -8 -7 -15 -15 -15 -8 0 -15 7
-15 15 0 8 7 15 15 15 8 0 15 -7 15 -15z"/>
<path d="M1060 2926 c0 -2 8 -10 18 -17 15 -13 16 -12 3 4 -13 16 -21 21 -21
13z"/>
<path d="M2455 2883 c35 -34 140 -115 172 -132 19 -9 22 -9 17 2 -3 8 -53 47
-112 87 -59 40 -93 60 -77 43z"/>
<path d="M467 2876 c-8 -20 6 -36 19 -22 8 9 7 15 -2 23 -9 9 -13 9 -17 -1z"/>
<path d="M640 2871 c0 -11 -6 -22 -12 -24 -7 -3 1 -5 17 -5 17 0 24 2 18 5
-23 9 -14 32 15 36 25 4 25 4 -5 6 -26 1 -33 -3 -33 -18z"/>
<path d="M2305 2883 c6 -6 33 -23 60 -38 28 -16 46 -24 40 -18 -5 6 -32 23
-60 38 -27 16 -45 24 -40 18z"/>
<path d="M509 2843 c-5 -28 -3 -32 22 -35 23 -4 28 0 31 24 3 15 1 28 -4 28
-4 0 -8 -9 -8 -20 0 -31 -28 -24 -32 8 -3 27 -3 27 -9 -5z"/>
<path d="M682 2845 c0 -16 2 -22 5 -12 2 9 2 23 0 30 -3 6 -5 -1 -5 -18z"/>
<path d="M341 2844 c0 -11 3 -14 6 -6 3 7 2 16 -1 19 -3 4 -6 -2 -5 -13z"/>
<path d="M360 2836 c0 -9 30 -14 35 -6 4 6 -3 10 -14 10 -12 0 -21 -2 -21 -4z"/>
<path d="M3780 2826 c0 -16 19 -25 38 -19 10 4 10 8 1 19 -15 18 -39 18 -39 0z"/>
<path d="M458 2823 c7 -3 16 -2 19 1 4 3 -2 6 -13 5 -11 0 -14 -3 -6 -6z"/>
<path d="M3911 2814 c0 -11 3 -14 6 -6 3 7 2 16 -1 19 -3 4 -6 -2 -5 -13z"/>
<path d="M2425 2811 c10 -17 176 -113 182 -107 10 9 -4 20 -82 61 -38 21 -74
42 -79 46 -13 12 -29 11 -21 0z"/>
<path d="M343 2793 c9 -2 25 -2 35 0 9 3 1 5 -18 5 -19 0 -27 -2 -17 -5z"/>
<path d="M500 2768 c0 -12 3 -17 8 -12 4 5 11 12 15 15 5 3 2 9 -7 12 -12 5
-16 0 -16 -15z"/>
<path d="M3911 2774 c0 -11 3 -14 6 -6 3 7 2 16 -1 19 -3 4 -6 -2 -5 -13z"/>
<path d="M327 2765 c-5 -11 0 -15 16 -15 12 0 18 4 12 8 -5 4 -13 11 -16 15
-4 4 -9 1 -12 -8z"/>
<path d="M540 2769 c0 -5 5 -7 10 -4 6 3 10 8 10 11 0 2 -4 4 -10 4 -5 0 -10
-5 -10 -11z"/>
<path d="M371 2744 c0 -11 3 -14 6 -6 3 7 2 16 -1 19 -3 4 -6 -2 -5 -13z"/>
<path d="M450 2740 c0 -5 5 -10 10 -10 6 0 10 5 10 10 0 6 -4 10 -10 10 -5 0
-10 -4 -10 -10z"/>
<path d="M488 2733 c7 -3 16 -2 19 1 4 3 -2 6 -13 5 -11 0 -14 -3 -6 -6z"/>
<path d="M3511 2695 c-36 -53 -76 -99 -156 -176 l-59 -58 -56 46 c-83 70 -148
134 -177 175 -14 21 -32 38 -39 38 -12 0 -74 -68 -74 -82 0 -3 12 -21 27 -40
l27 -33 -35 33 c-33 30 -60 42 -58 25 0 -8 197 -181 236 -208 13 -9 24 -11 28
-6 3 5 -3 14 -12 20 -16 9 -15 11 7 11 14 1 40 3 58 6 43 5 41 -10 -8 -57 -37
-36 -49 -66 -34 -82 4 -4 28 16 54 43 26 28 54 50 61 50 7 0 34 -20 60 -46 42
-41 47 -44 60 -28 12 15 8 22 -40 66 -58 53 -57 74 1 57 16 -4 37 -5 46 -2 15
6 15 5 3 -10 -8 -10 -11 -20 -7 -24 6 -6 161 138 219 204 38 43 25 62 -13 20
l-30 -32 16 33 c15 32 15 33 -17 67 -19 19 -39 35 -45 35 -7 0 -26 -20 -43
-45z m56 9 c-9 -9 -28 6 -21 18 4 6 10 6 17 -1 6 -6 8 -13 4 -17z m-537 -14
c0 -5 -4 -10 -10 -10 -5 0 -10 5 -10 10 0 6 5 10 10 10 6 0 10 -4 10 -10z"/>
<path d="M618 2699 c-4 -23 0 -28 24 -31 15 -3 28 -1 28 4 0 4 -9 8 -20 8 -31
0 -24 28 8 32 27 3 27 3 -5 9 -28 5 -32 3 -35 -22z"/>
<path d="M451 2709 c-1 -10 9 -19 24 -21 14 -3 25 -1 25 3 0 5 -9 9 -19 9 -11
0 -22 6 -24 13 -4 7 -6 6 -6 -4z"/>
<path d="M68 2570 c-6 -38 -3 -40 46 -40 40 0 41 1 42 35 0 35 0 35 -42 35
-39 0 -42 -2 -46 -30z"/>
<path d="M2395 2542 c-73 -35 -96 -78 -96 -184 0 -95 23 -157 83 -223 140
-154 439 -202 587 -94 60 43 85 102 79 189 -8 112 -38 138 -212 184 -58 15
-145 49 -209 82 -127 64 -174 73 -232 46z m159 -21 c3 -5 -13 -11 -35 -14 -23
-3 -51 -14 -62 -25 -12 -11 -32 -23 -45 -27 -40 -12 -91 -49 -92 -67 0 -11 5
-15 15 -12 22 9 18 -4 -5 -16 -18 -10 -20 -8 -20 27 0 37 2 39 63 67 34 17 75
40 90 53 28 23 81 31 91 14z m-141 -8 c-7 -2 -21 -2 -30 0 -10 3 -4 5 12 5 17
0 24 -2 18 -5z m-38 -23 c3 -6 -1 -7 -9 -4 -18 7 -21 14 -7 14 6 0 13 -4 16
-10z m265 -20 l25 -8 -25 0 c-14 0 -34 3 -45 8 l-20 9 20 -1 c11 0 31 -4 45
-8z m-120 -51 c-19 -12 -51 -31 -70 -42 -29 -18 -33 -18 -21 -3 15 18 97 65
116 65 6 1 -6 -9 -25 -20z m103 -83 c-45 -23 -90 -48 -100 -55 -10 -7 0 3 21
23 21 20 62 45 90 55 81 32 77 24 -11 -23z m332 6 c15 -27 27 -37 44 -37 30 0
39 -23 40 -93 1 -50 -20 -122 -35 -122 -3 0 -4 14 0 30 l6 30 -30 -22 c-16
-12 -60 -30 -97 -39 -39 -10 -56 -18 -41 -18 15 -1 30 -5 33 -11 3 -5 15 -10
26 -10 31 0 22 -27 -13 -39 -26 -9 -34 -9 -40 3 -7 13 -62 46 -76 46 -2 0 -1
-16 3 -36 9 -49 -17 -41 -29 9 -7 26 -15 37 -28 37 -21 0 -22 -8 -8 -44 8 -22
7 -26 -9 -26 -15 0 -21 10 -26 39 -6 39 -22 51 -68 51 -14 0 -16 -4 -7 -19 13
-26 13 -51 -1 -51 -6 0 -9 6 -6 14 3 7 -2 24 -10 36 l-16 23 -11 -28 -11 -27
-25 38 c-14 21 -34 40 -45 43 -11 2 -24 10 -30 18 -6 7 -21 19 -35 26 -24 12
-59 82 -47 93 3 3 32 -15 64 -41 74 -61 149 -95 227 -101 52 -5 69 -2 116 20
30 14 62 26 71 26 26 0 74 62 89 115 12 42 12 52 -3 77 -11 19 -12 28 -4 28 7
0 21 -17 32 -38z m-157 -56 c-42 -24 -93 -56 -112 -71 -49 -37 -45 -18 4 23
37 31 154 92 175 92 6 0 -25 -20 -67 -44z"/>
<path d="M2928 2223 c-18 -38 -34 -71 -35 -74 -8 -14 67 18 87 36 37 33 43 54
25 81 -25 39 -42 29 -77 -43z m82 23 c0 -2 -8 -10 -17 -17 -16 -13 -17 -12 -4
4 13 16 21 21 21 13z"/>
<path d="M1169 2496 c-44 -20 -45 -22 -36 -52 l9 -31 52 19 c53 20 80 38 57
38 -8 0 -11 6 -7 17 4 10 4 14 0 10 -4 -4 -12 -1 -18 7 -9 11 -19 10 -57 -8z"/>
<path d="M2080 2500 c0 -26 -60 -162 -80 -178 -9 -8 -9 -11 -2 -7 11 6 12 3 3
-13 -7 -14 -17 -19 -28 -15 -11 4 -14 3 -9 -5 4 -7 2 -12 -3 -12 -6 0 -11 -8
-11 -17 0 -15 2 -16 10 -3 15 24 12 6 -11 -54 -12 -32 -26 -53 -32 -49 -6 3
-7 1 -3 -5 10 -16 -4 -62 -18 -59 -6 1 -10 -6 -8 -17 2 -12 -1 -16 -9 -10 -7
4 -10 3 -5 -4 3 -6 32 -20 63 -32 55 -20 58 -21 70 -3 9 11 10 19 3 21 -15 5
-13 20 17 97 28 76 40 90 60 73 11 -8 12 -7 7 7 -5 13 -4 16 4 11 7 -4 12 -3
12 2 0 5 -9 12 -21 15 -24 6 -23 8 18 125 14 41 35 83 47 94 11 12 14 17 6 13
-13 -7 -13 -6 -2 7 11 14 8 17 -19 27 -46 16 -59 14 -59 -9z"/>
<path d="M3766 2481 c-7 -10 64 -21 79 -13 5 4 -1 9 -15 13 -36 10 -58 10 -64
0z"/>
<path d="M127 2410 c-26 -23 -30 -31 -19 -41 20 -21 14 -34 -7 -15 -16 14 -23
15 -41 6 -18 -10 -21 -18 -16 -43 l6 -32 -17 28 c-10 15 -21 27 -25 27 -5 0
-8 -29 -8 -64 l0 -65 52 15 c29 9 73 27 97 40 30 17 39 19 30 7 -17 -19 -127
-73 -151 -73 -9 0 -20 -5 -23 -10 -10 -17 42 -2 110 30 83 40 139 99 138 145
-1 25 3 35 14 35 12 0 11 3 -3 17 -9 10 -35 18 -61 20 -36 2 -49 -3 -76 -27z"/>
<path d="M737 2386 c-86 -24 -137 -90 -137 -180 0 -43 5 -60 25 -84 35 -42 75
-46 184 -22 50 11 114 20 142 20 64 0 117 24 125 57 4 13 4 41 1 61 -16 100
-210 184 -340 148z m187 -27 c30 -11 65 -29 78 -40 17 -14 7 -12 -40 10 -112
52 -216 50 -292 -7 l-35 -25 28 30 c16 17 43 35 60 41 55 17 142 14 201 -9z
m-88 -132 c9 -27 14 -50 13 -51 -2 -2 -21 33 -42 78 -32 70 -34 77 -12 51 14
-16 32 -52 41 -78z m75 32 c11 -22 19 -45 17 -50 -2 -6 -16 15 -31 46 -15 31
-23 54 -17 50 6 -3 19 -24 31 -46z m-174 -21 c12 -24 24 -54 27 -68 3 -14 -6
0 -20 30 -14 30 -30 61 -36 68 -6 7 -6 12 -1 12 5 0 19 -19 30 -42z m273 -14
c18 -53 8 -48 -17 8 -15 33 -18 46 -8 38 8 -6 19 -27 25 -46z m-335 -35 c9
-17 15 -33 13 -35 -3 -2 -12 12 -21 31 -21 43 -13 47 8 4z"/>
<path d="M3630 2392 c-13 -5 -13 -42 1 -42 5 0 8 -4 5 -9 -16 -25 44 -106 70
-96 7 2 40 -5 74 -16 39 -12 91 -19 141 -19 l79 0 0 60 c0 53 -2 60 -19 60
-15 0 -21 -8 -23 -32 -4 -32 -8 -29 -22 15 -3 11 -16 17 -34 17 -21 0 -31 -7
-39 -27 l-11 -28 -1 31 c-1 38 -35 53 -63 27 -19 -17 -26 -5 -7 14 7 7 3 17
-17 32 -21 16 -38 21 -75 19 -27 -2 -53 -4 -59 -6z"/>
<path d="M1470 2335 c-8 -20 -15 -24 -35 -20 -14 3 -37 7 -52 10 l-28 5 25
-15 25 -14 -35 -2 -35 -2 35 -7 35 -6 -30 -8 c-140 -35 -215 -117 -215 -236 0
-51 41 -131 86 -168 85 -71 245 -90 340 -41 163 84 169 308 11 399 -53 30 -49
52 5 26 31 -16 31 -16 13 4 -12 13 -32 20 -59 21 l-41 1 30 14 30 15 -44 -5
c-43 -4 -43 -4 -37 25 7 36 -11 39 -24 4z m-212 -132 c-55 -60 -80 -153 -60
-226 6 -20 7 -35 2 -32 -4 3 -13 27 -20 55 -18 76 3 144 62 200 39 38 50 39
16 3z m375 -23 c29 -23 43 -66 26 -86 -17 -20 -27 -18 -60 15 -40 40 -39 85 2
90 4 1 18 -8 32 -19z m42 -141 c10 -16 -4 -59 -19 -59 -17 0 -28 27 -21 51 7
21 30 25 40 8z"/>
<path d="M3725 2226 c21 -17 106 -46 136 -46 40 0 49 -11 49 -60 0 -33 7 -58
24 -82 13 -19 27 -52 31 -74 l9 -39 9 50 c5 28 11 87 14 133 l4 82 -78 0 c-50
1 -96 7 -128 19 -27 10 -59 21 -70 25 -20 8 -20 8 0 -8z m263 -99 c2 -30 -1
-47 -8 -47 -6 0 -8 -4 -5 -10 3 -5 -1 -10 -9 -10 -15 0 -21 12 -31 72 -6 30
-4 37 12 41 32 8 38 1 41 -46z"/>
<path d="M3410 2150 c-11 -7 -5 -8 20 -4 43 8 51 14 19 14 -13 0 -31 -5 -39
-10z"/>
<path d="M3501 2156 c2 -2 20 -6 39 -10 25 -4 31 -3 20 4 -14 9 -69 15 -59 6z"/>
<path d="M3 2095 c0 -27 2 -38 4 -22 2 15 2 37 0 50 -2 12 -4 0 -4 -28z"/>
<path d="M3364 2125 c-46 -32 -89 -84 -91 -111 -1 -15 -7 -31 -14 -34 -7 -5
-8 -10 -1 -14 6 -3 17 15 27 44 12 35 30 62 62 90 47 41 54 51 17 25z"/>
<path d="M3440 2136 c0 -2 7 -7 16 -10 8 -3 12 -2 9 4 -6 10 -25 14 -25 6z"/>
<path d="M3608 2115 c26 -22 31 -30 20 -37 -10 -8 -9 -9 4 -5 20 7 34 -8 52
-59 8 -21 15 -33 15 -26 2 38 -45 107 -94 137 -28 17 -28 16 3 -10z"/>
<path d="M3216 2029 c-10 -33 -15 -63 -12 -66 9 -9 26 8 26 25 0 9 6 28 13 42
15 30 16 52 1 57 -6 2 -19 -23 -28 -58z"/>
<path d="M2168 2033 c-14 -32 -17 -167 -5 -233 8 -43 7 -44 -8 -25 l-17 20 8
-20 c12 -34 17 -95 6 -95 -9 0 -56 96 -65 135 -3 11 -5 2 -6 -20 0 -22 8 -72
18 -110 20 -73 26 -113 22 -155 l-3 -25 -8 25 c-7 21 -8 22 -9 5 -1 -11 -9
-31 -18 -44 -16 -23 -17 -23 -24 -5 -6 17 -8 16 -19 -11 -6 -17 -9 -45 -5 -65
3 -19 6 -53 6 -74 -1 -35 1 -38 12 -21 14 19 21 19 144 13 40 -2 74 -2 75 2 2
3 29 13 60 23 98 30 128 73 142 205 4 44 3 52 -8 43 -11 -9 -15 -5 -20 20 -3
17 -24 53 -46 79 -51 61 -70 97 -70 135 0 47 -20 9 -20 -40 l-1 -40 -34 39
c-19 21 -42 61 -51 90 -9 28 -22 54 -28 58 -5 4 -10 32 -10 62 0 31 -2 56 -3
56 -2 0 -9 -12 -15 -27z"/>
<path d="M3640 2036 c0 -2 7 -7 16 -10 8 -3 12 -2 9 4 -6 10 -25 14 -25 6z"/>
<path d="M916 1961 c-8 -61 -10 -63 -23 -40 l-14 24 6 -25 c4 -14 18 -54 32
-90 28 -72 24 -115 -12 -115 -18 0 -20 6 -19 70 2 54 0 64 -8 45 -5 -14 -23
-39 -39 -56 -26 -26 -31 -40 -32 -85 -2 -59 -18 -72 -28 -24 l-6 30 -7 -28
c-9 -29 -2 -82 13 -106 7 -11 34 -11 167 -1 88 7 162 15 166 19 4 3 3 13 -2
21 -7 11 -10 11 -10 2 0 -29 -20 1 -20 31 0 18 -12 50 -25 72 -28 45 -29 44
-16 -3 11 -38 5 -62 -15 -62 -10 0 -14 13 -14 44 0 58 -13 90 -60 152 -37 47
-39 52 -29 88 6 20 9 51 7 69 -3 24 -6 16 -12 -32z"/>
<path d="M396 1994 c-4 -10 -2 -20 3 -23 5 -3 11 -20 14 -36 3 -25 4 -24 5 10
2 47 -11 77 -22 49z"/>
<path d="M212 1992 c-27 -3 -32 -7 -30 -24 2 -17 -4 -23 -28 -30 -29 -7 -32
-12 -38 -60 -11 -97 -10 -101 44 -141 l50 -37 -2 57 c-1 36 -3 45 -5 26 -5
-37 -10 -39 -41 -17 -19 13 -22 24 -22 80 0 61 1 64 24 64 20 0 26 -6 29 -32
3 -18 4 -8 3 22 -1 44 2 55 16 58 9 2 18 -5 21 -15 4 -15 5 -16 6 -1 1 10 11
18 25 20 l24 3 -21 15 c-12 8 -37 14 -55 12z"/>
<path d="M3698 1927 c-4 -26 -14 -60 -22 -76 -15 -27 -14 -28 10 -23 17 3 22
8 15 16 -15 18 -1 56 20 56 11 0 19 -1 19 -2 0 -2 -7 -24 -15 -50 -11 -39 -12
-48 -1 -48 15 0 49 107 39 123 -3 5 -9 4 -13 -3 -13 -20 -38 -4 -42 27 -3 22
-5 17 -10 -20z"/>
<path d="M3271 1894 c0 -11 3 -14 6 -6 3 7 2 16 -1 19 -3 4 -6 -2 -5 -13z"/>
<path d="M422 1840 c0 -19 2 -27 5 -17 2 9 2 25 0 35 -3 9 -5 1 -5 -18z"/>
<path d="M3280 1864 c-1 -39 108 -135 152 -134 7 0 -7 10 -32 21 -49 22 -80
46 -80 63 0 6 5 5 12 -2 7 -7 19 -12 28 -11 14 0 -24 21 -43 23 -5 1 -15 12
-22 26 -8 14 -14 20 -15 14z"/>
<path d="M2979 1841 c-22 -17 -28 -17 -49 -5 -54 29 -128 7 -150 -45 -8 -20
-23 -34 -46 -41 -19 -6 -40 -20 -46 -29 -7 -10 -28 -22 -46 -26 -71 -15 -93
-78 -43 -124 18 -17 29 -37 29 -54 0 -33 25 -73 50 -81 28 -9 68 9 88 39 13
19 22 24 43 19 85 -17 102 -17 132 5 23 17 33 19 48 11 11 -5 38 -10 61 -10
33 0 48 6 71 29 34 35 36 62 9 114 -19 34 -19 40 -5 60 24 35 19 103 -10 132
-31 32 -100 35 -136 6z m104 -26 c28 -19 37 -33 37 -53 0 -35 -26 -72 -51 -72
-10 0 -19 -4 -19 -10 0 -5 8 -10 19 -10 27 0 44 -25 45 -67 1 -33 -3 -40 -35
-57 -44 -24 -84 -16 -93 17 -8 32 -33 30 -45 -5 -6 -15 -21 -33 -35 -39 -20
-10 -30 -8 -59 10 -41 25 -49 47 -31 90 10 23 19 31 39 31 16 0 25 6 25 15 0
9 -9 15 -24 15 -46 0 -73 73 -43 113 8 12 28 19 57 20 38 2 46 -1 56 -22 17
-33 54 -36 54 -5 0 22 33 54 55 54 6 0 27 -11 48 -25z m-290 -123 c17 -28 18
-35 6 -43 -10 -6 -13 -25 -10 -71 3 -53 1 -60 -11 -50 -18 14 -28 6 -28 -23 0
-44 -55 -61 -92 -28 -22 20 -24 61 -3 69 22 9 18 24 -6 21 -13 -1 -29 8 -42
25 l-21 28 24 25 c25 27 49 32 67 14 17 -17 33 -2 33 31 0 51 54 52 83 2z"/>
<path d="M2830 1631 c0 -5 5 -13 11 -16 18 -12 28 -49 16 -63 -8 -10 -7 -16 4
-22 21 -13 33 27 18 62 -12 29 -49 58 -49 39z"/>
<path d="M1835 1786 c-17 -39 -35 -48 -35 -16 0 31 -28 23 -35 -10 -8 -35 -23
-48 -31 -26 -9 23 -19 20 -32 -9 -6 -14 -18 -25 -25 -25 -8 0 -19 -11 -25 -25
-7 -14 -22 -30 -34 -35 -25 -10 -31 -9 115 -14 63 -3 67 -2 61 17 -5 16 -3 19
11 13 38 -14 65 -18 65 -8 0 6 -4 14 -10 17 -23 14 -7 25 35 25 49 0 58 11 23
28 -23 10 -22 10 10 22 17 7 32 18 32 25 0 7 3 20 6 29 8 21 -48 22 -66 1 -16
-19 -30 -19 -30 -1 0 31 -21 26 -35 -8z m90 -15 c-17 -29 -248 -142 -261 -128
-2 2 31 18 74 35 42 17 102 47 132 66 62 39 63 39 55 27z"/>
<path d="M3616 1805 c-11 -8 -17 -17 -14 -20 2 -3 13 4 23 15 21 23 18 25 -9
5z"/>
<path d="M3620 1778 c-19 -16 -26 -26 -15 -20 18 9 64 53 54 52 -2 -1 -20 -15
-39 -32z"/>
<path d="M431 1728 c0 -20 -4 -39 -8 -41 -5 -3 -46 -6 -93 -8 l-85 -4 -6 35
-6 35 -2 -33 c0 -18 -5 -31 -10 -27 -9 5 -27 -33 -19 -41 4 -3 240 16 245 20
1 1 -2 24 -6 51 -8 46 -9 47 -10 13z"/>
<path d="M3518 1753 c6 -2 18 -2 25 0 6 3 1 5 -13 5 -14 0 -19 -2 -12 -5z"/>
<path d="M3545 1740 c-13 -6 -15 -9 -5 -9 8 0 22 4 30 9 18 12 2 12 -25 0z"/>
<path d="M3468 1723 c12 -2 30 -2 40 0 9 3 -1 5 -23 4 -22 0 -30 -2 -17 -4z"/>
<path d="M1303 1693 c-3 -10 -8 -21 -10 -25 -2 -5 0 -8 5 -8 5 0 12 9 15 20 5
19 36 29 38 13 1 -5 3 -21 5 -36 1 -16 7 -34 12 -40 17 -20 -11 -37 -33 -21
-10 8 -29 14 -41 14 -29 0 -39 17 -22 37 11 14 11 15 -2 11 -20 -6 -25 -35
-10 -53 7 -8 27 -15 44 -15 26 0 36 -8 63 -48 17 -26 43 -80 57 -119 33 -94
59 -144 97 -187 62 -72 177 -99 233 -55 118 93 34 263 -167 339 -45 17 -95 36
-110 42 -15 6 -46 24 -67 39 -30 22 -40 36 -40 57 0 15 -5 33 -12 40 -18 18
-48 15 -55 -5z m314 -198 c84 -35 173 -130 173 -184 0 -22 -3 -20 -19 16 -27
58 -89 116 -168 158 -64 33 -57 38 14 10z m-157 -65 c0 -5 -4 -10 -10 -10 -5
0 -10 5 -10 10 0 6 5 10 10 10 6 0 10 -4 10 -10z m24 -71 c-3 -5 -10 -7 -15
-3 -5 3 -7 10 -3 15 3 5 10 7 15 3 5 -3 7 -10 3 -15z m56 -79 c0 -5 -2 -10 -4
-10 -3 0 -8 5 -11 10 -3 6 -1 10 4 10 6 0 11 -4 11 -10z m60 -55 c0 -8 -4 -15
-10 -15 -5 0 -10 7 -10 15 0 8 5 15 10 15 6 0 10 -7 10 -15z"/>
<path d="M3472 1601 c-18 -3 -32 -8 -32 -11 3 -10 -11 -66 -21 -83 -13 -24 16
-101 45 -120 12 -8 45 -18 74 -22 40 -5 52 -11 52 -24 0 -21 18 -41 34 -36 6
2 24 6 39 10 25 5 28 9 22 34 -5 23 -2 29 14 34 27 7 27 21 -1 36 -23 11 -23
11 2 5 14 -4 32 -13 41 -20 8 -8 25 -14 37 -14 31 0 30 37 0 43 -13 3 7 3 45
0 44 -3 67 -1 67 7 0 6 -7 13 -15 16 -8 4 -13 10 -10 14 3 4 -9 10 -25 14 -17
3 -30 12 -30 20 0 24 -42 23 -90 -2 l-45 -25 30 26 c25 21 28 27 16 41 -7 9
-22 16 -33 16 -11 0 -27 4 -37 9 -17 9 -81 -5 -97 -22 -4 -4 -12 -7 -18 -7 -6
1 0 9 13 20 21 19 22 20 5 27 -17 6 -16 8 6 14 20 6 17 7 -15 7 -22 0 -55 -3
-73 -7z m133 -105 c30 -22 12 -46 -35 -46 -28 0 -43 5 -47 16 -7 19 20 44 47
44 9 0 25 -6 35 -14z"/>
<path d="M3546 1481 c-8 -12 20 -22 39 -15 19 8 9 24 -15 24 -10 0 -21 -4 -24
-9z"/>
<path d="M3613 1593 c9 -2 23 -2 30 0 6 3 -1 5 -18 5 -16 0 -22 -2 -12 -5z"/>
<path d="M3385 1576 c-43 -19 -85 -68 -88 -102 -2 -27 0 -28 42 -29 43 0 44 1
58 45 8 25 18 57 23 73 10 31 7 32 -35 13z"/>
<path d="M3668 1583 c7 -3 16 -2 19 1 4 3 -2 6 -13 5 -11 0 -14 -3 -6 -6z"/>
<path d="M751 1554 c0 -11 3 -14 6 -6 3 7 2 16 -1 19 -3 4 -6 -2 -5 -13z"/>
<path d="M186 1545 c-84 -30 -144 -128 -133 -221 11 -104 71 -136 262 -141 72
-2 172 -11 222 -20 91 -17 93 -17 120 4 22 15 29 30 31 62 5 60 -27 119 -101
188 -123 114 -290 168 -401 128z m257 -48 c164 -81 272 -227 223 -302 -19 -28
-58 -32 -136 -14 -25 6 -117 14 -206 18 -140 6 -165 10 -196 29 -76 47 -84
164 -16 246 45 55 78 67 175 63 70 -3 92 -9 156 -40z"/>
<path d="M206 1510 c-55 -17 -115 -98 -116 -158 0 -37 30 -91 59 -106 68 -36
183 -27 196 14 3 10 -3 37 -15 59 -11 23 -20 60 -20 86 0 46 -22 105 -39 105
-5 0 -15 2 -23 4 -7 2 -26 0 -42 -4z m58 -142 c14 -23 -3 -52 -33 -56 -42 -6
-67 38 -39 66 17 17 58 11 72 -10z"/>
<path d="M213 1373 c-17 -6 -16 -40 1 -46 15 -6 36 11 36 29 0 14 -20 23 -37
17z"/>
<path d="M342 1478 c-13 -13 -16 -75 -6 -102 3 -9 15 -16 26 -16 17 0 35 11
95 60 17 14 5 38 -28 55 -34 18 -71 19 -87 3z"/>
<path d="M429 1373 c-54 -33 -76 -105 -41 -136 10 -9 62 -23 124 -33 88 -14
110 -15 122 -4 24 19 19 61 -13 111 -45 72 -132 100 -192 62z"/>
<path d="M885 1543 c-82 -8 -153 -19 -156 -25 -4 -6 -14 -8 -23 -5 -10 4 -16
1 -16 -7 0 -9 8 -12 24 -9 17 4 27 -1 36 -16 6 -12 15 -19 20 -16 6 3 7 0 5
-7 -3 -8 11 -24 34 -38 46 -29 47 -35 26 -147 -20 -102 -20 -119 0 -103 11 9
13 24 9 54 -4 30 -3 37 5 26 8 -11 9 -5 6 25 -3 22 -3 34 1 28 3 -7 15 -11 27
-9 12 3 50 8 83 11 61 6 61 5 74 -24 6 -16 9 -38 6 -48 -8 -26 8 -45 35 -41
37 5 36 36 -1 68 -22 19 -31 33 -27 45 5 11 3 14 -5 9 -8 -5 -9 -2 -5 9 4 10
2 17 -4 17 -6 0 -8 7 -5 16 3 8 2 12 -3 9 -6 -3 -8 6 -7 20 2 16 18 38 39 56
19 16 41 45 47 64 9 27 17 35 36 35 13 0 24 3 24 8 0 12 -128 10 -285 -5z
m225 -5 c0 -13 -36 -78 -44 -78 -2 0 4 20 13 45 15 43 31 59 31 33z m-335 -36
c0 -18 -20 -15 -23 4 -3 10 1 15 10 12 7 -3 13 -10 13 -16z m235 -138 c7 -19
10 -37 8 -39 -1 -1 -37 -4 -78 -6 -74 -4 -75 -4 -78 21 -2 20 -1 22 7 10 9
-12 11 -10 11 12 0 25 3 27 53 31 28 2 55 4 59 5 3 1 12 -14 18 -34z m75 -154
c-5 -8 -11 -8 -17 -2 -6 6 -7 16 -3 22 5 8 11 8 17 2 6 -6 7 -16 3 -22z"/>
<path d="M3761 1556 c2 -2 15 -9 29 -15 24 -11 24 -11 6 3 -16 13 -49 24 -35
12z"/>
<path d="M3820 1526 c0 -2 7 -7 16 -10 8 -3 12 -2 9 4 -6 10 -25 14 -25 6z"/>
<path d="M3860 1506 c0 -2 8 -10 18 -17 15 -13 16 -12 3 4 -13 16 -21 21 -21
13z"/>
<path d="M3900 1476 c0 -2 8 -10 18 -17 15 -13 16 -12 3 4 -13 16 -21 21 -21
13z"/>
<path d="M3281 1387 c-3 -83 52 -145 135 -155 53 -6 174 24 174 43 0 6 -7 26
-16 44 -12 24 -22 31 -38 29 -18 -3 -21 -9 -18 -40 3 -29 0 -38 -11 -38 -9 0
-18 -8 -20 -17 -4 -14 -5 -13 -6 4 0 12 -5 24 -10 27 -16 10 -71 -6 -71 -20 0
-8 -9 -14 -20 -14 -24 0 -27 15 -4 24 21 8 14 27 -14 37 -20 8 -22 6 -16 -16
4 -15 2 -25 -5 -25 -6 0 -11 10 -11 23 0 12 -9 36 -19 53 -11 18 -21 42 -24
55 -3 16 -5 12 -6 -14z"/>
<path d="M3333 1404 c-8 -21 7 -45 38 -62 30 -15 111 -12 117 6 2 6 -3 12 -12
12 -8 0 -31 14 -49 30 -38 33 -84 40 -94 14z"/>
<path d="M3815 1410 c3 -5 17 -10 31 -10 14 0 22 4 19 10 -3 6 -17 10 -31 10
-14 0 -22 -4 -19 -10z"/>
<path d="M3942 1395 c0 -16 2 -22 5 -12 2 9 2 23 0 30 -3 6 -5 -1 -5 -18z"/>
<path d="M3060 1353 c-67 -4 -100 -14 -100 -32 0 -3 39 -6 87 -6 l88 0 3 -52
c3 -58 -27 -133 -53 -133 -8 0 -15 -5 -15 -12 0 -6 -10 -3 -22 8 l-23 19 22
-25 c17 -19 23 -40 25 -83 l2 -57 51 1 c43 0 46 2 26 10 -14 5 -31 7 -38 5 -7
-3 -12 -2 -11 2 1 4 -4 19 -10 33 -13 33 -6 67 21 97 11 12 17 22 13 22 -4 0
2 13 13 29 33 45 34 191 2 179 -4 -1 -40 -4 -81 -5z"/>
<path d="M3738 1329 c-16 -32 -17 -32 -18 -9 -1 24 -1 24 -12 5 -6 -11 -16
-23 -22 -27 -6 -4 43 -8 109 -8 66 0 115 4 108 8 -8 5 -9 13 -3 22 24 38 0 41
-37 4 -26 -26 -45 -26 -23 1 7 9 10 18 8 21 -11 11 -59 -9 -70 -30 -12 -20
-13 -19 -18 13 l-5 34 -17 -34z"/>
<path d="M2770 1275 c-7 -8 -10 -24 -7 -36 4 -15 -4 -32 -27 -57 -28 -30 -41
-36 -83 -39 -207 -12 -368 -229 -271 -365 41 -59 134 -76 207 -38 54 27 127
112 146 169 16 48 23 171 10 190 -3 6 8 26 24 43 17 18 31 37 31 41 0 5 9 5
20 2 41 -13 72 48 33 62 -10 4 -24 15 -31 25 -16 22 -35 23 -52 3z m-120 -187
c38 -7 70 -16 70 -21 0 -5 -12 -6 -27 -3 -16 3 -46 8 -68 12 -41 7 -81 23 -58
24 7 0 44 -5 83 -12z m-55 -44 c103 -18 120 -22 113 -30 -8 -7 -201 27 -212
38 -14 11 -5 11 99 -8z m-17 -51 c56 -9 102 -21 102 -25 0 -11 0 -11 -125 13
-171 32 -154 42 23 12z m71 -69 c8 -2 12 -7 9 -10 -8 -7 -248 38 -243 46 4 7
198 -23 234 -36z m63 -27 c-26 -59 -84 -121 -136 -146 -59 -29 -81 -25 -25 4
57 30 131 110 155 170 11 25 20 39 22 31 2 -9 -5 -35 -16 -59z m-187 -2 c101
-18 120 -23 113 -31 -3 -2 -56 4 -118 16 -63 11 -117 20 -122 20 -4 0 -8 5 -8
10 0 6 10 8 23 5 12 -2 63 -12 112 -20z m12 -56 c35 -6 61 -14 58 -19 -5 -9
-192 24 -203 35 -7 8 27 4 145 -16z m-54 -44 c32 -4 57 -12 57 -17 0 -6 -13
-8 -32 -4 -18 4 -50 9 -70 13 -21 3 -38 10 -38 15 0 6 6 8 13 5 8 -3 39 -8 70
-12z"/>
<path d="M2951 1274 c0 -11 3 -14 6 -6 3 7 2 16 -1 19 -3 4 -6 -2 -5 -13z"/>
<path d="M3638 1283 c7 -3 16 -2 19 1 4 3 -2 6 -13 5 -11 0 -14 -3 -6 -6z"/>
<path d="M2061 1209 c-77 -16 -125 -83 -118 -167 3 -41 10 -59 33 -83 39 -41
75 -59 119 -59 73 0 132 43 155 113 35 110 -72 221 -189 196z m100 -37 c28
-23 21 -45 -23 -72 -35 -21 -48 -19 -28 5 11 13 8 15 -20 15 -28 0 -31 -2 -20
-15 17 -21 1 -19 -37 5 -40 24 -41 32 -7 59 34 27 103 28 135 3z m-121 -87
c34 -17 41 -40 10 -32 -23 6 -24 3 -9 -24 10 -20 11 -20 24 -2 13 17 14 17 20
1 9 -22 -7 -90 -21 -95 -21 -7 -78 43 -92 79 -28 74 3 107 68 73z m188 -19 c5
-38 -15 -81 -50 -111 -37 -31 -64 -32 -72 -2 -9 35 -7 77 4 77 6 0 10 -5 10
-12 0 -6 9 -1 20 12 11 13 20 25 20 27 0 2 -9 1 -20 -2 -29 -9 -24 7 8 27 42
26 76 19 80 -16z"/>
<path d="M1354 1130 c3 -8 10 -34 17 -57 6 -23 18 -48 25 -54 12 -10 13 -8 9
7 -5 15 -3 14 7 -3 21 -35 100 -91 169 -119 76 -32 181 -36 242 -11 20 9 37
18 37 20 0 2 -24 2 -52 -1 -34 -2 -69 2 -98 13 -25 9 -61 18 -80 20 -52 4
-200 94 -200 120 0 23 19 18 59 -16 81 -68 124 -99 138 -99 18 0 -1 16 -87 74
-30 20 -70 47 -89 61 -19 14 -44 25 -57 25 -13 0 -28 8 -34 18 -7 10 -9 11 -6
2z"/>
<path d="M180 1096 c0 -7 9 -16 20 -19 15 -4 20 -14 20 -41 0 -38 -25 -61 -55
-50 -9 4 -15 2 -13 -3 2 -5 -10 -21 -26 -35 -27 -23 -29 -30 -29 -89 2 -74 32
-165 66 -197 41 -39 184 -26 218 19 26 35 43 129 34 195 -7 62 -38 104 -75
104 -12 0 -18 4 -15 10 3 6 -1 7 -10 4 -24 -10 -65 23 -65 51 0 28 -32 65 -55
65 -8 0 -15 -6 -15 -14z m144 -174 c9 -34 1 -71 -13 -56 -5 5 -12 29 -16 53
-6 34 -4 42 6 39 8 -3 18 -19 23 -36z m56 34 c0 -2 3 -11 6 -20 9 -23 -13 -20
-26 4 -9 16 -8 20 5 20 8 0 15 -2 15 -4z"/>
<path d="M917 1086 c-90 -25 -179 -102 -218 -188 -17 -38 -87 -52 -73 -14 7
17 -27 31 -37 14 -4 -6 -11 -46 -14 -88 -4 -41 -7 -82 -8 -90 -3 -24 34 -25
40 -1 11 41 58 16 68 -36 17 -90 92 -184 187 -235 37 -19 58 -23 143 -23 91 0
105 3 159 30 64 32 126 96 153 156 14 34 21 39 49 39 28 0 31 -3 27 -21 -5
-17 -2 -20 18 -17 21 3 24 9 25 43 1 22 5 66 9 98 7 54 6 57 -14 57 -13 0 -21
-6 -21 -16 0 -12 -6 -15 -22 -10 -13 3 -26 6 -29 6 -4 0 -12 21 -18 48 -25 97
-107 194 -199 233 -60 26 -163 33 -225 15z m228 -35 c76 -35 147 -112 171
-184 55 -163 -17 -332 -175 -409 -66 -33 -195 -32 -268 1 -62 28 -136 103
-165 168 -74 168 15 374 190 438 20 7 71 14 112 14 63 1 85 -4 135 -28z m-487
-210 c8 -5 12 -23 10 -47 -3 -34 -6 -39 -30 -42 -26 -3 -28 -1 -28 32 0 60 15
78 48 57z m746 -94 c0 -9 -1 -33 -2 -53 -2 -34 -3 -36 -29 -29 -16 4 -29 7
-30 9 -1 1 1 20 4 43 3 27 11 44 22 46 25 7 36 2 35 -16z"/>
<path d="M998 1063 c6 -2 12 -21 12 -40 0 -44 5 -40 13 10 5 33 4 37 -16 36
-12 0 -16 -3 -9 -6z"/>
<path d="M919 1052 c-14 -6 -15 -9 -3 -20 12 -10 14 -10 14 2 0 8 12 16 28 19
25 4 25 4 2 5 -14 0 -32 -2 -41 -6z"/>
<path d="M1058 1033 c5 -23 7 -25 10 -8 2 11 9 23 16 27 6 5 3 8 -10 8 -18 0
-20 -4 -16 -27z"/>
<path d="M1100 1045 c0 -3 11 -10 25 -15 18 -7 25 -18 26 -37 2 -24 2 -25 6
-5 5 24 13 28 29 12 7 -7 8 -33 2 -76 -5 -36 -7 -76 -5 -88 3 -14 5 -10 6 12
1 24 5 32 20 32 12 0 21 -8 24 -22 l4 -23 2 23 c1 25 23 29 41 7 15 -19 23
-14 14 9 -3 9 -17 16 -29 16 -13 0 -26 6 -28 13 -4 10 -6 10 -6 0 -1 -7 -8
-13 -16 -13 -11 0 -15 12 -15 45 0 35 3 43 15 39 8 -4 15 -9 15 -14 0 -4 12
-20 26 -36 l26 -29 -18 33 c-20 36 -70 79 -121 106 -34 17 -43 19 -43 11z"/>
<path d="M821 1000 c-46 -36 -110 -124 -99 -136 3 -2 12 10 19 28 l14 33 6
-35 6 -35 2 38 c1 30 5 37 21 37 12 0 20 -7 21 -17 0 -15 2 -15 8 2 5 11 6 27
3 34 -4 10 -7 11 -10 3 -4 -14 -32 -16 -32 -3 0 14 28 33 40 26 5 -3 10 1 10
9 0 8 9 20 19 26 16 8 20 6 23 -8 3 -12 6 -8 10 11 3 15 2 27 -2 27 -5 0 -31
-18 -59 -40z"/>
<path d="M963 995 c0 -22 2 -30 4 -17 2 12 2 30 0 40 -3 9 -5 -1 -4 -23z"/>
<path d="M912 973 c-2 -36 -5 -43 -22 -43 -15 0 -20 7 -20 27 0 34 -7 27 -12
-12 -3 -26 0 -30 20 -27 19 3 22 -1 23 -35 l1 -38 9 45 c5 25 8 63 6 85 l-4
40 -1 -42z"/>
<path d="M1102 980 c0 -19 2 -27 5 -17 2 9 2 25 0 35 -3 9 -5 1 -5 -18z"/>
<path d="M1052 953 c-1 -23 -5 -43 -10 -45 -4 -1 -4 -19 -1 -38 l6 -35 2 33
c1 25 5 32 21 32 14 0 20 -7 21 -22 1 -18 2 -19 6 -5 3 11 13 18 26 16 38 -2
53 1 41 9 -7 4 -14 18 -17 32 -4 25 -4 25 -6 -2 -1 -21 -6 -28 -21 -28 -12 0
-20 7 -21 18 0 10 -3 12 -6 5 -11 -29 -32 -12 -36 30 l-4 42 -1 -42z"/>
<path d="M1000 945 c0 -18 -5 -25 -20 -25 -11 0 -20 5 -20 10 0 6 -6 5 -14 -2
-8 -7 -10 -15 -6 -18 4 -3 10 -14 13 -25 4 -17 5 -17 6 4 1 19 5 23 26 19 23
-5 25 -2 25 28 0 19 -2 34 -5 34 -3 0 -5 -11 -5 -25z"/>
<path d="M853 865 c0 -22 2 -30 4 -17 2 12 2 30 0 40 -3 9 -5 -1 -4 -23z"/>
<path d="M993 845 c0 -22 2 -30 4 -17 2 12 2 30 0 40 -3 9 -5 -1 -4 -23z"/>
<path d="M803 835 c0 -22 2 -30 4 -17 2 12 2 30 0 40 -3 9 -5 -1 -4 -23z"/>
<path d="M1132 830 c0 -19 2 -27 5 -17 2 9 2 25 0 35 -3 9 -5 1 -5 -18z"/>
<path d="M711 834 c0 -11 3 -14 6 -6 3 7 2 16 -1 19 -3 4 -6 -2 -5 -13z"/>
<path d="M938 813 c-2 -27 -8 -39 -20 -41 -14 -3 -18 4 -19 30 -2 30 -2 31 -6
6 -5 -32 -39 -39 -46 -10 -4 15 -5 15 -6 -2 -1 -14 -6 -17 -23 -12 -13 3 -31
6 -40 6 -13 0 -18 8 -18 27 0 34 -7 27 -12 -12 -3 -26 0 -30 20 -27 19 3 22
-1 24 -35 1 -37 1 -37 5 -5 3 23 9 32 23 32 10 0 21 -8 23 -17 4 -16 5 -16 6
1 1 14 6 17 24 12 12 -3 30 -6 39 -6 11 0 18 -10 21 -32 l4 -33 1 33 c2 25 6
32 22 32 14 0 20 -7 21 -22 1 -16 3 -18 6 -6 3 12 15 17 44 16 38 0 39 -1 41
-37 l1 -36 4 33 c3 23 9 32 23 32 10 0 21 -8 23 -17 4 -16 5 -16 6 1 1 14 6
17 24 12 12 -3 30 -6 40 -6 12 0 17 -9 18 -32 l2 -33 4 30 c3 16 10 33 16 37
7 4 -3 8 -20 8 -30 0 -33 3 -34 33 -2 30 -2 30 -6 5 -5 -32 -39 -39 -46 -10
-4 15 -5 15 -6 -2 -1 -14 -6 -17 -23 -12 -13 3 -31 6 -40 6 -11 0 -18 10 -21
33 l-4 32 -1 -32 c-2 -26 -6 -33 -22 -33 -12 0 -20 7 -21 18 0 10 -3 12 -6 5
-2 -7 -12 -13 -22 -13 -13 0 -16 8 -13 40 2 22 2 40 -1 40 -3 0 -7 -17 -9 -37z"/>
<path d="M1273 815 c0 -22 2 -30 4 -17 2 12 2 30 0 40 -3 9 -5 -1 -4 -23z"/>
<path d="M1082 810 c0 -19 2 -27 5 -17 2 9 2 25 0 35 -3 9 -5 1 -5 -18z"/>
<path d="M1301 824 c0 -11 3 -14 6 -6 3 7 2 16 -1 19 -3 4 -6 -2 -5 -13z"/>
<path d="M1223 790 c0 -25 2 -35 4 -22 2 12 2 32 0 45 -2 12 -4 2 -4 -23z"/>
<path d="M700 755 c0 -32 2 -56 4 -54 8 7 10 98 3 105 -4 4 -7 -19 -7 -51z"/>
<path d="M1310 765 c0 -28 -4 -35 -19 -35 -11 0 -21 8 -23 18 -3 15 -5 14 -9
-3 -3 -11 -2 -29 2 -40 6 -17 8 -17 8 -2 1 11 9 17 26 17 23 0 25 4 25 40 0
22 -2 40 -5 40 -3 0 -5 -16 -5 -35z"/>
<path d="M742 720 c0 -19 2 -27 5 -17 2 9 2 25 0 35 -3 9 -5 1 -5 -18z"/>
<path d="M883 710 c0 -25 2 -35 4 -22 2 12 2 32 0 45 -2 12 -4 2 -4 -23z"/>
<path d="M1023 695 c0 -22 2 -30 4 -17 2 12 2 30 0 40 -3 9 -5 -1 -4 -23z"/>
<path d="M833 685 c0 -22 2 -30 4 -17 2 12 2 30 0 40 -3 9 -5 -1 -4 -23z"/>
<path d="M1163 685 c0 -22 2 -30 4 -17 2 12 2 30 0 40 -3 9 -5 -1 -4 -23z"/>
<path d="M973 665 c0 -22 2 -30 4 -17 2 12 2 30 0 40 -3 9 -5 -1 -4 -23z"/>
<path d="M1301 684 c0 -11 3 -14 6 -6 3 7 2 16 -1 19 -3 4 -6 -2 -5 -13z"/>
<path d="M711 684 c-3 -33 64 -140 108 -171 18 -12 18 -11 8 11 -7 14 -14 23
-16 20 -9 -8 -31 19 -32 40 0 12 -3 15 -6 8 -4 -10 -9 -7 -20 8 -19 27 -15 31
29 23 30 -4 38 -10 41 -32 l4 -26 2 28 c1 35 40 40 42 5 1 -18 2 -19 6 -5 3
13 12 17 31 15 25 -3 27 -1 24 32 -5 45 -12 52 -12 12 0 -25 -4 -32 -20 -32
-14 0 -20 7 -21 23 -1 15 -3 17 -6 5 -3 -12 -15 -17 -44 -16 -37 0 -39 2 -40
32 -2 30 -2 30 -6 4 -3 -20 -10 -28 -24 -28 -11 0 -19 7 -19 16 0 8 -4 13 -9
9 -5 -3 -12 3 -14 12 -3 10 -5 13 -6 7z"/>
<path d="M1113 655 c0 -22 2 -30 4 -17 2 12 2 30 0 40 -3 9 -5 -1 -4 -23z"/>
<path d="M1253 645 c0 -22 2 -30 4 -17 2 12 2 30 0 40 -3 9 -5 -1 -4 -23z"/>
<path d="M1062 643 c-1 -12 -5 -28 -8 -37 -5 -12 0 -16 19 -16 20 0 26 -6 29
-27 3 -27 4 -27 9 5 5 28 3 32 -17 32 -18 0 -24 7 -27 33 -2 17 -5 22 -5 10z"/>
<path d="M1200 625 c0 -28 -4 -35 -20 -35 -14 0 -20 7 -21 23 -1 21 -1 21 -8
-3 -9 -30 -2 -58 9 -40 4 7 16 9 29 5 19 -6 21 -3 21 39 0 25 -2 46 -5 46 -3
0 -5 -16 -5 -35z"/>
<path d="M1280 630 c-7 -16 -17 -30 -22 -30 -5 0 -16 -7 -24 -15 -11 -10 -12
-15 -3 -15 7 0 5 -8 -7 -21 -17 -19 -19 -19 -25 -2 -6 14 -8 13 -8 -8 -1 -15
-8 -30 -17 -33 -22 -8 -22 -8 -27 17 -4 19 -4 19 -6 -5 0 -15 -9 -32 -18 -37
-23 -13 -12 -14 21 -1 38 14 115 89 138 133 10 21 17 41 15 43 -2 3 -10 -9
-17 -26z"/>
<path d="M1011 626 c-1 -14 -7 -17 -26 -14 -23 5 -25 3 -24 -31 2 -30 3 -32 6
-8 4 28 37 39 45 15 3 -8 6 -7 10 3 3 7 2 23 -3 34 -7 18 -8 19 -8 1z"/>
<path d="M913 555 c0 -22 2 -30 4 -17 2 12 2 30 0 40 -3 9 -5 -1 -4 -23z"/>
<path d="M1053 545 c0 -22 2 -30 4 -17 2 12 2 30 0 40 -3 9 -5 -1 -4 -23z"/>
<path d="M859 531 c-5 -42 -4 -44 31 -59 36 -16 194 -30 174 -15 -7 4 -14 17
-17 28 -4 19 -5 18 -6 -2 -1 -19 -7 -22 -41 -21 -39 0 -40 1 -42 37 l-1 36 -4
-32 c-3 -25 -9 -33 -24 -33 -13 0 -19 7 -20 23 -1 17 -2 18 -6 4 -8 -32 -28
-12 -33 34 l-6 44 -5 -44z"/>
<path d="M1003 525 c0 -22 2 -30 4 -17 2 12 2 30 0 40 -3 9 -5 -1 -4 -23z"/>
<path d="M1088 490 c-3 -16 -1 -30 4 -30 4 0 8 14 8 30 0 17 -2 30 -4 30 -2 0
-6 -13 -8 -30z"/>
<path d="M3667 1086 c-71 -26 -113 -84 -103 -144 6 -38 41 -82 65 -82 38 -1
43 -15 22 -69 -19 -50 -19 -52 0 -61 10 -6 39 -13 64 -16 l45 -7 0 61 0 61 45
-1 c49 -1 69 11 91 53 40 79 -11 175 -110 204 -60 18 -70 18 -119 1z m167 -36
c35 -24 67 -74 65 -102 0 -7 -6 -1 -12 14 -30 66 -85 98 -170 98 -41 0 -63 -6
-91 -25 -30 -20 -35 -21 -27 -6 30 55 166 67 235 21z m-156 -115 c3 -29 1 -31
-30 -30 -36 0 -49 24 -27 51 21 25 54 13 57 -21z m160 -7 c16 -16 15 -43 -2
-57 -14 -12 -17 -11 -65 16 -2 1 4 14 13 28 18 27 35 32 54 13z"/>
<path d="M3025 990 c-16 -7 -17 -9 -3 -9 9 -1 20 4 23 9 7 11 7 11 -20 0z"/>
<path d="M3160 833 c-19 -10 -33 -22 -30 -28 2 -5 72 -70 154 -143 147 -131
150 -133 162 -110 23 42 26 92 8 139 -9 24 -17 58 -18 76 -2 45 -31 72 -75 72
-20 0 -65 3 -101 6 -52 5 -72 2 -100 -12z m32 -11 c-31 -17 -31 -18 -15 -36
17 -18 17 -18 -4 -7 -12 6 -25 15 -28 21 -6 10 41 39 65 39 8 0 0 -8 -18 -17z
m212 -17 c10 -7 16 -19 14 -25 -2 -6 -14 0 -27 14 -26 28 -18 35 13 11z m41
-222 c-3 -18 -11 -33 -17 -33 -6 0 -8 9 -3 23 3 12 9 45 13 72 l7 50 3 -40 c2
-21 1 -54 -3 -72z"/>
<path d="M3080 767 c0 -29 -9 -34 -28 -15 -9 9 -12 6 -12 -14 0 -14 7 -31 15
-38 17 -14 20 -40 5 -40 -15 0 -12 -26 4 -39 17 -15 9 -54 -10 -47 -11 4 -22
-10 -11 -15 4 -2 277 -24 277 -23 0 1 -7 17 -15 35 -11 26 -14 29 -15 13 0
-11 -3 -24 -7 -27 -11 -11 -33 14 -33 38 0 14 -13 33 -35 49 -22 17 -32 21
-29 11 9 -21 -19 -19 -39 3 -10 10 -17 26 -17 34 0 9 -8 15 -17 14 -14 -1 -18
7 -18 36 0 20 -3 40 -7 44 -5 4 -8 -5 -8 -19z"/>
<path d="M1958 751 c-53 -18 -109 -56 -130 -89 -16 -26 -19 -42 -14 -77 15
-94 63 -115 206 -91 47 8 120 17 162 21 91 8 116 24 124 77 9 51 -21 89 -100
128 -51 25 -80 33 -142 36 -44 2 -91 0 -106 -5z m205 -28 c65 -20 55 -25 -18
-7 -77 18 -138 18 -199 -1 -62 -19 -72 -12 -14 9 78 28 140 28 231 -1z m-166
-45 c17 -18 36 -44 42 -58 12 -24 11 -24 -4 -5 -8 11 -32 37 -51 58 -20 20
-32 37 -27 37 5 0 23 -15 40 -32z m128 -28 c38 -55 28 -58 -12 -4 -18 24 -29
44 -24 44 4 0 21 -18 36 -40z m96 8 c17 -24 18 -29 6 -19 -18 14 -42 51 -33
51 3 0 15 -15 27 -32z m-293 -39 c20 -32 10 -30 -16 2 -13 16 -17 27 -10 24 7
-3 19 -15 26 -26z"/>
<path d="M505 575 c-12 -24 -25 -35 -41 -35 -12 0 -24 -7 -28 -15 -3 -8 -11
-12 -18 -10 -8 3 -20 -12 -31 -40 -11 -26 -23 -42 -30 -38 -6 3 -7 1 -3 -6 11
-17 -66 -194 -77 -178 -6 8 -7 6 -3 -6 7 -21 -22 -99 -34 -92 -5 3 -6 -4 -3
-14 5 -20 113 -75 124 -63 17 19 170 393 166 404 -4 11 -6 11 -6 0 -1 -7 -6
-10 -11 -7 -7 4 -7 12 0 25 7 13 6 20 -1 22 -8 3 -6 16 5 42 21 50 16 56 -9
11z"/>
<path d="M3845 601 c-45 -11 -87 -36 -116 -68 -30 -31 -59 -84 -59 -106 0 -8
-7 -20 -15 -27 -9 -8 -12 -16 -6 -19 15 -9 25 -61 12 -61 -6 0 -11 -4 -11 -10
0 -5 6 -10 14 -10 8 0 18 -9 21 -21 9 -29 63 -87 95 -104 52 -27 113 -35 165
-22 27 7 50 18 53 25 3 11 0 12 -14 4 -66 -33 -167 -18 -226 36 -71 64 -92
136 -64 220 37 112 149 171 259 138 26 -8 47 -10 47 -5 0 24 -102 44 -155 30z"/>
<path d="M0 568 c0 -7 9 -19 20 -26 12 -7 17 -18 14 -29 -4 -13 -3 -14 3 -5
12 16 26 2 48 -51 33 -80 9 -187 -54 -240 -18 -15 -31 -32 -29 -39 3 -7 24 8
51 35 32 32 51 61 59 92 13 47 43 70 59 44 15 -25 21 0 14 64 -6 50 -10 64
-21 60 -8 -3 -11 -9 -8 -14 3 -5 -5 -9 -18 -9 -16 1 -31 13 -49 44 -28 46 -89
97 -89 74z m160 -163 c0 -28 -4 -35 -20 -35 -15 0 -20 7 -20 28 0 32 7 42 27
42 8 0 13 -12 13 -35z"/>
<path d="M3867 573 c-8 -13 4 -93 14 -93 12 0 11 71 0 89 -5 7 -11 9 -14 4z"/>
<path d="M3899 575 c-8 -8 3 -85 12 -85 12 0 12 77 0 84 -4 3 -10 4 -12 1z"/>
<path d="M2623 560 c60 -11 134 -50 148 -77 21 -38 18 -139 -4 -160 -17 -17
-18 -17 -8 10 12 32 14 79 5 125 -5 23 -17 36 -54 56 -70 38 -140 49 -187 30
-46 -19 -96 -54 -89 -61 3 -3 0 -15 -6 -27 -7 -11 -15 -39 -19 -61 l-6 -40 -2
38 c0 21 4 48 10 60 l11 22 -23 -22 c-19 -18 -22 -31 -20 -75 1 -29 -1 -50 -4
-46 -3 3 -7 21 -7 39 l-1 34 -13 -30 c-18 -42 -17 -53 14 -115 39 -77 74 -95
182 -95 75 0 92 4 151 32 39 19 84 52 109 79 41 45 42 47 38 105 -3 45 -11 69
-34 101 -48 68 -85 88 -163 87 -58 -1 -61 -2 -28 -9z m67 -53 c36 -19 47 -31
54 -59 26 -102 -46 -191 -153 -190 -45 0 -109 18 -99 28 3 2 17 0 32 -6 71
-26 152 -3 186 53 20 32 27 111 12 133 -14 23 -92 54 -133 54 -71 0 -139 -59
-139 -120 0 -11 -5 -20 -11 -20 -16 0 -3 48 24 87 44 66 142 83 227 40z m-22
-28 c35 -12 46 -35 36 -76 -10 -41 -33 -72 -65 -89 -32 -16 -82 -18 -107 -5
-11 6 -28 3 -50 -9 l-33 -18 31 -22 c17 -12 49 -24 71 -27 24 -4 36 -9 29 -13
-18 -11 -80 8 -115 34 -16 13 -37 25 -45 28 -9 3 1 14 31 31 51 30 65 33 72
15 2 -8 23 -13 55 -13 64 0 101 31 109 91 7 51 -11 66 -81 72 -45 4 -56 1 -84
-23 -18 -15 -32 -33 -32 -40 0 -8 -5 -17 -11 -21 -16 -10 -1 36 20 60 9 10 25
22 36 27 29 11 97 11 133 -2z m-20 -25 c29 -8 28 -35 -3 -72 -25 -30 -74 -45
-97 -30 -8 5 0 8 21 8 61 0 110 70 59 83 -27 7 -83 -15 -97 -40 -6 -10 -11
-13 -11 -7 0 14 21 39 45 52 23 13 50 15 83 6z m-40 -51 c-2 -10 -10 -18 -18
-18 -8 0 -16 8 -18 18 -2 12 3 17 18 17 15 0 20 -5 18 -17z m-128 -190 c0 -9
-60 32 -65 44 -2 8 11 2 30 -13 19 -14 35 -28 35 -31z"/>
<path d="M3830 556 c0 -29 13 -76 21 -76 10 0 12 34 3 68 -7 24 -24 30 -24 8z"/>
<path d="M3930 530 c0 -30 4 -40 16 -40 11 0 14 5 10 16 -3 9 -6 27 -6 40 0
13 -4 24 -10 24 -5 0 -10 -18 -10 -40z"/>
<path d="M1638 553 c6 -2 18 -2 25 0 6 3 1 5 -13 5 -14 0 -19 -2 -12 -5z"/>
<path d="M3803 524 c3 -20 9 -39 12 -42 11 -12 16 8 10 42 -9 48 -29 48 -22 0z"/>
<path d="M3960 538 c0 -27 15 -54 23 -42 8 13 -4 64 -14 64 -5 0 -9 -10 -9
-22z"/>
<path d="M1588 543 c6 -2 18 -2 25 0 6 3 1 5 -13 5 -14 0 -19 -2 -12 -5z"/>
<path d="M0 523 c0 -13 5 -23 10 -23 13 0 13 11 0 30 -8 12 -10 11 -10 -7z"/>
<path d="M1538 533 c6 -2 18 -2 25 0 6 3 1 5 -13 5 -14 0 -19 -2 -12 -5z"/>
<path d="M1722 520 c0 -14 2 -19 5 -12 2 6 2 18 0 25 -3 6 -5 1 -5 -13z"/>
<path d="M2954 528 c-6 -9 2 -11 33 -8 16 1 27 -9 42 -37 21 -41 51 -76 77
-91 15 -9 13 -21 -25 -126 -35 -100 -38 -117 -24 -114 13 3 17 12 15 33 -2 24
0 27 8 15 8 -11 9 -8 4 15 -4 24 -3 27 6 15 9 -12 10 -11 5 6 -7 25 19 94 28
73 4 -8 4 0 1 16 -4 20 -3 26 4 17 7 -11 10 -10 14 6 5 17 12 18 64 14 64 -5
74 -12 74 -56 l0 -28 -81 7 c-81 7 -99 2 -99 -30 1 -5 5 -3 10 5 7 13 23 14
89 10 44 -4 84 -10 88 -14 5 -4 8 -33 8 -64 0 -54 1 -57 27 -60 33 -4 48 30
24 57 -9 10 -16 24 -16 32 0 12 -2 11 -11 -1 -8 -11 -9 -6 -5 23 3 25 1 35 -6
31 -7 -5 -9 2 -6 19 3 15 1 24 -3 21 -5 -3 -9 1 -8 8 1 29 16 49 49 66 19 11
46 35 59 55 20 31 30 37 60 37 20 0 31 4 25 8 -17 16 -119 32 -274 42 -162 11
-248 10 -256 -2z m95 -19 c1 8 4 12 7 8 3 -3 2 -16 -2 -29 -7 -22 -7 -22 -15
-3 -11 28 -10 56 1 30 5 -12 9 -14 9 -6z m361 -23 c0 -17 -50 -79 -57 -72 -3
3 4 17 16 32 11 15 21 33 21 40 0 8 5 14 10 14 6 0 10 -6 10 -14z m-72 -324
c2 -7 -3 -12 -12 -12 -9 0 -16 7 -16 16 0 17 22 14 28 -4z"/>
<path d="M3770 518 c0 -26 16 -55 25 -47 8 8 -6 69 -16 69 -5 0 -9 -10 -9 -22z"/>
<path d="M1483 523 c9 -2 23 -2 30 0 6 3 -1 5 -18 5 -16 0 -22 -2 -12 -5z"/>
<path d="M1420 501 c-5 -11 -20 -22 -32 -24 -20 -4 -20 -4 4 -6 16 0 29 -8 32
-18 3 -12 5 -9 4 7 -1 43 1 48 20 53 16 4 16 5 0 6 -10 0 -22 -8 -28 -18z"/>
<path d="M3747 513 c-12 -12 -7 -43 7 -43 9 0 12 8 8 25 -5 27 -6 28 -15 18z"/>
<path d="M0 458 c0 -33 14 -67 24 -58 8 9 -6 90 -15 90 -5 0 -9 -15 -9 -32z"/>
<path d="M34 448 c7 -44 12 -55 21 -46 9 9 -7 88 -18 88 -6 0 -7 -16 -3 -42z"/>
<path d="M1732 470 c0 -14 2 -19 5 -12 2 6 2 18 0 25 -3 6 -5 1 -5 -13z"/>
<path d="M3909 473 c-3 -26 4 -79 12 -87 5 -6 9 8 9 36 0 26 -4 50 -10 53 -5
3 -10 3 -11 -2z"/>
<path d="M3940 435 c0 -29 4 -45 13 -45 8 0 11 14 9 45 -2 25 -8 45 -13 45 -5
0 -9 -20 -9 -45z"/>
<path d="M3970 448 c0 -34 15 -67 25 -57 8 9 -6 89 -16 89 -5 0 -9 -15 -9 -32z"/>
<path d="M64 457 c3 -10 6 -27 6 -38 0 -10 5 -19 11 -19 13 0 3 50 -13 65 -8
7 -9 4 -4 -8z"/>
<path d="M3815 423 c7 -51 11 -60 21 -50 10 10 -6 97 -18 97 -7 0 -8 -16 -3
-47z"/>
<path d="M3844 448 c3 -13 6 -33 6 -45 0 -13 5 -23 10 -23 11 0 14 49 4 74 -9
25 -27 19 -20 -6z"/>
<path d="M3878 425 c2 -25 8 -45 14 -45 12 0 6 82 -7 87 -6 2 -9 -15 -7 -42z"/>
<path d="M3750 428 c0 -33 14 -67 24 -58 8 9 -6 90 -15 90 -5 0 -9 -15 -9 -32z"/>
<path d="M3783 419 c3 -22 8 -43 11 -46 12 -13 16 6 10 46 -9 54 -28 54 -21 0z"/>
<path d="M3720 412 c0 -38 7 -55 19 -47 10 5 0 85 -10 85 -5 0 -9 -17 -9 -38z"/>
<path d="M1742 420 c0 -14 2 -19 5 -12 2 6 2 18 0 25 -3 6 -5 1 -5 -13z"/>
<path d="M1432 405 c0 -16 2 -22 5 -12 2 9 2 23 0 30 -3 6 -5 -1 -5 -18z"/>
<path d="M3696 414 c-9 -24 -7 -54 4 -54 6 0 10 16 10 35 0 38 -4 44 -14 19z"/>
<path d="M3601 349 c4 -33 10 -63 14 -67 13 -13 22 22 14 53 -5 19 -9 37 -8
42 3 20 -2 33 -14 33 -10 0 -12 -14 -6 -61z"/>
<path d="M44 348 c9 -53 26 -75 26 -32 0 40 -10 74 -22 74 -7 0 -8 -16 -4 -42z"/>
<path d="M71 378 c1 -7 5 -24 9 -38 7 -22 8 -21 9 13 1 20 -3 37 -9 37 -5 0
-10 -6 -9 -12z"/>
<path d="M14 338 c7 -45 12 -55 22 -45 10 9 -7 87 -18 87 -7 0 -8 -15 -4 -42z"/>
<path d="M1752 360 c0 -14 2 -19 5 -12 2 6 2 18 0 25 -3 6 -5 1 -5 -13z"/>
<path d="M3950 348 c0 -33 14 -67 24 -58 8 9 -6 90 -15 90 -5 0 -9 -15 -9 -32z"/>
<path d="M3981 358 c1 -13 5 -34 9 -48 7 -20 8 -16 9 23 1 26 -3 47 -9 47 -5
0 -10 -10 -9 -22z"/>
<path d="M1442 350 c0 -14 2 -19 5 -12 2 6 2 18 0 25 -3 6 -5 1 -5 -13z"/>
<path d="M3857 364 c-8 -8 4 -77 14 -88 5 -6 9 9 9 36 0 44 -10 65 -23 52z"/>
<path d="M3888 325 c2 -25 9 -45 16 -45 7 0 10 16 8 45 -2 25 -9 45 -16 45 -7
0 -10 -16 -8 -45z"/>
<path d="M3920 331 c0 -22 5 -43 11 -46 15 -10 16 -5 11 43 -5 53 -22 55 -22
3z"/>
<path d="M3761 328 c1 -42 13 -75 22 -60 10 14 -3 92 -14 92 -5 0 -9 -15 -8
-32z"/>
<path d="M3794 318 c7 -45 12 -55 22 -45 10 9 -7 87 -18 87 -7 0 -8 -15 -4
-42z"/>
<path d="M3824 338 c3 -13 6 -33 6 -45 0 -13 5 -23 10 -23 6 0 10 10 10 23 0
34 -11 67 -22 67 -6 0 -8 -10 -4 -22z"/>
<path d="M3701 333 c0 -10 4 -27 9 -38 7 -16 9 -13 9 18 1 20 -3 37 -9 37 -5
0 -10 -8 -9 -17z"/>
<path d="M3730 311 c0 -34 13 -61 25 -49 7 7 -8 88 -16 88 -5 0 -9 -18 -9 -39z"/>
<path d="M663 300 c11 -87 72 -166 161 -210 46 -23 132 -17 193 14 29 14 60
26 70 27 14 0 13 2 -4 9 -13 5 -38 33 -57 62 -72 112 -130 141 -274 136 l-94
-3 5 -35z m136 -34 c-2 -2 -13 8 -23 22 l-19 27 24 -22 c12 -12 21 -24 18 -27z
m91 -31 c0 -5 -9 5 -20 23 -26 42 -26 56 0 17 11 -16 20 -34 20 -40z m78 0
c-3 -3 -9 2 -12 12 -6 14 -5 15 5 6 7 -7 10 -15 7 -18z m-135 -72 c-13 -2 -33
-2 -45 0 -13 2 -3 4 22 4 25 0 35 -2 23 -4z m107 -43 c-8 -5 -22 -9 -30 -9
-10 0 -8 3 5 9 27 12 43 12 25 0z"/>
<path d="M1 304 c0 -11 3 -14 6 -6 3 7 2 16 -1 19 -3 4 -6 -2 -5 -13z"/>
<path d="M1759 292 c-3 -20 -2 -29 4 -23 5 5 7 19 5 32 -3 20 -5 19 -9 -9z"/>
<path d="M1452 290 c0 -14 2 -19 5 -12 2 6 2 18 0 25 -3 6 -5 1 -5 -13z"/>
<path d="M1 245 c-1 -25 2 -36 9 -29 6 6 6 21 1 39 -9 30 -9 30 -10 -10z"/>
<path d="M20 261 c0 -11 5 -23 10 -26 6 -4 10 5 10 19 0 14 -4 26 -10 26 -5 0
-10 -9 -10 -19z"/>
<path d="M50 269 c0 -5 5 -7 10 -4 6 3 10 8 10 11 0 2 -4 4 -10 4 -5 0 -10 -5
-10 -11z"/>
<path d="M3961 253 c1 -37 14 -70 22 -56 8 13 -2 71 -14 79 -5 3 -9 -7 -8 -23z"/>
<path d="M3992 260 c0 -14 2 -19 5 -12 2 6 2 18 0 25 -3 6 -5 1 -5 -13z"/>
<path d="M3900 236 c0 -39 9 -68 19 -62 10 6 0 96 -10 96 -5 0 -9 -15 -9 -34z"/>
<path d="M3930 238 c0 -33 14 -67 24 -58 8 9 -6 90 -15 90 -5 0 -9 -15 -9 -32z"/>
<path d="M1461 249 c-1 -22 24 -42 46 -36 14 4 13 5 -5 6 -13 1 -26 10 -32 24
-6 15 -9 17 -9 6z"/>
<path d="M1708 253 c6 -2 18 -2 25 0 6 3 1 5 -13 5 -14 0 -19 -2 -12 -5z"/>
<path d="M3800 248 c0 -25 12 -58 21 -58 10 0 12 31 3 54 -7 19 -24 21 -24 4z"/>
<path d="M3833 246 c4 -10 7 -29 7 -42 0 -13 5 -24 11 -24 15 0 6 73 -10 78
-10 3 -12 0 -8 -12z"/>
<path d="M3870 221 c0 -22 5 -43 10 -46 6 -4 10 12 10 39 0 25 -4 46 -10 46
-5 0 -10 -18 -10 -39z"/>
<path d="M1648 243 c6 -2 18 -2 25 0 6 3 1 5 -13 5 -14 0 -19 -2 -12 -5z"/>
<path d="M3745 240 c3 -5 8 -10 11 -10 2 0 4 5 4 10 0 6 -5 10 -11 10 -5 0 -7
-4 -4 -10z"/>
<path d="M3770 236 c0 -7 6 -19 14 -25 11 -9 12 -6 8 14 -5 26 -22 35 -22 11z"/>
<path d="M1598 233 c6 -2 18 -2 25 0 6 3 1 5 -13 5 -14 0 -19 -2 -12 -5z"/>
<path d="M1538 223 c6 -2 18 -2 25 0 6 3 1 5 -13 5 -14 0 -19 -2 -12 -5z"/>
<path d="M2166 171 c-20 -22 -20 -31 -2 -31 8 0 17 -10 19 -22 l4 -23 2 23 c0
12 7 22 15 22 8 0 17 -10 19 -22 2 -13 5 -3 6 22 1 41 -1 45 -23 46 -14 1 -32
-6 -40 -15z"/>
<path d="M1940 153 c0 -27 -4 -33 -21 -33 -12 0 -28 -8 -36 -17 -8 -10 -11
-12 -7 -4 5 9 3 12 -5 7 -6 -4 -9 -12 -6 -17 4 -5 1 -9 -4 -9 -6 0 -11 -18
-11 -40 0 -29 4 -40 15 -40 11 0 15 11 15 39 0 26 5 41 16 45 33 13 44 6 46
-26 0 -18 4 -4 8 32 4 36 3 72 -1 80 -6 10 -8 5 -9 -17z"/>
<path d="M2893 153 c-4 -10 -13 -24 -21 -32 -10 -10 -12 -27 -8 -59 3 -24 8
-47 10 -51 3 -4 31 -9 62 -10 51 -2 56 0 49 16 -4 10 -10 37 -12 60 -4 33 -13
48 -39 68 -32 24 -35 25 -41 8z m-6 -135 c-3 -8 -6 -5 -6 6 -1 11 2 17 5 13 3
-3 4 -12 1 -19z"/>
<path d="M1312 95 c-34 -8 -82 -24 -105 -37 -44 -24 -62 -58 -31 -58 10 0 15
3 11 6 -3 4 1 13 9 21 13 14 18 13 39 -7 14 -13 27 -21 30 -18 3 2 -4 13 -15
23 -37 34 -20 37 23 4 l42 -33 -34 37 c-44 47 -31 48 25 2 54 -45 65 -45 16
-1 -20 19 -34 37 -30 41 3 4 26 -12 51 -34 24 -23 48 -41 53 -41 5 0 -11 18
-36 40 -27 24 -39 40 -29 40 8 0 28 -14 45 -31 16 -17 38 -35 49 -40 11 -6 0
8 -24 31 -63 58 -43 61 26 4 l58 -48 -45 47 c-56 60 -43 61 26 2 28 -25 56
-45 60 -45 5 0 -14 19 -40 43 l-49 43 36 1 c21 1 39 -3 42 -8 3 -4 12 -6 21
-2 8 3 23 -2 33 -11 10 -9 22 -16 27 -14 5 2 11 -1 12 -7 2 -5 8 -16 14 -22
23 -28 -19 -12 -47 17 -16 17 -34 30 -39 30 -6 -1 7 -16 28 -35 32 -29 47 -35
83 -35 27 0 42 4 38 10 -3 5 -12 10 -20 10 -7 0 -17 9 -20 20 -18 58 -190 86
-333 55z"/>
<path d="M1515 42 c21 -23 43 -42 48 -42 14 0 -1 17 -46 51 l-42 33 40 -42z"/>
<path d="M2212 25 c0 -17 2 -22 5 -12 2 9 2 23 0 30 -3 6 -5 -1 -5 -18z"/>
<path d="M1205 10 c3 -5 11 -10 16 -10 6 0 7 5 4 10 -3 6 -11 10 -16 10 -6 0
-7 -4 -4 -10z"/>
</g>
</svg>
